<?xml version="1.0" encoding="UTF-8"?>
<!--Generator: Apple Native CoreSVG 341-->
<!DOCTYPE svg
PUBLIC "-//W3C//DTD SVG 1.1//EN"
       "http://www.w3.org/Graphics/SVG/1.1/DTD/svg11.dtd">
<svg version="1.1" xmlns="http://www.w3.org/2000/svg" xmlns:xlink="http://www.w3.org/1999/xlink" viewBox="0 0 3300 2200">
 <g id="Notes">
  <rect height="2200" id="artboard" style="fill:white;opacity:1" width="3300" x="0" y="0"/>
  <line style="fill:none;stroke:black;opacity:1;stroke-width:0.5;" x1="263" x2="3036" y1="292" y2="292"/>
  <text style="stroke:none;fill:black;font-family:sans-serif;font-size:13;font-weight:bold;" transform="matrix(1 0 0 1 263 322)">Weight/Scale Variations</text>
  <text style="stroke:none;fill:black;font-family:sans-serif;font-size:13;text-anchor:middle;" transform="matrix(1 0 0 1 559.711 322)">Ultralight</text>
  <text style="stroke:none;fill:black;font-family:sans-serif;font-size:13;text-anchor:middle;" transform="matrix(1 0 0 1 856.422 322)">Thin</text>
  <text style="stroke:none;fill:black;font-family:sans-serif;font-size:13;text-anchor:middle;" transform="matrix(1 0 0 1 1153.13 322)">Light</text>
  <text style="stroke:none;fill:black;font-family:sans-serif;font-size:13;text-anchor:middle;" transform="matrix(1 0 0 1 1449.84 322)">Regular</text>
  <text style="stroke:none;fill:black;font-family:sans-serif;font-size:13;text-anchor:middle;" transform="matrix(1 0 0 1 1746.56 322)">Medium</text>
  <text style="stroke:none;fill:black;font-family:sans-serif;font-size:13;text-anchor:middle;" transform="matrix(1 0 0 1 2043.27 322)">Semibold</text>
  <text style="stroke:none;fill:black;font-family:sans-serif;font-size:13;text-anchor:middle;" transform="matrix(1 0 0 1 2339.98 322)">Bold</text>
  <text style="stroke:none;fill:black;font-family:sans-serif;font-size:13;text-anchor:middle;" transform="matrix(1 0 0 1 2636.69 322)">Heavy</text>
  <text style="stroke:none;fill:black;font-family:sans-serif;font-size:13;text-anchor:middle;" transform="matrix(1 0 0 1 2933.4 322)">Black</text>
  <line style="fill:none;stroke:black;opacity:1;stroke-width:0.5;" x1="263" x2="3036" y1="1903" y2="1903"/>
  <g transform="matrix(0.2 0 0 0.2 263 1933)">
   <path d="m46.2402 4.15039c21.7773 0 39.4531-17.627 39.4531-39.4043s-17.6758-39.4043-39.4531-39.4043c-21.7285 0-39.4043 17.627-39.4043 39.4043s17.6758 39.4043 39.4043 39.4043Zm0-7.42188c-17.6758 0-31.9336-14.3066-31.9336-31.9824s14.2578-31.9824 31.9336-31.9824 31.9824 14.3066 31.9824 31.9824-14.3066 31.9824-31.9824 31.9824Zm-17.9688-31.9824c0 2.14844 1.51367 3.61328 3.75977 3.61328h10.498v10.5957c0 2.19727 1.46484 3.71094 3.61328 3.71094 2.24609 0 3.71094-1.51367 3.71094-3.71094v-10.5957h10.5957c2.19727 0 3.71094-1.46484 3.71094-3.61328 0-2.19727-1.51367-3.71094-3.71094-3.71094h-10.5957v-10.5469c0-2.24609-1.46484-3.75977-3.71094-3.75977-2.14844 0-3.61328 1.51367-3.61328 3.75977v10.5469h-10.498c-2.24609 0-3.75977 1.51367-3.75977 3.71094Z"/>
  </g>
  <g transform="matrix(0.2 0 0 0.2 281.506 1933)">
   <path d="m58.5449 14.5508c27.4902 0 49.8047-22.3145 49.8047-49.8047s-22.3145-49.8047-49.8047-49.8047-49.8047 22.3145-49.8047 49.8047 22.3145 49.8047 49.8047 49.8047Zm0-8.30078c-22.9492 0-41.5039-18.5547-41.5039-41.5039s18.5547-41.5039 41.5039-41.5039 41.5039 18.5547 41.5039 41.5039-18.5547 41.5039-41.5039 41.5039Zm-22.6562-41.5039c0 2.39258 1.66016 4.00391 4.15039 4.00391h14.3555v14.4043c0 2.44141 1.66016 4.15039 4.05273 4.15039 2.44141 0 4.15039-1.66016 4.15039-4.15039v-14.4043h14.4043c2.44141 0 4.15039-1.61133 4.15039-4.00391 0-2.44141-1.70898-4.15039-4.15039-4.15039h-14.4043v-14.3555c0-2.49023-1.70898-4.19922-4.15039-4.19922-2.39258 0-4.05273 1.70898-4.05273 4.19922v14.3555h-14.3555c-2.49023 0-4.15039 1.70898-4.15039 4.15039Z"/>
  </g>
  <g transform="matrix(0.2 0 0 0.2 304.924 1933)">
   <path d="m74.8535 28.3203c35.1074 0 63.623-28.4668 63.623-63.5742s-28.5156-63.623-63.623-63.623-63.5742 28.5156-63.5742 63.623 28.4668 63.5742 63.5742 63.5742Zm0-9.08203c-30.127 0-54.4922-24.3652-54.4922-54.4922s24.3652-54.4922 54.4922-54.4922 54.4922 24.3652 54.4922 54.4922-24.3652 54.4922-54.4922 54.4922Zm-28.8574-54.4922c0 2.58789 1.85547 4.39453 4.58984 4.39453h19.7266v19.7754c0 2.68555 1.85547 4.58984 4.44336 4.58984 2.68555 0 4.54102-1.85547 4.54102-4.58984v-19.7754h19.7754c2.68555 0 4.58984-1.80664 4.58984-4.39453 0-2.73438-1.85547-4.58984-4.58984-4.58984h-19.7754v-19.7266c0-2.73438-1.85547-4.63867-4.54102-4.63867-2.58789 0-4.44336 1.9043-4.44336 4.63867v19.7266h-19.7266c-2.73438 0-4.58984 1.85547-4.58984 4.58984Z"/>
  </g>
  <text style="stroke:none;fill:black;font-family:sans-serif;font-size:13;font-weight:bold;" transform="matrix(1 0 0 1 263 1953)">Design Variations</text>
  <text style="stroke:none;fill:black;font-family:sans-serif;font-size:13;" transform="matrix(1 0 0 1 263 1971)">Symbols are supported in up to nine weights and three scales.</text>
  <text style="stroke:none;fill:black;font-family:sans-serif;font-size:13;" transform="matrix(1 0 0 1 263 1989)">For optimal layout with text and other symbols, vertically align</text>
  <text style="stroke:none;fill:black;font-family:sans-serif;font-size:13;" transform="matrix(1 0 0 1 263 2007)">symbols with the adjacent text.</text>
  <line style="fill:none;stroke:#00AEEF;stroke-width:0.5;opacity:1.0;" x1="776" x2="776" y1="1919" y2="1933"/>
  <g transform="matrix(0.2 0 0 0.2 776 1933)">
   <path d="m16.5527 0.78125c2.58789 0 3.85742-0.976562 4.78516-3.71094l6.29883-17.2363h28.8086l6.29883 17.2363c0.927734 2.73438 2.19727 3.71094 4.73633 3.71094 2.58789 0 4.24805-1.5625 4.24805-4.00391 0-0.830078-0.146484-1.61133-0.537109-2.63672l-22.9004-60.9863c-1.12305-2.97852-3.125-4.49219-6.25-4.49219-3.02734 0-5.07812 1.46484-6.15234 4.44336l-22.9004 61.084c-0.390625 1.02539-0.537109 1.80664-0.537109 2.63672 0 2.44141 1.5625 3.95508 4.10156 3.95508Zm13.4766-28.3691 11.8652-32.8613h0.244141l11.8652 32.8613Z"/>
  </g>
  <line style="fill:none;stroke:#00AEEF;stroke-width:0.5;opacity:1.0;" x1="792.836" x2="792.836" y1="1919" y2="1933"/>
  <text style="stroke:none;fill:black;font-family:sans-serif;font-size:13;font-weight:bold;" transform="matrix(1 0 0 1 776 1953)">Margins</text>
  <text style="stroke:none;fill:black;font-family:sans-serif;font-size:13;" transform="matrix(1 0 0 1 776 1971)">Leading and trailing margins on the left and right side of each symbol</text>
  <text style="stroke:none;fill:black;font-family:sans-serif;font-size:13;" transform="matrix(1 0 0 1 776 1989)">can be adjusted by modifying the x-location of the margin guidelines.</text>
  <text style="stroke:none;fill:black;font-family:sans-serif;font-size:13;" transform="matrix(1 0 0 1 776 2007)">Modifications are automatically applied proportionally to all</text>
  <text style="stroke:none;fill:black;font-family:sans-serif;font-size:13;" transform="matrix(1 0 0 1 776 2025)">scales and weights.</text>
  <g transform="matrix(0.2 0 0 0.2 1289 1933)">
   <path d="m14.209 9.32617 8.49609 8.54492c4.29688 4.3457 9.22852 4.05273 13.8672-1.07422l53.4668-58.9355-4.83398-4.88281-53.0762 58.3984c-1.75781 2.00195-3.41797 2.49023-5.76172 0.146484l-5.85938-5.81055c-2.34375-2.29492-1.80664-4.00391 0.195312-5.81055l57.373-54.0039-4.88281-4.83398-57.959 54.4434c-4.93164 4.58984-5.32227 9.47266-1.02539 13.8184Zm32.0801-90.9668c-2.09961 2.05078-2.24609 4.93164-1.07422 6.88477 1.17188 1.80664 3.4668 2.97852 6.68945 2.14844 7.32422-1.70898 14.9414-2.00195 22.0703 2.68555l-2.92969 7.27539c-1.70898 4.15039-0.830078 7.08008 1.85547 9.81445l11.4746 11.5723c2.44141 2.44141 4.49219 2.53906 7.32422 2.05078l5.32227-0.976562 3.32031 3.36914-0.195312 2.7832c-0.195312 2.49023 0.439453 4.39453 2.88086 6.78711l3.80859 3.71094c2.39258 2.39258 5.46875 2.53906 7.8125 0.195312l14.5508-14.5996c2.34375-2.34375 2.24609-5.32227-0.146484-7.71484l-3.85742-3.80859c-2.39258-2.39258-4.24805-3.17383-6.64062-2.97852l-2.88086 0.244141-3.22266-3.17383 1.2207-5.61523c0.634766-2.83203-0.146484-5.0293-3.07617-7.95898l-10.9863-10.9375c-16.6992-16.6016-38.8672-16.2109-53.3203-1.75781Zm7.4707 1.85547c12.1582-8.88672 28.6133-7.37305 39.7461 3.75977l12.1582 12.0605c1.17188 1.17188 1.36719 2.09961 1.02539 3.80859l-1.61133 7.42188 7.51953 7.42188 4.93164-0.292969c1.26953-0.0488281 1.66016 0.0488281 2.63672 1.02539l2.88086 2.88086-12.207 12.207-2.88086-2.88086c-0.976562-0.976562-1.12305-1.36719-1.07422-2.68555l0.341797-4.88281-7.4707-7.42188-7.61719 1.26953c-1.61133 0.341797-2.34375 0.195312-3.56445-0.976562l-10.0098-10.0098c-1.26953-1.17188-1.41602-2.00195-0.634766-3.85742l4.39453-10.4492c-7.8125-7.27539-17.9688-10.4004-28.125-7.42188-0.78125 0.195312-1.07422-0.439453-0.439453-0.976562Z"/>
  </g>
  <text style="stroke:none;fill:black;font-family:sans-serif;font-size:13;font-weight:bold;" transform="matrix(1 0 0 1 1289 1953)">Exporting</text>
  <text style="stroke:none;fill:black;font-family:sans-serif;font-size:13;" transform="matrix(1 0 0 1 1289 1971)">Symbols should be outlined when exporting to ensure the</text>
  <text style="stroke:none;fill:black;font-family:sans-serif;font-size:13;" transform="matrix(1 0 0 1 1289 1989)">design is preserved when submitting to Xcode.</text>
  <text id="template-version" style="stroke:none;fill:black;font-family:sans-serif;font-size:13;text-anchor:end;" transform="matrix(1 0 0 1 3036 1933)">Template v.2.0</text>
  <text style="stroke:none;fill:black;font-family:sans-serif;font-size:13;text-anchor:end;" transform="matrix(1 0 0 1 3036 1951)">Requires Xcode 12 or greater</text>
  <text id="descriptive-name" style="stroke:none;fill:black;font-family:sans-serif;font-size:13;text-anchor:end;" transform="matrix(1 0 0 1 3036 1969)">Generated from eye.fill</text>
  <text style="stroke:none;fill:black;font-family:sans-serif;font-size:13;text-anchor:end;" transform="matrix(1 0 0 1 3036 1987)">Typeset at 100.0 points</text>
  <text style="stroke:none;fill:black;font-family:sans-serif;font-size:13;" transform="matrix(1 0 0 1 263 726)">Small</text>
  <text style="stroke:none;fill:black;font-family:sans-serif;font-size:13;" transform="matrix(1 0 0 1 263 1156)">Medium</text>
  <text style="stroke:none;fill:black;font-family:sans-serif;font-size:13;" transform="matrix(1 0 0 1 263 1586)">Large</text>
 </g>
 <g id="Guides">
  <g id="H-reference" style="fill:#27AAE1;stroke:none;" transform="matrix(1 0 0 1 339 696)">
   <path d="M0.993654 0L3.63775 0L29.3281-67.1323L30.0303-67.1323L30.0303-70.459L28.1226-70.459ZM11.6885-24.4799L46.9815-24.4799L46.2315-26.7285L12.4385-26.7285ZM55.1196 0L57.7637 0L30.6382-70.459L29.4326-70.459L29.4326-67.1323Z"/>
  </g>
  <line id="Baseline-S" style="fill:none;stroke:#27AAE1;opacity:1;stroke-width:0.5;" x1="263" x2="3036" y1="696" y2="696"/>
  <line id="Capline-S" style="fill:none;stroke:#27AAE1;opacity:1;stroke-width:0.5;" x1="263" x2="3036" y1="625.541" y2="625.541"/>
  <g id="H-reference" style="fill:#27AAE1;stroke:none;" transform="matrix(1 0 0 1 339 1126)">
   <path d="M0.993654 0L3.63775 0L29.3281-67.1323L30.0303-67.1323L30.0303-70.459L28.1226-70.459ZM11.6885-24.4799L46.9815-24.4799L46.2315-26.7285L12.4385-26.7285ZM55.1196 0L57.7637 0L30.6382-70.459L29.4326-70.459L29.4326-67.1323Z"/>
  </g>
  <line id="Baseline-M" style="fill:none;stroke:#27AAE1;opacity:1;stroke-width:0.5;" x1="263" x2="3036" y1="1126" y2="1126"/>
  <line id="Capline-M" style="fill:none;stroke:#27AAE1;opacity:1;stroke-width:0.5;" x1="263" x2="3036" y1="1055.54" y2="1055.54"/>
  <g id="H-reference" style="fill:#27AAE1;stroke:none;" transform="matrix(1 0 0 1 339 1556)">
   <path d="M0.993654 0L3.63775 0L29.3281-67.1323L30.0303-67.1323L30.0303-70.459L28.1226-70.459ZM11.6885-24.4799L46.9815-24.4799L46.2315-26.7285L12.4385-26.7285ZM55.1196 0L57.7637 0L30.6382-70.459L29.4326-70.459L29.4326-67.1323Z"/>
  </g>
  <line id="Baseline-L" style="fill:none;stroke:#27AAE1;opacity:1;stroke-width:0.5;" x1="263" x2="3036" y1="1556" y2="1556"/>
  <line id="Capline-L" style="fill:none;stroke:#27AAE1;opacity:1;stroke-width:0.5;" x1="263" x2="3036" y1="1485.54" y2="1485.54"/>
  <line id="right-margin" style="fill:none;stroke:#00AEEF;stroke-width:0.5;opacity:1.0;" x1="1525.98" x2="1525.98" y1="1030.79" y2="1150.12"/>
  <line id="left-margin" style="fill:none;stroke:#00AEEF;stroke-width:0.5;opacity:1.0;" x1="1373.71" x2="1373.71" y1="1030.79" y2="1150.12"/>
 </g>
 <g id="Symbols">
  <g id="Black-L" transform="matrix(1 0 0 1 2833.82 1556)">
   <path d="M99.5348 20.0867C152.842 20.0867 186.298-22.5289 186.298-35.3281C186.298-48.0897 152.836-90.6845 99.5348-90.6845C47.1199-90.6845 12.8672-48.0897 12.8672-35.3281C12.8672-22.5289 47.1163 20.0867 99.5348 20.0867ZM99.5932-2.77964C81.6353-2.77964 67.0823-17.3118 67.0823-35.2697C67.0823-53.2276 81.6353-67.7598 99.5932-67.7598C117.551-67.7598 132.083-53.2276 132.083-35.2697C132.083-17.3118 117.551-2.77964 99.5932-2.77964ZM99.5932-21.8474C107.025-21.8474 113.015-27.8366 113.015-35.2697C113.015-42.7028 107.025-48.692 99.5932-48.692C92.1601-48.692 86.171-42.7028 86.171-35.2697C86.171-27.8366 92.1601-21.8474 99.5932-21.8474Z"/>
  </g>
  <g id="Heavy-L" transform="matrix(1 0 0 1 2537.5 1556)">
   <path d="M99.159 19.635C151.721 19.635 185.51-22.5367 185.51-35.3143C185.51-48.0775 151.693-90.219 99.159-90.219C47.4209-90.219 12.8672-48.0775 12.8672-35.3143C12.8672-22.5367 47.4041 19.635 99.159 19.635ZM99.2036-2.15776C80.9001-2.15776 66.0615-16.9661 66.0615-35.2697C66.0615-53.5733 80.9001-68.3816 99.2036-68.3816C117.507-68.3816 132.316-53.5733 132.316-35.2697C132.316-16.9661 117.507-2.15776 99.2036-2.15776ZM99.2036-22.0384C106.529-22.0384 112.435-27.9387 112.435-35.2697C112.435-42.6007 106.529-48.501 99.2036-48.501C91.8726-48.501 85.9724-42.6007 85.9724-35.2697C85.9724-27.9387 91.8726-22.0384 99.2036-22.0384Z"/>
  </g>
  <g id="Bold-L" transform="matrix(1 0 0 1 2241.38 1556)">
   <path d="M98.5861 19.0816C150.181 19.0816 184.325-22.5668 184.325-35.2989C184.325-48.0398 150.115-89.6502 98.5861-89.6502C47.7228-89.6502 12.8672-48.0398 12.8672-35.2989C12.8672-22.5668 47.6831 19.0816 98.5861 19.0816ZM98.6153-1.48619C79.9411-1.48619 64.7938-16.5955 64.7938-35.2697C64.7938-53.9439 79.9411-69.0532 98.6153-69.0532C117.289-69.0532 132.399-53.9439 132.399-35.2697C132.399-16.5955 117.289-1.48619 98.6153-1.48619ZM98.6153-22.3511C105.765-22.3511 111.534-28.1065 111.534-35.2697C111.534-42.4329 105.765-48.1883 98.6153-48.1883C91.452-48.1883 85.6967-42.4329 85.6967-35.2697C85.6967-28.1065 91.452-22.3511 98.6153-22.3511Z"/>
  </g>
  <g id="Semibold-L" transform="matrix(1 0 0 1 1945.08 1556)">
   <path d="M98.1911 18.7C149.12 18.7 183.509-22.5875 183.509-35.2883C183.509-48.0138 149.027-89.258 98.1911-89.258C47.9309-89.258 12.8672-48.0138 12.8672-35.2883C12.8672-22.5875 47.8754 18.7 98.1911 18.7ZM98.2096-1.02321C79.28-1.02321 63.9198-16.34 63.9198-35.2697C63.9198-54.1994 79.28-69.5162 98.2096-69.5162C117.139-69.5162 132.456-54.1994 132.456-35.2697C132.456-16.34 117.139-1.02321 98.2096-1.02321ZM98.2096-22.5667C105.239-22.5667 110.913-28.2221 110.913-35.2697C110.913-42.3173 105.239-47.9727 98.2096-47.9727C91.1621-47.9727 85.5066-42.3173 85.5066-35.2697C85.5066-28.2221 91.1621-22.5667 98.2096-22.5667Z"/>
  </g>
  <g id="Medium-L" transform="matrix(1 0 0 1 1648.68 1556)">
   <path d="M97.8916 18.4107C148.315 18.4107 182.89-22.6032 182.89-35.2802C182.89-47.9941 148.203-88.9607 97.8916-88.9607C48.0887-88.9607 12.8672-47.9941 12.8672-35.2802C12.8672-22.6032 48.0213 18.4107 97.8916 18.4107ZM97.9021-0.672157C78.7787-0.672157 63.2571-16.1463 63.2571-35.2697C63.2571-54.3931 78.7787-69.8672 97.9021-69.8672C117.025-69.8672 132.5-54.3931 132.5-35.2697C132.5-16.1463 117.025-0.672157 97.9021-0.672157ZM97.9021-22.7301C104.839-22.7301 110.442-28.3098 110.442-35.2697C110.442-42.2296 104.839-47.8093 97.9021-47.8093C90.9422-47.8093 85.3625-42.2296 85.3625-35.2697C85.3625-28.3098 90.9422-22.7301 97.9021-22.7301Z"/>
  </g>
  <g id="Regular-L" transform="matrix(1 0 0 1 1352.37 1556)">
   <path d="M97.5009 18.0334C147.265 18.0334 182.082-22.6238 182.082-35.2697C182.082-47.9684 147.127-88.5728 97.5009-88.5728C48.2945-88.5728 12.8672-47.9684 12.8672-35.2697C12.8672-22.6238 48.2115 18.0334 97.5009 18.0334ZM97.5009-0.214266C78.1248-0.214266 62.3927-15.8936 62.3927-35.2697C62.3927-54.6458 78.1248-70.3251 97.5009-70.3251C116.877-70.3251 132.556-54.6458 132.556-35.2697C132.556-15.8936 116.877-0.214266 97.5009-0.214266ZM97.5009-22.9433C104.319-22.9433 109.827-28.4242 109.827-35.2697C109.827-42.1152 104.319-47.5961 97.5009-47.5961C90.6554-47.5961 85.1745-42.1152 85.1745-35.2697C85.1745-28.4242 90.6554-22.9433 97.5009-22.9433Z"/>
  </g>
  <g id="Light-L" transform="matrix(1 0 0 1 1056.74 1556)">
   <path d="M96.4131 17.6899C145.223 17.6899 179.925-22.7765 179.925-35.2697C179.925-47.7966 144.989-88.2293 96.4131-88.2293C48.0464-88.2293 12.8672-47.7966 12.8672-35.2697C12.8672-22.7765 47.9062 17.6899 96.4131 17.6899ZM96.4131-0.386034C77.1515-0.386034 61.4957-16.0081 61.4957-35.2697C61.4957-54.5313 77.1515-70.1534 96.4131-70.1534C115.675-70.1534 131.297-54.5313 131.297-35.2697C131.297-16.0081 115.675-0.386034 96.4131-0.386034ZM96.4131-23.6494C102.83-23.6494 108.033-28.8059 108.033-35.2697C108.033-41.7335 102.83-46.89 96.4131-46.89C89.9493-46.89 84.7928-41.7335 84.7928-35.2697C84.7928-28.8059 89.9493-23.6494 96.4131-23.6494Z"/>
  </g>
  <g id="Thin-L" transform="matrix(1 0 0 1 761.452 1556)">
   <path d="M94.9743 17.2355C142.522 17.2355 177.073-22.9784 177.073-35.2697C177.073-47.5695 142.162-87.7749 94.9743-87.7749C47.7183-87.7749 12.8672-47.5695 12.8672-35.2697C12.8672-22.9784 47.5023 17.2355 94.9743 17.2355ZM94.9743-0.61321C75.8641-0.61321 60.3093-16.1596 60.3093-35.2697C60.3093-54.3798 75.8641-69.9262 94.9743-69.9262C114.084-69.9262 129.631-54.3798 129.631-35.2697C129.631-16.1596 114.084-0.61321 94.9743-0.61321ZM94.9743-24.5834C100.861-24.5834 105.661-29.3107 105.661-35.2697C105.661-41.2287 100.861-45.956 94.9743-45.956C89.0153-45.956 84.288-41.2287 84.288-35.2697C84.288-29.3107 89.0153-24.5834 94.9743-24.5834Z"/>
  </g>
  <g id="Ultralight-L" transform="matrix(1 0 0 1 465.472 1556)">
   <path d="M94.2373 17.0028C141.139 17.0028 175.612-23.0818 175.612-35.2697C175.612-47.4531 140.714-87.5422 94.2373-87.5422C47.5502-87.5422 12.8672-47.4531 12.8672-35.2697C12.8672-23.0818 47.2955 17.0028 94.2373 17.0028ZM94.2373-0.729569C75.2048-0.729569 59.7017-16.2371 59.7017-35.2697C59.7017-54.3023 75.2048-69.8098 94.2373-69.8098C113.27-69.8098 128.777-54.3023 128.777-35.2697C128.777-16.2371 113.27-0.729569 94.2373-0.729569ZM94.2373-25.0618C99.8528-25.0618 104.445-29.5693 104.445-35.2697C104.445-40.9701 99.8528-45.4776 94.2373-45.4776C88.5369-45.4776 84.0294-40.9701 84.0294-35.2697C84.0294-29.5693 88.5369-25.0618 94.2373-25.0618Z"/>
  </g>
  <g id="Black-M" transform="matrix(1 0 0 1 2856.06 1126)">
   <path d="M77.2894 7.96789C119.099 7.96789 144.719-25.4038 144.719-35.3177C144.719-45.1801 119.1-78.5463 77.2894-78.5463C36.2135-78.5463 9.96875-45.1801 9.96875-35.3177C9.96875-25.4038 36.2144 7.96789 77.2894 7.96789ZM77.3465-10.647C63.7463-10.647 52.7273-21.6605 52.7273-35.2606C52.7273-48.8608 63.7463-59.8743 77.3465-59.8743C90.9466-59.8743 101.96-48.8608 101.96-35.2606C101.96-21.6605 90.9466-10.647 77.3465-10.647ZM77.3465-24.7934C83.1415-24.7934 87.8137-29.4659 87.8137-35.2606C87.8137-41.0554 83.1415-45.7279 77.3465-45.7279C71.5517-45.7279 66.8792-41.0554 66.8792-35.2606C66.8792-29.4659 71.5517-24.7934 77.3465-24.7934Z"/>
  </g>
  <g id="Heavy-M" transform="matrix(1 0 0 1 2559.63 1126)">
   <path d="M77.0224 7.55805C118.192 7.55805 144.147-25.3973 144.147-35.3043C144.147-45.184 118.181-78.123 77.0224-78.123C36.5306-78.123 9.96875-45.184 9.96875-35.3043C9.96875-25.3973 36.5238 7.55805 77.0224 7.55805ZM77.066-10.0232C63.1174-10.0232 51.8121-21.312 51.8121-35.2606C51.8121-49.2093 63.1174-60.4981 77.066-60.4981C91.0146-60.4981 102.303-49.2093 102.303-35.2606C102.303-21.312 91.0146-10.0232 77.066-10.0232ZM77.066-24.915C82.7939-24.915 87.4117-29.5305 87.4117-35.2606C87.4117-40.9908 82.7939-45.6063 77.066-45.6063C71.3358-45.6063 66.7203-40.9908 66.7203-35.2606C66.7203-29.5305 71.3358-24.915 77.066-24.915Z"/>
  </g>
  <g id="Bold-M" transform="matrix(1 0 0 1 2263.24 1126)">
   <path d="M76.7237 7.09958C117.178 7.09958 143.507-25.3901 143.507-35.2892C143.507-45.1884 117.152-77.6494 76.7237-77.6494C36.8853-77.6494 9.96875-45.1884 9.96875-35.2892C9.96875-25.3901 36.8699 7.09958 76.7237 7.09958ZM76.7522-9.32541C62.4138-9.32541 50.7884-20.9222 50.7884-35.2606C50.7884-49.5991 62.4138-61.1959 76.7522-61.1959C91.0907-61.1959 102.687-49.5991 102.687-35.2606C102.687-20.9222 91.0907-9.32541 76.7522-9.32541ZM76.7522-25.0509C82.405-25.0509 86.9619-29.6027 86.9619-35.2606C86.9619-40.9185 82.405-45.4704 76.7522-45.4704C71.0943-45.4704 66.5425-40.9185 66.5425-35.2606C66.5425-29.6027 71.0943-25.0509 76.7522-25.0509Z"/>
  </g>
  <g id="Semibold-M" transform="matrix(1 0 0 1 1966.75 1126)">
   <path d="M76.5178 6.78352C116.478 6.78352 143.066-25.3851 143.066-35.2788C143.066-45.1914 116.443-77.323 76.5178-77.323C37.1299-77.323 9.96875-45.1914 9.96875-35.2788C9.96875-25.3851 37.1086 6.78352 76.5178 6.78352ZM76.5359-8.84436C61.9287-8.84436 50.0826-20.6535 50.0826-35.2606C50.0826-49.8678 61.9287-61.6769 76.5359-61.6769C91.1431-61.6769 102.952-49.8678 102.952-35.2606C102.952-20.6535 91.1431-8.84436 76.5359-8.84436ZM76.5359-25.1447C82.1369-25.1447 86.6519-29.6526 86.6519-35.2606C86.6519-40.8687 82.1369-45.3766 76.5359-45.3766C70.9278-45.3766 66.4199-40.8687 66.4199-35.2606C66.4199-29.6526 70.9278-25.1447 76.5359-25.1447Z"/>
  </g>
  <g id="Medium-M" transform="matrix(1 0 0 1 1670.21 1126)">
   <path d="M76.3616 6.54386C115.948 6.54386 142.732-25.3813 142.732-35.2709C142.732-45.1937 115.905-77.0754 76.3616-77.0754C37.3153-77.0754 9.96875-45.1937 9.96875-35.2709C9.96875-25.3813 37.2895 6.54386 76.3616 6.54386ZM76.3719-8.47961C61.561-8.47961 49.5474-20.4497 49.5474-35.2606C49.5474-50.0716 61.561-62.0417 76.3719-62.0417C91.1828-62.0417 103.153-50.0716 103.153-35.2606C103.153-20.4497 91.1828-8.47961 76.3719-8.47961ZM76.3719-25.2157C81.9336-25.2157 86.4168-29.6904 86.4168-35.2606C86.4168-40.8309 81.9336-45.3055 76.3719-45.3055C70.8016-45.3055 66.327-40.8309 66.327-35.2606C66.327-29.6904 70.8016-25.2157 76.3719-25.2157Z"/>
  </g>
  <g id="Regular-M" transform="matrix(1 0 0 1 1373.71 1126)">
   <path d="M76.158 6.23127C115.256 6.23127 142.295-25.3763 142.295-35.2606C142.295-45.1967 115.203-76.7526 76.158-76.7526C37.5572-76.7526 9.96875-45.1967 9.96875-35.2606C9.96875-25.3763 37.5255 6.23127 76.158 6.23127ZM76.158-8.00385C61.0812-8.00385 48.8494-20.1839 48.8494-35.2606C48.8494-50.3374 61.0812-62.5174 76.158-62.5174C91.2347-62.5174 103.415-50.3374 103.415-35.2606C103.415-20.1839 91.2347-8.00385 76.158-8.00385ZM76.158-25.3085C81.6684-25.3085 86.1102-29.7396 86.1102-35.2606C86.1102-40.7817 81.6684-45.2128 76.158-45.2128C70.637-45.2128 66.2058-40.7817 66.2058-35.2606C66.2058-29.7396 70.637-25.3085 76.158-25.3085Z"/>
  </g>
  <g id="Light-M" transform="matrix(1 0 0 1 1077.97 1126)">
   <path d="M75.1826 5.92328C113.425 5.92328 140.362-25.5132 140.362-35.2606C140.362-45.0427 113.287-76.4446 75.1826-76.4446C37.3347-76.4446 9.96875-45.0427 9.96875-35.2606C9.96875-25.5132 37.2517 5.92328 75.1826 5.92328ZM75.1826-8.15784C60.2086-8.15784 48.0452-20.2866 48.0452-35.2606C48.0452-50.2347 60.2086-62.3634 75.1826-62.3634C90.1567-62.3634 102.285-50.2347 102.285-35.2606C102.285-20.2866 90.1567-8.15784 75.1826-8.15784ZM75.1826-25.9416C80.3338-25.9416 84.5017-30.0819 84.5017-35.2606C84.5017-40.4394 80.3338-44.5797 75.1826-44.5797C70.0039-44.5797 65.8636-40.4394 65.8636-35.2606C65.8636-30.0819 70.0039-25.9416 75.1826-25.9416Z"/>
  </g>
  <g id="Thin-M" transform="matrix(1 0 0 1 782.536 1126)">
   <path d="M73.8927 5.51593C111.004 5.51593 137.805-25.6942 137.805-35.2606C137.805-44.8391 110.752-76.0372 73.8927-76.0372C37.0405-76.0372 9.96875-44.8391 9.96875-35.2606C9.96875-25.6942 36.8897 5.51593 73.8927 5.51593ZM73.8927-8.36152C59.0544-8.36152 46.9816-20.4224 46.9816-35.2606C46.9816-50.0989 59.0544-62.1598 73.8927-62.1598C88.731-62.1598 100.792-50.0989 100.792-35.2606C100.792-20.4224 88.731-8.36152 73.8927-8.36152ZM73.8927-26.7789C78.5686-26.7789 82.3745-30.5345 82.3745-35.2606C82.3745-39.9868 78.5686-43.7424 73.8927-43.7424C69.1665-43.7424 65.4109-39.9868 65.4109-35.2606C65.4109-30.5345 69.1665-26.7789 73.8927-26.7789Z"/>
  </g>
  <g id="Ultralight-M" transform="matrix(1 0 0 1 486.479 1126)">
   <path d="M73.232 5.30728C109.764 5.30728 136.495-25.787 136.495-35.2606C136.495-44.7347 109.454-75.8286 73.232-75.8286C36.8898-75.8286 9.96875-44.7347 9.96875-35.2606C9.96875-25.787 36.7042 5.30728 73.232 5.30728ZM73.232-8.46584C58.4633-8.46584 46.4368-20.4919 46.4368-35.2606C46.4368-50.0294 58.4633-62.0554 73.232-62.0554C88.0007-62.0554 100.027-50.0294 100.027-35.2606C100.027-20.4919 88.0007-8.46584 73.232-8.46584ZM73.232-27.2078C77.6645-27.2078 81.2849-30.7663 81.2849-35.2606C81.2849-39.755 77.6645-43.3135 73.232-43.3135C68.7376-43.3135 65.1791-39.755 65.1791-35.2606C65.1791-30.7663 68.7376-27.2078 73.232-27.2078Z"/>
  </g>
  <g id="Black-S" transform="matrix(1 0 0 1 2872.76 696)">
   <path d="M60.5957-1.26953C93.5059-1.26953 113.477-27.5391 113.477-35.3027C113.477-43.0176 93.5059-69.2871 60.5957-69.2871C28.2715-69.2871 7.8125-43.0176 7.8125-35.3027C7.8125-27.5391 28.2715-1.26953 60.5957-1.26953ZM60.6445-16.1621C50.0977-16.1621 41.5527-24.707 41.5527-35.2539C41.5527-45.8008 50.0977-54.3457 60.6445-54.3457C71.1914-54.3457 79.7363-45.8008 79.7363-35.2539C79.7363-24.707 71.1914-16.1621 60.6445-16.1621ZM60.6445-27.0508C65.1855-27.0508 68.8477-30.7129 68.8477-35.2539C68.8477-39.7949 65.1855-43.457 60.6445-43.457C56.1035-43.457 52.4414-39.7949 52.4414-35.2539C52.4414-30.7129 56.1035-27.0508 60.6445-27.0508Z"/>
  </g>
  <g id="Heavy-S" transform="matrix(1 0 0 1 2576.17 696)">
   <path d="M60.492-1.58069C92.9642-1.58069 113.235-27.516 113.235-35.2912C113.235-43.0406 92.9642-68.9644 60.492-68.9644C28.5711-68.9644 7.8125-43.0406 7.8125-35.2912C7.8125-27.516 28.5711-1.58069 60.492-1.58069ZM60.5293-15.6089C49.6713-15.6089 40.8728-24.3959 40.8728-35.2539C40.8728-46.1119 49.6713-54.8989 60.5293-54.8989C71.3873-54.8989 80.1743-46.1119 80.1743-35.2539C80.1743-24.3959 71.3873-15.6089 60.5293-15.6089ZM60.5293-27.0738C65.0588-27.0738 68.7094-30.7244 68.7094-35.2539C68.7094-39.7834 65.0588-43.434 60.5293-43.434C55.9998-43.434 52.3492-39.7834 52.3492-35.2539C52.3492-30.7244 55.9998-27.0738 60.5293-27.0738Z"/>
  </g>
  <g id="Bold-S" transform="matrix(1 0 0 1 2279.59 696)">
   <path d="M60.376-1.92871C92.3584-1.92871 112.964-27.4902 112.964-35.2783C112.964-43.0664 92.3584-68.6035 60.376-68.6035C28.9062-68.6035 7.8125-43.0664 7.8125-35.2783C7.8125-27.4902 28.9062-1.92871 60.376-1.92871ZM60.4004-14.9902C49.1943-14.9902 40.1123-24.0479 40.1123-35.2539C40.1123-46.46 49.1943-55.5176 60.4004-55.5176C71.6064-55.5176 80.6641-46.46 80.6641-35.2539C80.6641-24.0479 71.6064-14.9902 60.4004-14.9902ZM60.4004-27.0996C64.917-27.0996 68.5547-30.7373 68.5547-35.2539C68.5547-39.7705 64.917-43.4082 60.4004-43.4082C55.8838-43.4082 52.2461-39.7705 52.2461-35.2539C52.2461-30.7373 55.8838-27.0996 60.4004-27.0996Z"/>
  </g>
  <g id="Semibold-S" transform="matrix(1 0 0 1 1982.97 696)">
   <path d="M60.296-2.16865C91.9407-2.16865 112.777-27.4725 112.777-35.2694C112.777-43.0842 91.9407-68.3547 60.296-68.3547C29.1373-68.3547 7.8125-43.0842 7.8125-35.2694C7.8125-27.4725 29.1373-2.16865 60.296-2.16865ZM60.3115-14.5637C48.8655-14.5637 39.588-23.8079 39.588-35.2539C39.588-46.6999 48.8655-55.9441 60.3115-55.9441C71.7575-55.9441 81.0018-46.6999 81.0018-35.2539C81.0018-23.8079 71.7575-14.5637 60.3115-14.5637ZM60.3115-27.1174C64.8192-27.1174 68.448-30.7462 68.448-35.2539C68.448-39.7616 64.8192-43.3904 60.3115-43.3904C55.8038-43.3904 52.175-39.7616 52.175-35.2539C52.175-30.7462 55.8038-27.1174 60.3115-27.1174Z"/>
  </g>
  <g id="Medium-S" transform="matrix(1 0 0 1 1686.33 696)">
   <path d="M60.2354-2.35059C91.624-2.35059 112.636-27.459 112.636-35.2627C112.636-43.0977 91.624-68.166 60.2354-68.166C29.3125-68.166 7.8125-43.0977 7.8125-35.2627C7.8125-27.459 29.3125-2.35059 60.2354-2.35059ZM60.2441-14.2402C48.6162-14.2402 39.1904-23.626 39.1904-35.2539C39.1904-46.8818 48.6162-56.2676 60.2441-56.2676C71.8721-56.2676 81.2578-46.8818 81.2578-35.2539C81.2578-23.626 71.8721-14.2402 60.2441-14.2402ZM60.2441-27.1309C64.7451-27.1309 68.3672-30.7529 68.3672-35.2539C68.3672-39.7549 64.7451-43.377 60.2441-43.377C55.7432-43.377 52.1211-39.7549 52.1211-35.2539C52.1211-30.7529 55.7432-27.1309 60.2441-27.1309Z"/>
  </g>
  <g id="Regular-S" transform="matrix(1 0 0 1 1389.71 696)">
   <path d="M60.1562-2.58789C91.2109-2.58789 112.451-27.4414 112.451-35.2539C112.451-43.1152 91.2109-67.9199 60.1562-67.9199C29.541-67.9199 7.8125-43.1152 7.8125-35.2539C7.8125-27.4414 29.541-2.58789 60.1562-2.58789ZM60.1562-13.8184C48.291-13.8184 38.6719-23.3887 38.6719-35.2539C38.6719-47.1191 48.291-56.6895 60.1562-56.6895C72.0215-56.6895 81.5918-47.1191 81.5918-35.2539C81.5918-23.3887 72.0215-13.8184 60.1562-13.8184ZM60.1562-27.1484C64.6484-27.1484 68.2617-30.7617 68.2617-35.2539C68.2617-39.7461 64.6484-43.3594 60.1562-43.3594C55.6641-43.3594 52.0508-39.7461 52.0508-35.2539C52.0508-30.7617 55.6641-27.1484 60.1562-27.1484Z"/>
  </g>
  <g id="Light-S" transform="matrix(1 0 0 1 1093.86 696)">
   <path d="M59.2935-2.86035C89.5913-2.86035 110.741-27.5625 110.741-35.2539C110.741-42.979 89.5156-67.6475 59.2935-67.6475C29.3442-67.6475 7.8125-42.979 7.8125-35.2539C7.8125-27.5625 29.2988-2.86035 59.2935-2.86035ZM59.2935-13.9546C47.519-13.9546 37.9605-23.4795 37.9605-35.2539C37.9605-47.0283 47.519-56.5532 59.2935-56.5532C71.0679-56.5532 80.5928-47.0283 80.5928-35.2539C80.5928-23.4795 71.0679-13.9546 59.2935-13.9546ZM59.2935-27.7085C63.4678-27.7085 66.8389-31.0645 66.8389-35.2539C66.8389-39.4434 63.4678-42.7993 59.2935-42.7993C55.104-42.7993 51.748-39.4434 51.748-35.2539C51.748-31.0645 55.104-27.7085 59.2935-27.7085Z"/>
  </g>
  <g id="Thin-S" transform="matrix(1 0 0 1 798.277 696)">
   <path d="M58.1524-3.2207C87.4492-3.2207 108.479-27.7227 108.479-35.2539C108.479-42.7988 87.2735-67.2871 58.1524-67.2871C29.084-67.2871 7.8125-42.7988 7.8125-35.2539C7.8125-27.7227 28.9785-3.2207 58.1524-3.2207ZM58.1524-14.1348C46.4981-14.1348 37.0195-23.5996 37.0195-35.2539C37.0195-46.9082 46.4981-56.373 58.1524-56.373C69.8067-56.373 79.2715-46.9082 79.2715-35.2539C79.2715-23.5996 69.8067-14.1348 58.1524-14.1348ZM58.1524-28.4492C61.9063-28.4492 64.9571-31.4648 64.9571-35.2539C64.9571-39.043 61.9063-42.0586 58.1524-42.0586C54.3633-42.0586 51.3477-39.043 51.3477-35.2539C51.3477-31.4648 54.3633-28.4492 58.1524-28.4492Z"/>
  </g>
  <g id="Ultralight-S" transform="matrix(1 0 0 1 502.145 696)">
   <path d="M57.5679-3.40527C86.3521-3.40527 107.32-27.8047 107.32-35.2539C107.32-42.7065 86.125-67.1025 57.5679-67.1025C28.9507-67.1025 7.8125-42.7065 7.8125-35.2539C7.8125-27.8047 28.8145-3.40527 57.5679-3.40527ZM57.5679-14.227C45.9751-14.227 36.5376-23.6611 36.5376-35.2539C36.5376-46.8467 45.9751-56.2808 57.5679-56.2808C69.1607-56.2808 78.5948-46.8467 78.5948-35.2539C78.5948-23.6611 69.1607-14.227 57.5679-14.227ZM57.5679-28.8286C61.1065-28.8286 63.9932-31.6699 63.9932-35.2539C63.9932-38.8379 61.1065-41.6792 57.5679-41.6792C53.9839-41.6792 51.1426-38.8379 51.1426-35.2539C51.1426-31.6699 53.9839-28.8286 57.5679-28.8286Z"/>
  </g>
 </g>
</svg>
