<?xml version="1.0" encoding="UTF-8"?>
<!--Generator: Apple Native CoreSVG 341-->
<!DOCTYPE svg
PUBLIC "-//W3C//DTD SVG 1.1//EN"
       "http://www.w3.org/Graphics/SVG/1.1/DTD/svg11.dtd">
<svg version="1.1" xmlns="http://www.w3.org/2000/svg" xmlns:xlink="http://www.w3.org/1999/xlink" viewBox="0 0 3300 2200">
 <g id="Notes">
  <rect height="2200" id="artboard" style="fill:white;opacity:1" width="3300" x="0" y="0"/>
  <line style="fill:none;stroke:black;opacity:1;stroke-width:0.5;" x1="263" x2="3036" y1="292" y2="292"/>
  <text style="stroke:none;fill:black;font-family:sans-serif;font-size:13;font-weight:bold;" transform="matrix(1 0 0 1 263 322)">Weight/Scale Variations</text>
  <text style="stroke:none;fill:black;font-family:sans-serif;font-size:13;text-anchor:middle;" transform="matrix(1 0 0 1 559.711 322)">Ultralight</text>
  <text style="stroke:none;fill:black;font-family:sans-serif;font-size:13;text-anchor:middle;" transform="matrix(1 0 0 1 856.422 322)">Thin</text>
  <text style="stroke:none;fill:black;font-family:sans-serif;font-size:13;text-anchor:middle;" transform="matrix(1 0 0 1 1153.13 322)">Light</text>
  <text style="stroke:none;fill:black;font-family:sans-serif;font-size:13;text-anchor:middle;" transform="matrix(1 0 0 1 1449.84 322)">Regular</text>
  <text style="stroke:none;fill:black;font-family:sans-serif;font-size:13;text-anchor:middle;" transform="matrix(1 0 0 1 1746.56 322)">Medium</text>
  <text style="stroke:none;fill:black;font-family:sans-serif;font-size:13;text-anchor:middle;" transform="matrix(1 0 0 1 2043.27 322)">Semibold</text>
  <text style="stroke:none;fill:black;font-family:sans-serif;font-size:13;text-anchor:middle;" transform="matrix(1 0 0 1 2339.98 322)">Bold</text>
  <text style="stroke:none;fill:black;font-family:sans-serif;font-size:13;text-anchor:middle;" transform="matrix(1 0 0 1 2636.69 322)">Heavy</text>
  <text style="stroke:none;fill:black;font-family:sans-serif;font-size:13;text-anchor:middle;" transform="matrix(1 0 0 1 2933.4 322)">Black</text>
  <line style="fill:none;stroke:black;opacity:1;stroke-width:0.5;" x1="263" x2="3036" y1="1903" y2="1903"/>
  <g transform="matrix(0.2 0 0 0.2 263 1933)">
   <path d="m46.2402 4.15039c21.7773 0 39.4531-17.627 39.4531-39.4043s-17.6758-39.4043-39.4531-39.4043c-21.7285 0-39.4043 17.627-39.4043 39.4043s17.6758 39.4043 39.4043 39.4043Zm0-7.42188c-17.6758 0-31.9336-14.3066-31.9336-31.9824s14.2578-31.9824 31.9336-31.9824 31.9824 14.3066 31.9824 31.9824-14.3066 31.9824-31.9824 31.9824Zm-17.9688-31.9824c0 2.14844 1.51367 3.61328 3.75977 3.61328h10.498v10.5957c0 2.19727 1.46484 3.71094 3.61328 3.71094 2.24609 0 3.71094-1.51367 3.71094-3.71094v-10.5957h10.5957c2.19727 0 3.71094-1.46484 3.71094-3.61328 0-2.19727-1.51367-3.71094-3.71094-3.71094h-10.5957v-10.5469c0-2.24609-1.46484-3.75977-3.71094-3.75977-2.14844 0-3.61328 1.51367-3.61328 3.75977v10.5469h-10.498c-2.24609 0-3.75977 1.51367-3.75977 3.71094Z"/>
  </g>
  <g transform="matrix(0.2 0 0 0.2 281.506 1933)">
   <path d="m58.5449 14.5508c27.4902 0 49.8047-22.3145 49.8047-49.8047s-22.3145-49.8047-49.8047-49.8047-49.8047 22.3145-49.8047 49.8047 22.3145 49.8047 49.8047 49.8047Zm0-8.30078c-22.9492 0-41.5039-18.5547-41.5039-41.5039s18.5547-41.5039 41.5039-41.5039 41.5039 18.5547 41.5039 41.5039-18.5547 41.5039-41.5039 41.5039Zm-22.6562-41.5039c0 2.39258 1.66016 4.00391 4.15039 4.00391h14.3555v14.4043c0 2.44141 1.66016 4.15039 4.05273 4.15039 2.44141 0 4.15039-1.66016 4.15039-4.15039v-14.4043h14.4043c2.44141 0 4.15039-1.61133 4.15039-4.00391 0-2.44141-1.70898-4.15039-4.15039-4.15039h-14.4043v-14.3555c0-2.49023-1.70898-4.19922-4.15039-4.19922-2.39258 0-4.05273 1.70898-4.05273 4.19922v14.3555h-14.3555c-2.49023 0-4.15039 1.70898-4.15039 4.15039Z"/>
  </g>
  <g transform="matrix(0.2 0 0 0.2 304.924 1933)">
   <path d="m74.8535 28.3203c35.1074 0 63.623-28.4668 63.623-63.5742s-28.5156-63.623-63.623-63.623-63.5742 28.5156-63.5742 63.623 28.4668 63.5742 63.5742 63.5742Zm0-9.08203c-30.127 0-54.4922-24.3652-54.4922-54.4922s24.3652-54.4922 54.4922-54.4922 54.4922 24.3652 54.4922 54.4922-24.3652 54.4922-54.4922 54.4922Zm-28.8574-54.4922c0 2.58789 1.85547 4.39453 4.58984 4.39453h19.7266v19.7754c0 2.68555 1.85547 4.58984 4.44336 4.58984 2.68555 0 4.54102-1.85547 4.54102-4.58984v-19.7754h19.7754c2.68555 0 4.58984-1.80664 4.58984-4.39453 0-2.73438-1.85547-4.58984-4.58984-4.58984h-19.7754v-19.7266c0-2.73438-1.85547-4.63867-4.54102-4.63867-2.58789 0-4.44336 1.9043-4.44336 4.63867v19.7266h-19.7266c-2.73438 0-4.58984 1.85547-4.58984 4.58984Z"/>
  </g>
  <text style="stroke:none;fill:black;font-family:sans-serif;font-size:13;font-weight:bold;" transform="matrix(1 0 0 1 263 1953)">Design Variations</text>
  <text style="stroke:none;fill:black;font-family:sans-serif;font-size:13;" transform="matrix(1 0 0 1 263 1971)">Symbols are supported in up to nine weights and three scales.</text>
  <text style="stroke:none;fill:black;font-family:sans-serif;font-size:13;" transform="matrix(1 0 0 1 263 1989)">For optimal layout with text and other symbols, vertically align</text>
  <text style="stroke:none;fill:black;font-family:sans-serif;font-size:13;" transform="matrix(1 0 0 1 263 2007)">symbols with the adjacent text.</text>
  <line style="fill:none;stroke:#00AEEF;stroke-width:0.5;opacity:1.0;" x1="776" x2="776" y1="1919" y2="1933"/>
  <g transform="matrix(0.2 0 0 0.2 776 1933)">
   <path d="m16.5527 0.78125c2.58789 0 3.85742-0.976562 4.78516-3.71094l6.29883-17.2363h28.8086l6.29883 17.2363c0.927734 2.73438 2.19727 3.71094 4.73633 3.71094 2.58789 0 4.24805-1.5625 4.24805-4.00391 0-0.830078-0.146484-1.61133-0.537109-2.63672l-22.9004-60.9863c-1.12305-2.97852-3.125-4.49219-6.25-4.49219-3.02734 0-5.07812 1.46484-6.15234 4.44336l-22.9004 61.084c-0.390625 1.02539-0.537109 1.80664-0.537109 2.63672 0 2.44141 1.5625 3.95508 4.10156 3.95508Zm13.4766-28.3691 11.8652-32.8613h0.244141l11.8652 32.8613Z"/>
  </g>
  <line style="fill:none;stroke:#00AEEF;stroke-width:0.5;opacity:1.0;" x1="792.836" x2="792.836" y1="1919" y2="1933"/>
  <text style="stroke:none;fill:black;font-family:sans-serif;font-size:13;font-weight:bold;" transform="matrix(1 0 0 1 776 1953)">Margins</text>
  <text style="stroke:none;fill:black;font-family:sans-serif;font-size:13;" transform="matrix(1 0 0 1 776 1971)">Leading and trailing margins on the left and right side of each symbol</text>
  <text style="stroke:none;fill:black;font-family:sans-serif;font-size:13;" transform="matrix(1 0 0 1 776 1989)">can be adjusted by modifying the x-location of the margin guidelines.</text>
  <text style="stroke:none;fill:black;font-family:sans-serif;font-size:13;" transform="matrix(1 0 0 1 776 2007)">Modifications are automatically applied proportionally to all</text>
  <text style="stroke:none;fill:black;font-family:sans-serif;font-size:13;" transform="matrix(1 0 0 1 776 2025)">scales and weights.</text>
  <g transform="matrix(0.2 0 0 0.2 1289 1933)">
   <path d="m14.209 9.32617 8.49609 8.54492c4.29688 4.3457 9.22852 4.05273 13.8672-1.07422l53.4668-58.9355-4.83398-4.88281-53.0762 58.3984c-1.75781 2.00195-3.41797 2.49023-5.76172 0.146484l-5.85938-5.81055c-2.34375-2.29492-1.80664-4.00391 0.195312-5.81055l57.373-54.0039-4.88281-4.83398-57.959 54.4434c-4.93164 4.58984-5.32227 9.47266-1.02539 13.8184Zm32.0801-90.9668c-2.09961 2.05078-2.24609 4.93164-1.07422 6.88477 1.17188 1.80664 3.4668 2.97852 6.68945 2.14844 7.32422-1.70898 14.9414-2.00195 22.0703 2.68555l-2.92969 7.27539c-1.70898 4.15039-0.830078 7.08008 1.85547 9.81445l11.4746 11.5723c2.44141 2.44141 4.49219 2.53906 7.32422 2.05078l5.32227-0.976562 3.32031 3.36914-0.195312 2.7832c-0.195312 2.49023 0.439453 4.39453 2.88086 6.78711l3.80859 3.71094c2.39258 2.39258 5.46875 2.53906 7.8125 0.195312l14.5508-14.5996c2.34375-2.34375 2.24609-5.32227-0.146484-7.71484l-3.85742-3.80859c-2.39258-2.39258-4.24805-3.17383-6.64062-2.97852l-2.88086 0.244141-3.22266-3.17383 1.2207-5.61523c0.634766-2.83203-0.146484-5.0293-3.07617-7.95898l-10.9863-10.9375c-16.6992-16.6016-38.8672-16.2109-53.3203-1.75781Zm7.4707 1.85547c12.1582-8.88672 28.6133-7.37305 39.7461 3.75977l12.1582 12.0605c1.17188 1.17188 1.36719 2.09961 1.02539 3.80859l-1.61133 7.42188 7.51953 7.42188 4.93164-0.292969c1.26953-0.0488281 1.66016 0.0488281 2.63672 1.02539l2.88086 2.88086-12.207 12.207-2.88086-2.88086c-0.976562-0.976562-1.12305-1.36719-1.07422-2.68555l0.341797-4.88281-7.4707-7.42188-7.61719 1.26953c-1.61133 0.341797-2.34375 0.195312-3.56445-0.976562l-10.0098-10.0098c-1.26953-1.17188-1.41602-2.00195-0.634766-3.85742l4.39453-10.4492c-7.8125-7.27539-17.9688-10.4004-28.125-7.42188-0.78125 0.195312-1.07422-0.439453-0.439453-0.976562Z"/>
  </g>
  <text style="stroke:none;fill:black;font-family:sans-serif;font-size:13;font-weight:bold;" transform="matrix(1 0 0 1 1289 1953)">Exporting</text>
  <text style="stroke:none;fill:black;font-family:sans-serif;font-size:13;" transform="matrix(1 0 0 1 1289 1971)">Symbols should be outlined when exporting to ensure the</text>
  <text style="stroke:none;fill:black;font-family:sans-serif;font-size:13;" transform="matrix(1 0 0 1 1289 1989)">design is preserved when submitting to Xcode.</text>
  <text id="template-version" style="stroke:none;fill:black;font-family:sans-serif;font-size:13;text-anchor:end;" transform="matrix(1 0 0 1 3036 1933)">Template v.2.0</text>
  <text style="stroke:none;fill:black;font-family:sans-serif;font-size:13;text-anchor:end;" transform="matrix(1 0 0 1 3036 1951)">Requires Xcode 12 or greater</text>
  <text id="descriptive-name" style="stroke:none;fill:black;font-family:sans-serif;font-size:13;text-anchor:end;" transform="matrix(1 0 0 1 3036 1969)">Generated from eye.slash.fill</text>
  <text style="stroke:none;fill:black;font-family:sans-serif;font-size:13;text-anchor:end;" transform="matrix(1 0 0 1 3036 1987)">Typeset at 100.0 points</text>
  <text style="stroke:none;fill:black;font-family:sans-serif;font-size:13;" transform="matrix(1 0 0 1 263 726)">Small</text>
  <text style="stroke:none;fill:black;font-family:sans-serif;font-size:13;" transform="matrix(1 0 0 1 263 1156)">Medium</text>
  <text style="stroke:none;fill:black;font-family:sans-serif;font-size:13;" transform="matrix(1 0 0 1 263 1586)">Large</text>
 </g>
 <g id="Guides">
  <g id="H-reference" style="fill:#27AAE1;stroke:none;" transform="matrix(1 0 0 1 339 696)">
   <path d="M0.993654 0L3.63775 0L29.3281-67.1323L30.0303-67.1323L30.0303-70.459L28.1226-70.459ZM11.6885-24.4799L46.9815-24.4799L46.2315-26.7285L12.4385-26.7285ZM55.1196 0L57.7637 0L30.6382-70.459L29.4326-70.459L29.4326-67.1323Z"/>
  </g>
  <line id="Baseline-S" style="fill:none;stroke:#27AAE1;opacity:1;stroke-width:0.5;" x1="263" x2="3036" y1="696" y2="696"/>
  <line id="Capline-S" style="fill:none;stroke:#27AAE1;opacity:1;stroke-width:0.5;" x1="263" x2="3036" y1="625.541" y2="625.541"/>
  <g id="H-reference" style="fill:#27AAE1;stroke:none;" transform="matrix(1 0 0 1 339 1126)">
   <path d="M0.993654 0L3.63775 0L29.3281-67.1323L30.0303-67.1323L30.0303-70.459L28.1226-70.459ZM11.6885-24.4799L46.9815-24.4799L46.2315-26.7285L12.4385-26.7285ZM55.1196 0L57.7637 0L30.6382-70.459L29.4326-70.459L29.4326-67.1323Z"/>
  </g>
  <line id="Baseline-M" style="fill:none;stroke:#27AAE1;opacity:1;stroke-width:0.5;" x1="263" x2="3036" y1="1126" y2="1126"/>
  <line id="Capline-M" style="fill:none;stroke:#27AAE1;opacity:1;stroke-width:0.5;" x1="263" x2="3036" y1="1055.54" y2="1055.54"/>
  <g id="H-reference" style="fill:#27AAE1;stroke:none;" transform="matrix(1 0 0 1 339 1556)">
   <path d="M0.993654 0L3.63775 0L29.3281-67.1323L30.0303-67.1323L30.0303-70.459L28.1226-70.459ZM11.6885-24.4799L46.9815-24.4799L46.2315-26.7285L12.4385-26.7285ZM55.1196 0L57.7637 0L30.6382-70.459L29.4326-70.459L29.4326-67.1323Z"/>
  </g>
  <line id="Baseline-L" style="fill:none;stroke:#27AAE1;opacity:1;stroke-width:0.5;" x1="263" x2="3036" y1="1556" y2="1556"/>
  <line id="Capline-L" style="fill:none;stroke:#27AAE1;opacity:1;stroke-width:0.5;" x1="263" x2="3036" y1="1485.54" y2="1485.54"/>
  <line id="right-margin" style="fill:none;stroke:#00AEEF;stroke-width:0.5;opacity:1.0;" x1="1525.98" x2="1525.98" y1="1030.79" y2="1150.12"/>
  <line id="left-margin" style="fill:none;stroke:#00AEEF;stroke-width:0.5;opacity:1.0;" x1="1373.71" x2="1373.71" y1="1030.79" y2="1150.12"/>
 </g>
 <g id="Symbols">
  <g id="Black-L" transform="matrix(1 0 0 1 2833.82 1556)">
   <path d="M99.5932-90.6845C89.3208-90.6845 79.8121-89.0713 71.1172-86.3691L90.9213-66.4859C93.7164-67.3441 96.5908-67.7598 99.5932-67.7598C117.551-67.7598 132.083-53.2276 132.083-35.2697C132.083-32.2673 131.668-29.3941 130.809-26.677L158.256 0.711501C176.187-12.2881 186.298-28.3412 186.298-35.3281C186.298-48.0897 152.836-90.6845 99.5932-90.6845ZM120.873-36.6137C120.426-47.0916 111.688-56.204 100.878-56.6087ZM99.5932-13.8455C100.284-13.8455 100.916-13.8907 101.699-14.0199L78.3435-37.3757C78.2154-36.6498 78.169-35.9604 78.169-35.2697C78.169-23.4461 87.7696-13.8455 99.5932-13.8455ZM99.5348 20.0867C110.86 20.0867 121.284 18.1166 130.734 14.9355L110.864-4.87616C107.357-3.495 103.548-2.77964 99.5932-2.77964C81.6353-2.77964 67.0823-17.3118 67.0823-35.2697C67.0823-39.2456 67.8185-43.0129 69.1789-46.5403L43.0015-72.6384C23.9148-59.422 12.8672-42.5539 12.8672-35.3281C12.8672-22.5289 47.1163 20.0867 99.5348 20.0867ZM151.213 23.9531C153.42 26.1601 156.996 26.2018 159.165 23.9531C161.355 21.6837 161.371 18.2083 159.165 16.0025L47.9487-95.1347C45.7441-97.3393 42.1259-97.3417 39.9189-95.1347C37.7911-93.0069 37.7911-89.3107 39.9189-87.1829Z"/>
  </g>
  <g id="Heavy-L" transform="matrix(1 0 0 1 2537.5 1556)">
   <path d="M99.2036-90.219C88.7805-90.219 79.1068-88.4939 70.2822-85.6807L89.2322-66.6559C92.387-67.7944 95.7109-68.3816 99.2036-68.3816C117.507-68.3816 132.316-53.5733 132.316-35.2697C132.316-31.7769 131.728-28.4587 130.59-25.3731L156.843 0.835165C175.072-12.0999 185.51-28.2684 185.51-35.3143C185.51-48.0775 151.693-90.219 99.2036-90.219ZM120.149-35.8136C120.187-46.5255 111.023-56.3639 99.6973-56.2657ZM99.2036-14.1709C100.082-14.1709 100.916-14.2481 101.837-14.4225L78.3565-37.9034C78.1876-37.0215 78.1048-36.1484 78.1048-35.2697C78.1048-23.6146 87.5485-14.1709 99.2036-14.1709ZM99.159 19.635C110.567 19.635 121.106 17.5849 130.641 14.3061L111.583-4.70662C107.79-3.0309 103.576-2.15776 99.2036-2.15776C80.9001-2.15776 66.0615-16.9661 66.0615-35.2697C66.0615-39.6725 66.9648-43.8259 68.6104-47.6495L43.5365-72.6485C24.201-59.5192 12.8672-42.5903 12.8672-35.3143C12.8672-22.5367 47.4041 19.635 99.159 19.635ZM150.344 22.8775C152.453 24.9868 155.841 25.0471 157.936 22.8775C160.061 20.6776 160.039 17.3948 157.936 15.2911L48.0164-94.5535C45.9183-96.6516 42.4646-96.6628 40.3553-94.5535C38.3207-92.519 38.3207-88.9961 40.3553-86.9615Z"/>
  </g>
  <g id="Bold-L" transform="matrix(1 0 0 1 2241.38 1556)">
   <path d="M98.6153-89.6502C87.9406-89.6502 78.0074-87.7569 68.9842-84.7607L86.9707-66.707C90.5786-68.2285 94.4856-69.0532 98.6153-69.0532C117.289-69.0532 132.399-53.9439 132.399-35.2697C132.399-31.1401 131.574-27.2463 130.053-23.6923L154.823 1.04845C173.458-11.8171 184.325-28.1762 184.325-35.2989C184.325-48.0398 150.115-89.6502 98.6153-89.6502ZM118.885-34.8596C119.508-45.6995 109.984-56.2804 98.1627-55.5822ZM98.6153-14.8239C99.7096-14.8239 100.775-14.9396 101.85-15.1753L78.5209-38.5044C78.2983-37.4452 78.1695-36.3641 78.1695-35.2697C78.1695-23.9637 87.3092-14.8239 98.6153-14.8239ZM98.5861 19.0816C110.154 19.0816 120.883 16.9018 130.555 13.4629L112.415-4.64812C108.261-2.58134 103.533-1.48619 98.6153-1.48619C79.9411-1.48619 64.7938-16.5955 64.7938-35.2697C64.7938-40.225 65.9269-44.8773 67.9557-49.0696L44.2421-72.7159C24.5694-59.6867 12.8672-42.6364 12.8672-35.2989C12.8672-22.5668 47.6831 19.0816 98.5861 19.0816ZM149.387 21.6822C151.336 23.6313 154.434 23.7073 156.392 21.6822C158.388 19.619 158.328 16.6267 156.392 14.6907L47.7655-93.8685C45.8428-95.7912 42.6561-95.8177 40.7069-93.8685C38.8249-91.9865 38.8249-88.7458 40.7069-86.8639Z"/>
  </g>
  <g id="Semibold-L" transform="matrix(1 0 0 1 1945.08 1556)">
   <path d="M98.2096-89.258C87.3615-89.258 77.2494-87.2488 68.0893-84.1265L85.4116-66.7422C89.3319-68.5278 93.641-69.5162 98.2096-69.5162C117.139-69.5162 132.456-54.1994 132.456-35.2697C132.456-30.7011 131.468-26.4104 129.682-22.5336L153.43 1.19548C172.345-11.6222 183.509-28.1127 183.509-35.2883C183.509-48.0138 149.027-89.258 98.2096-89.258ZM118.014-34.202C119.039-45.13 109.268-56.2229 97.1048-55.111ZM98.2096-15.2741C99.4527-15.2741 100.677-15.4163 101.859-15.6943L78.6342-38.9187C78.3747-37.7374 78.214-36.5128 78.214-35.2697C78.214-24.2044 87.1443-15.2741 98.2096-15.2741ZM98.1911 18.7C109.869 18.7 120.73 16.4309 130.496 12.8815L112.988-4.60779C108.585-2.27141 103.502-1.02321 98.2096-1.02321C79.28-1.02321 63.9198-16.34 63.9198-35.2697C63.9198-40.6059 65.2113-45.602 67.5044-50.0486L44.7286-72.7624C24.8234-59.8023 12.8672-42.6682 12.8672-35.2883C12.8672-22.5875 47.8754 18.7 98.1911 18.7ZM148.728 20.8582C150.567 22.6969 153.464 22.7837 155.328 20.8582C157.235 18.8893 157.148 16.0971 155.328 14.2768L47.5926-93.3963C45.7908-95.1981 42.7881-95.2351 40.9493-93.3963C39.1725-91.6195 39.1725-88.5733 40.9493-86.7965Z"/>
  </g>
  <g id="Medium-L" transform="matrix(1 0 0 1 1648.68 1556)">
   <path d="M97.9021-88.9607C86.9225-88.9607 76.6747-86.8636 67.4108-83.6456L84.2295-66.7689C88.3866-68.7548 93.0005-69.8672 97.9021-69.8672C117.025-69.8672 132.5-54.3931 132.5-35.2697C132.5-30.3682 131.387-25.7767 129.401-21.6551L152.374 1.30697C171.501-11.4744 182.89-28.0645 182.89-35.2802C182.89-47.9941 148.203-88.9607 97.9021-88.9607ZM117.353-33.7033C118.684-44.6983 108.726-56.1793 96.3027-54.7537ZM97.9021-15.6155C99.2579-15.6155 100.603-15.7777 101.865-16.0878L78.7202-39.2328C78.4326-37.9589 78.2478-36.6255 78.2478-35.2697C78.2478-24.3868 87.0192-15.6155 97.9021-15.6155ZM97.8916 18.4107C109.653 18.4107 120.613 16.0738 130.452 12.4407L113.423-4.57722C108.831-2.03641 103.48-0.672157 97.9021-0.672157C78.7787-0.672157 63.2571-16.1463 63.2571-35.2697C63.2571-40.8947 64.6688-46.1516 67.1621-50.7909L45.0974-72.7977C25.016-59.8899 12.8672-42.6922 12.8672-35.2802C12.8672-22.6032 48.0213 18.4107 97.8916 18.4107ZM148.228 20.2334C149.983 21.9884 152.729 22.0833 154.521 20.2334C156.36 18.336 156.253 15.6956 154.521 13.963L47.4615-93.0383C45.7513-94.7484 42.8882-94.7933 41.1331-93.0383C39.4361-91.3412 39.4361-88.4425 41.1331-86.7454Z"/>
  </g>
  <g id="Regular-L" transform="matrix(1 0 0 1 1352.37 1556)">
   <path d="M97.5009-88.5728C86.3498-88.5728 75.925-86.3611 66.5257-83.0183L82.6876-66.8037C87.1536-69.0508 92.1651-70.3251 97.5009-70.3251C116.877-70.3251 132.556-54.6458 132.556-35.2697C132.556-29.9339 131.282-24.9501 129.035-20.5091L150.996 1.45239C170.401-11.2816 182.082-28.0017 182.082-35.2697C182.082-47.9684 147.127-88.5728 97.5009-88.5728ZM116.491-33.0529C118.22-44.1351 108.018-56.1224 95.2564-54.2876ZM97.5009-16.0607C99.0038-16.0607 100.507-16.2492 101.874-16.6011L78.8323-39.6426C78.5081-38.2478 78.2919-36.7726 78.2919-35.2697C78.2919-24.6249 86.8561-16.0607 97.5009-16.0607ZM97.5009 18.0334C109.371 18.0334 120.461 15.6081 130.393 11.8658L113.99-4.53733C109.152-1.72989 103.45-0.214266 97.5009-0.214266C78.1248-0.214266 62.3927-15.8936 62.3927-35.2697C62.3927-41.2714 63.9611-46.8684 66.7158-51.7591L45.5785-72.8437C25.2672-60.0041 12.8672-42.7236 12.8672-35.2697C12.8672-22.6238 48.2115 18.0334 97.5009 18.0334ZM147.576 19.4184C149.222 21.0643 151.769 21.1698 153.468 19.4184C155.219 17.6142 155.086 15.1718 153.468 13.5536L47.2904-92.5712C45.6999-94.1618 43.0188-94.2171 41.3729-92.5712C39.7798-90.9782 39.7798-88.2719 41.3729-86.6788Z"/>
  </g>
  <g id="Light-L" transform="matrix(1 0 0 1 1056.74 1556)">
   <path d="M96.4131-88.2293C84.6703-88.2293 73.7111-85.7122 63.9301-81.9496L80.0347-65.8113C84.8634-68.5546 90.4475-70.1534 96.4131-70.1534C115.675-70.1534 131.297-54.5313 131.297-35.2697C131.297-29.3041 129.698-23.7668 126.955-18.925L147.866 1.98678C167.786-10.7663 179.925-27.9254 179.925-35.2697C179.925-47.7966 144.989-88.2293 96.4131-88.2293ZM113.247-32.633C115.281-42.761 105.918-54.252 93.7296-52.1501ZM96.4131-18.1219C97.9541-18.1219 99.4951-18.3295 100.862-18.7577L79.9011-39.7189C79.5196-38.305 79.2653-36.8107 79.2653-35.2697C79.2653-25.77 86.9133-18.1219 96.4131-18.1219ZM96.4131 17.6899C108.76 17.6899 120.29 14.9782 130.527 10.8733L114.181-5.47251C109.057-2.22611 102.915-0.386034 96.4131-0.386034C77.1515-0.386034 61.4957-16.0081 61.4957-35.2697C61.4957-41.8058 63.3695-47.8799 66.5822-53.0378L46.3419-73.2444C25.6107-60.424 12.8672-42.7618 12.8672-35.2697C12.8672-22.7765 47.9062 17.6899 96.4131 17.6899ZM147.69 19.4757C148.973 20.7589 150.949 20.8262 152.266 19.4757C153.616 18.0914 153.502 16.1834 152.266 14.9469L44.962-92.3231C43.7723-93.5129 41.6828-93.6064 40.3996-92.3231C39.15-91.0736 39.15-88.9972 40.3996-87.7476Z"/>
  </g>
  <g id="Thin-L" transform="matrix(1 0 0 1 761.452 1556)">
   <path d="M94.9743-87.7749C82.449-87.7749 70.7831-84.8539 60.4972-80.536L76.5261-64.4987C81.8344-67.8983 88.1757-69.9262 94.9743-69.9262C114.084-69.9262 129.631-54.3798 129.631-35.2697C129.631-28.4711 127.603-22.2018 124.203-16.83L143.727 2.69355C164.328-10.0848 177.073-27.8244 177.073-35.2697C177.073-47.5695 142.162-87.7749 94.9743-87.7749ZM108.956-32.0777C111.394-40.9436 103.142-51.7783 91.7102-49.323ZM94.9743-20.8481C96.5658-20.8481 98.1573-21.0809 99.5245-21.6101L81.3146-39.8199C80.8574-38.3808 80.5526-36.8612 80.5526-35.2697C80.5526-27.2845 86.989-20.8481 94.9743-20.8481ZM94.9743 17.2355C107.952 17.2355 120.062 14.1453 130.704 9.56077L114.434-6.70936C108.931-2.88239 102.209-0.61321 94.9743-0.61321C75.8641-0.61321 60.3093-16.1596 60.3093-35.2697C60.3093-42.5125 62.587-49.2178 66.4055-54.729L47.3516-73.7745C26.065-60.9793 12.8672-42.8123 12.8672-35.2697C12.8672-22.9784 47.5023 17.2355 94.9743 17.2355ZM147.842 19.5514C148.645 20.355 149.863 20.3719 150.675 19.5514C151.496 18.7224 151.407 17.5212 150.675 16.7895L41.8825-91.995C41.2229-92.6547 39.9159-92.7986 39.1122-91.995C38.317-91.1998 38.317-89.9564 39.1122-89.1611Z"/>
  </g>
  <g id="Ultralight-L" transform="matrix(1 0 0 1 465.472 1556)">
   <path d="M94.2373-87.5422C81.3113-87.5422 69.2834-84.4144 58.7389-79.812L74.729-63.8264C80.2829-67.5621 87.0121-69.8098 94.2373-69.8098C113.27-69.8098 128.777-54.3023 128.777-35.2697C128.777-28.0445 126.53-21.4002 122.794-15.7569L141.606 3.05555C162.557-9.73571 175.612-27.7727 175.612-35.2697C175.612-47.4531 140.714-87.5422 94.2373-87.5422ZM106.758-31.7932C109.403-40.0127 101.72-50.5113 90.6759-47.875ZM94.2373-22.2444C95.8547-22.2444 97.4721-22.4901 98.8392-23.071L82.0386-39.8716C81.5426-38.4196 81.212-36.8871 81.212-35.2697C81.212-28.0602 87.0278-22.2444 94.2373-22.2444ZM94.2373 17.0028C107.539 17.0028 119.946 13.7186 130.794 8.88848L114.563-7.34287C108.866-3.21854 101.847-0.729569 94.2373-0.729569C75.2048-0.729569 59.7017-16.2371 59.7017-35.2697C59.7017-42.8745 62.1862-49.903 66.315-55.5953L47.8687-74.046C26.2978-61.2638 12.8672-42.8382 12.8672-35.2697C12.8672-23.0818 47.2955 17.0028 94.2373 17.0028ZM147.919 19.5902C148.477 20.1482 149.307 20.1392 149.861 19.5902C150.41 19.0456 150.334 18.2064 149.861 17.7333L40.3052-91.8269C39.9171-92.2151 39.0109-92.3849 38.4529-91.8269C37.8904-91.2644 37.8904-90.4476 38.4529-89.8852Z"/>
  </g>
  <g id="Black-M" transform="matrix(1 0 0 1 2856.06 1126)">
   <path d="M77.3465-78.5463C69.4373-78.5463 62.14-77.3514 55.4634-75.2964L71.5327-59.1645C73.4383-59.6558 75.3565-59.8743 77.3465-59.8743C90.9466-59.8743 101.96-48.8608 101.96-35.2606C101.96-33.2706 101.742-31.3522 101.25-29.5095L123.399-7.41837C137.103-17.5477 144.719-29.945 144.719-35.3177C144.719-45.1801 119.1-78.5463 77.3465-78.5463ZM93.8271-36.9327C93.1065-44.7199 86.8162-51.0885 78.9617-51.7981ZM77.3465-18.662C77.7251-18.662 78.0467-18.6722 78.5349-18.7438L60.8296-36.4491C60.7577-36.0183 60.7479-35.6393 60.7479-35.2606C60.7479-26.1107 68.1965-18.662 77.3465-18.662ZM77.2894 7.96789C86.0568 7.96789 94.0928 6.47161 101.383 4.0419L85.2983-11.9859C82.7893-11.1095 80.1267-10.647 77.3465-10.647C63.7463-10.647 52.7273-21.6605 52.7273-35.2606C52.7273-38.0464 53.1954-40.698 54.0662-43.2124L32.9587-64.2574C18.3283-53.9458 9.96875-40.8779 9.96875-35.3177C9.96875-25.4038 36.2144 7.96789 77.2894 7.96789ZM117.914 11.554C119.659 13.2987 122.512 13.3097 124.206 11.554C125.904 9.79283 125.951 7.00723 124.206 5.26225L36.7742-82.1064C35.029-83.8517 32.1646-83.8511 30.4199-82.1064C28.7378-80.4243 28.7378-77.4971 30.4199-75.815Z"/>
  </g>
  <g id="Heavy-M" transform="matrix(1 0 0 1 2559.63 1126)">
   <path d="M77.066-78.123C69.0641-78.123 61.6548-76.8467 54.8866-74.722L70.1263-59.4223C72.35-60.1418 74.6547-60.4981 77.066-60.4981C91.0146-60.4981 102.303-49.2093 102.303-35.2606C102.303-32.8494 101.947-30.5469 101.228-28.381L122.305-7.34678C136.254-17.4113 144.147-29.8809 144.147-35.3043C144.147-45.184 118.181-78.123 77.066-78.123ZM93.4194-36.1892C93.144-44.2933 86.3597-51.4174 77.9487-51.6599ZM77.066-18.79C77.6249-18.79 78.1403-18.8296 78.7632-18.9384L60.7437-36.9579C60.6372-36.3763 60.5953-35.8196 60.5953-35.2606C60.5953-26.1698 67.9751-18.79 77.066-18.79ZM77.0224 7.55805C85.8268 7.55805 93.9351 6.00994 101.28 3.51818L85.9841-11.7339C83.2212-10.6101 80.2034-10.0232 77.066-10.0232C63.1174-10.0232 51.8121-21.312 51.8121-35.2606C51.8121-38.4144 52.4154-41.3994 53.5228-44.1788L33.4113-64.2303C18.5764-54.0021 9.96875-40.91 9.96875-35.3043C9.96875-25.3973 36.5238 7.55805 77.0224 7.55805ZM117.054 10.4972C118.736 12.1798 121.459 12.2126 123.115 10.4972C124.787 8.76529 124.795 6.11866 123.115 4.43829L37.0552-81.5612C35.3771-83.2393 32.6189-83.2438 30.9363-81.5612C29.3137-79.9386 29.3137-77.1226 30.9363-75.5Z"/>
  </g>
  <g id="Bold-M" transform="matrix(1 0 0 1 2263.24 1126)">
   <path d="M76.7522-77.6494C68.6466-77.6494 61.1119-76.2822 54.2414-74.0795L68.553-59.7107C71.1325-60.6854 73.8697-61.1959 76.7522-61.1959C91.0907-61.1959 102.687-49.5991 102.687-35.2606C102.687-32.3782 102.177-29.646 101.202-27.1186L121.083-7.2667C135.305-17.2587 143.507-29.8092 143.507-35.2892C143.507-45.1884 117.152-77.6494 76.7522-77.6494ZM92.9633-35.3576C93.1859-43.816 85.8492-51.7852 76.8155-51.5054ZM76.7522-18.9331C77.5128-18.9331 78.2449-19.0057 79.0186-19.1561L60.6476-37.527C60.5024-36.7768 60.4246-36.0213 60.4246-35.2606C60.4246-26.2359 67.7275-18.9331 76.7522-18.9331ZM76.7237 7.09958C85.5695 7.09958 93.7586 5.4935 101.164 2.93232L86.7513-11.452C83.7043-10.0514 80.2891-9.32541 76.7522-9.32541C62.4138-9.32541 50.7884-20.9222 50.7884-35.2606C50.7884-38.8261 51.5429-42.1841 52.9149-45.2597L33.9176-64.1999C18.854-54.065 9.96875-40.9458 9.96875-35.2892C9.96875-25.3901 36.8699 7.09958 76.7237 7.09958ZM116.091 9.31495C117.704 10.9282 120.281 10.9854 121.894 9.31495C123.536 7.61585 123.503 5.12467 121.894 3.51658L37.3695-80.9512C35.7665-82.5542 33.1272-82.5644 31.5139-80.9512C29.9579-79.3951 29.9579-76.7038 31.5139-75.1477Z"/>
  </g>
  <g id="Semibold-M" transform="matrix(1 0 0 1 1966.75 1126)">
   <path d="M76.5359-77.323C68.3588-77.323 60.7377-75.893 53.7966-73.6365L67.4684-59.9095C70.2932-61.0602 73.3286-61.6769 76.5359-61.6769C91.1431-61.6769 102.952-49.8678 102.952-35.2606C102.952-32.0533 102.335-29.025 101.185-26.2483L120.24-7.21149C134.65-17.1535 143.066-29.7597 143.066-35.2788C143.066-45.1914 116.443-77.323 76.5359-77.323ZM92.6489-34.7842C93.2147-43.487 85.4972-52.0388 76.0342-51.3989ZM76.5359-19.0317C77.4356-19.0317 78.3171-19.1271 79.1947-19.3061L60.5814-37.9194C60.4095-37.0529 60.307-36.1603 60.307-35.2606C60.307-26.2815 67.5567-19.0317 76.5359-19.0317ZM76.5178 6.78352C85.3921 6.78352 93.637 5.13747 101.084 2.52843L87.2802-11.2576C84.0374-9.66618 80.3482-8.84436 76.5359-8.84436C61.9287-8.84436 50.0826-20.6535 50.0826-35.2606C50.0826-39.11 50.9414-42.7251 52.4959-46.0049L34.2667-64.179C19.0454-54.1084 9.96875-40.9706 9.96875-35.2788C9.96875-25.3851 37.1086 6.78352 76.5178 6.78352ZM115.427 8.49993C116.993 10.0653 119.469 10.1394 121.053 8.49993C122.674 6.82343 122.611 4.43942 121.053 2.88115L37.5862-80.5307C36.035-82.0818 33.4776-82.0961 31.9122-80.5307C30.402-79.0205 30.402-76.415 31.9122-74.9048Z"/>
  </g>
  <g id="Medium-M" transform="matrix(1 0 0 1 1670.21 1126)">
   <path d="M76.3719-77.0754C68.1405-77.0754 60.454-75.5979 53.4593-73.3006L66.646-60.0603C69.6568-61.3444 72.9182-62.0417 76.3719-62.0417C91.1828-62.0417 103.153-50.0716 103.153-35.2606C103.153-31.807 102.456-28.5541 101.172-25.5884L119.601-7.16962C134.154-17.0738 142.732-29.7222 142.732-35.2709C142.732-45.1937 115.905-77.0754 76.3719-77.0754ZM92.4105-34.3495C93.2366-43.2375 85.2303-52.2311 75.4418-51.3181ZM76.3719-19.1065C77.377-19.1065 78.3718-19.2192 79.3282-19.4199L60.5312-38.2169C60.339-37.2622 60.2178-36.2657 60.2178-35.2606C60.2178-26.316 67.4273-19.1065 76.3719-19.1065ZM76.3616 6.54386C85.2575 6.54386 93.5447 4.86751 101.024 2.22218L87.6812-11.1103C84.2899-9.37412 80.393-8.47961 76.3719-8.47961C61.561-8.47961 49.5474-20.4497 49.5474-35.2606C49.5474-39.3252 50.4854-43.1352 52.1781-46.57L34.5313-64.1631C19.1905-54.1413 9.96875-40.9893 9.96875-35.2709C9.96875-25.3813 37.2895 6.54386 76.3616 6.54386ZM114.924 7.88195C116.453 9.41104 118.853 9.49789 120.415 7.88195C122.021 6.22259 121.936 3.91984 120.415 2.39935L37.7504-80.2118C36.2386-81.7237 33.7432-81.7409 32.2141-80.2118C30.7388-78.7364 30.7388-76.196 32.2141-74.7206Z"/>
  </g>
  <g id="Regular-M" transform="matrix(1 0 0 1 1373.71 1126)">
   <path d="M76.158-76.7526C67.8559-76.7526 60.0839-75.213 53.0194-72.8626L65.5732-60.2569C68.8266-61.715 72.383-62.5174 76.158-62.5174C91.2347-62.5174 103.415-50.3374 103.415-35.2606C103.415-31.4857 102.612-27.9399 101.154-24.7277L118.767-7.11502C133.506-16.9697 142.295-29.6733 142.295-35.2606C142.295-45.1967 115.203-76.7526 76.158-76.7526ZM92.0995-33.7824C93.2652-42.9121 84.8822-52.4819 74.6692-51.2127ZM76.158-19.2041C77.3006-19.2041 78.4431-19.3392 79.5023-19.5683L60.4657-38.605C60.2471-37.5353 60.1014-36.4032 60.1014-35.2606C60.1014-26.3611 67.2584-19.2041 76.158-19.2041ZM76.158 6.23127C85.0821 6.23127 93.4244 4.51539 100.945 1.82273L88.2043-10.9181C84.6193-8.99317 80.4514-8.00385 76.158-8.00385C61.0812-8.00385 48.8494-20.1839 48.8494-35.2606C48.8494-39.6059 49.8905-43.6702 51.7636-47.307L34.8765-64.1424C19.3798-54.1842 9.96875-41.0138 9.96875-35.2606C9.96875-25.3763 37.5255 6.23127 76.158 6.23127ZM114.268 7.07589C115.75 8.55765 118.05 8.66116 119.583 7.07589C121.169 5.43887 121.055 3.24212 119.583 1.77091L37.9647-79.7959C36.5041-81.2566 34.0897-81.2777 32.608-79.7959C31.178-78.3659 31.178-75.9104 32.608-74.4804Z"/>
  </g>
  <g id="Light-M" transform="matrix(1 0 0 1 1077.97 1126)">
   <path d="M75.1826-76.4446C66.3501-76.4446 58.099-74.6313 50.6923-71.9043L63.1948-59.3671C66.7733-61.2701 70.843-62.3634 75.1826-62.3634C90.1567-62.3634 102.285-50.2347 102.285-35.2606C102.285-30.921 101.192-26.879 99.2891-23.3075L115.961-6.63591C131.162-16.5077 140.362-29.6049 140.362-35.2606C140.362-45.0427 113.287-76.4446 75.1826-76.4446ZM89.1906-33.406C90.6301-41.6801 83-50.805 73.3003-49.2963ZM75.1826-21.052C76.3595-21.052 77.5363-21.2043 78.5954-21.5019L61.4239-38.6734C61.154-37.5866 60.974-36.4375 60.974-35.2606C60.974-27.3877 67.3097-21.052 75.1826-21.052ZM75.1826 5.92328C84.5345 5.92328 93.2704 3.95073 101.065 0.932964L88.3754-11.7565C84.5338-9.43806 79.9723-8.15784 75.1826-8.15784C60.2086-8.15784 48.0452-20.2866 48.0452-35.2606C48.0452-40.085 49.3601-44.5771 51.6439-48.4535L35.561-64.5017C19.6878-54.5606 9.96875-41.048 9.96875-35.2606C9.96875-25.5132 37.2517 5.92328 75.1826 5.92328ZM114.37 7.12722C115.527 8.28387 117.314 8.35316 118.505 7.12722C119.731 5.86665 119.634 4.14899 118.505 3.02001L35.8772-79.5735C34.7759-80.6748 32.892-80.7301 31.7353-79.5735C30.6133-78.4515 30.6133-76.5606 31.7353-75.4386Z"/>
  </g>
  <g id="Thin-M" transform="matrix(1 0 0 1 782.536 1126)">
   <path d="M73.8927-76.0372C64.3586-76.0372 55.4739-73.8618 47.6145-70.637L60.0492-58.1904C64.0577-60.6817 68.8063-62.1598 73.8927-62.1598C88.731-62.1598 100.792-50.0989 100.792-35.2606C100.792-30.1742 99.3138-25.4759 96.8224-21.4291L112.249-6.00226C128.062-15.8967 137.805-29.5144 137.805-35.2606C137.805-44.8391 110.752-76.0372 73.8927-76.0372ZM85.3434-32.9081C87.145-40.0507 80.5106-48.5872 71.4899-46.7617ZM73.8927-23.4961C75.1148-23.4961 76.3368-23.6711 77.396-24.0591L62.6912-38.764C62.3534-37.6545 62.1282-36.4827 62.1282-35.2606C62.1282-28.7456 67.3776-23.4961 73.8927-23.4961ZM73.8927 5.51593C83.8104 5.51593 93.0667 3.20392 101.223-0.243827L88.6018-12.8654C84.4206-10.0265 79.3387-8.36152 73.8927-8.36152C59.0544-8.36152 46.9816-20.4224 46.9816-35.2606C46.9816-40.7186 48.6585-45.7765 51.4855-49.9697L36.4662-64.9769C20.0951-55.0585 9.96875-41.0933 9.96875-35.2606C9.96875-25.6942 36.8897 5.51593 73.8927 5.51593ZM114.506 7.19512C115.233 7.92178 116.341 7.94581 117.08 7.19512C117.83 6.43241 117.756 5.34842 117.08 4.67204L33.1163-79.2793C32.4902-79.9054 31.3078-80.006 30.5812-79.2793C29.8665-78.5646 29.8665-77.4206 30.5812-76.7059Z"/>
  </g>
  <g id="Ultralight-M" transform="matrix(1 0 0 1 486.479 1126)">
   <path d="M73.232-75.8286C63.3386-75.8286 54.1293-73.4677 46.0381-69.9879L58.438-57.5876C62.6667-60.3804 67.7631-62.0554 73.232-62.0554C88.0007-62.0554 100.027-50.0294 100.027-35.2606C100.027-29.7917 98.3517-24.7572 95.559-20.4671L110.348-5.6777C126.474-15.5837 136.495-29.468 136.495-35.2606C136.495-44.7347 109.454-75.8286 73.232-75.8286ZM83.3729-32.6531C85.3599-39.2161 79.2355-47.4513 70.5626-45.4634ZM73.232-24.748C74.4772-24.748 75.7225-24.9345 76.7817-25.3689L63.3403-38.8103C62.9677-37.6893 62.7194-36.5059 62.7194-35.2606C62.7194-29.4411 67.4124-24.748 73.232-24.748ZM73.232 5.30728C83.4394 5.30728 92.9624 2.82141 101.304-0.846574L88.7177-13.4334C84.3627-10.3278 79.0141-8.46584 73.232-8.46584C58.4633-8.46584 46.4368-20.4919 46.4368-35.2606C46.4368-41.0432 48.2992-46.3909 51.4043-50.7463L36.9298-65.2204C20.3038-55.3135 9.96875-41.1164 9.96875-35.2606C9.96875-25.787 36.7042 5.30728 73.232 5.30728ZM114.576 7.22989C115.082 7.73632 115.843 7.73716 116.349 7.22989C116.857 6.72219 116.794 5.96275 116.349 5.5182L31.7021-79.1286C31.3195-79.5113 30.4965-79.635 29.99-79.1286C29.484-78.6226 29.484-77.8611 29.99-77.355Z"/>
  </g>
  <g id="Black-S" transform="matrix(1 0 0 1 2872.76 696)">
   <path d="M60.6445-69.2871C54.4434-69.2871 48.7305-68.3594 43.5059-66.748L56.3477-53.8574C57.7637-54.1992 59.1797-54.3457 60.6445-54.3457C71.1914-54.3457 79.7363-45.8008 79.7363-35.2539C79.7363-33.7891 79.5898-32.373 79.248-31.0059L96.875-13.4277C107.568-21.3867 113.477-31.1035 113.477-35.3027C113.477-43.0176 93.5059-69.2871 60.6445-69.2871ZM73.4863-36.7676C72.8027-42.7246 68.0664-47.4609 62.1094-48.1445ZM60.6445-22.3145C60.8887-22.3145 61.084-22.3145 61.4258-22.3633L47.7539-36.0352C47.7051-35.7422 47.7051-35.498 47.7051-35.2539C47.7051-28.125 53.5156-22.3145 60.6445-22.3145ZM60.5957-1.26953C67.4805-1.26953 73.7793-2.44141 79.4922-4.3457L66.6504-17.1387C64.7461-16.5039 62.7441-16.1621 60.6445-16.1621C50.0977-16.1621 41.5527-24.707 41.5527-35.2539C41.5527-37.3535 41.8945-39.3555 42.5293-41.2598L25.7324-58.0078C14.3066-49.9023 7.8125-39.6484 7.8125-35.3027C7.8125-27.5391 28.2715-1.26953 60.5957-1.26953ZM92.6758 1.75781C94.043 3.125 96.2891 3.125 97.6074 1.75781C98.9258 0.390625 98.9746-1.80664 97.6074-3.17383L28.6133-72.1191C27.2461-73.4863 25-73.4863 23.6328-72.1191C22.3145-70.8008 22.3145-68.5059 23.6328-67.1875Z"/>
  </g>
  <g id="Heavy-S" transform="matrix(1 0 0 1 2576.17 696)">
   <path d="M60.5293-68.9644C54.3166-68.9644 48.5691-68.0021 43.3099-66.3793L55.4487-54.1916C57.0953-54.6717 58.7763-54.8989 60.5293-54.8989C71.3873-54.8989 80.1743-46.1119 80.1743-35.2539C80.1743-33.501 79.9471-31.8199 79.467-30.2222L96.2988-13.4277C107.142-21.3291 113.235-31.0574 113.235-35.2912C113.235-43.0406 92.9642-68.9644 60.5293-68.9644ZM73.5094-36.1798C73.1715-42.5172 67.9166-47.9565 61.4179-48.2713ZM60.5293-22.1877C60.9232-22.1877 61.2799-22.2107 61.7369-22.2826L47.558-36.4616C47.4861-36.0418 47.4631-35.6479 47.4631-35.2539C47.4631-28.0443 53.3197-22.1877 60.5293-22.1877ZM60.492-1.58069C67.3537-1.58069 73.6641-2.76409 79.3885-4.67991L67.2151-16.816C65.1264-16.0199 62.8709-15.6089 60.5293-15.6089C49.6713-15.6089 40.8728-24.3959 40.8728-35.2539C40.8728-37.6071 41.2953-39.8395 42.0798-41.9397L26.0321-57.9387C14.4795-49.9023 7.8125-39.6715 7.8125-35.2912C7.8125-27.516 28.5711-1.58069 60.492-1.58069ZM91.9267 0.84738C93.2824 2.20304 95.4823 2.22609 96.8122 0.84738C98.1536-0.542857 98.1679-2.6825 96.8122-4.03816L29.1204-71.6812C27.7647-73.0369 25.5416-73.0369 24.186-71.6812C22.8792-70.3744 22.8792-68.1025 24.186-66.7957Z"/>
  </g>
  <g id="Bold-S" transform="matrix(1 0 0 1 2279.59 696)">
   <path d="M60.4004-68.6035C54.1748-68.6035 48.3887-67.6025 43.0908-65.9668L54.4434-54.5654C56.3477-55.2002 58.3252-55.5176 60.4004-55.5176C71.6064-55.5176 80.6641-46.46 80.6641-35.2539C80.6641-33.1787 80.3467-31.2012 79.7119-29.3457L95.6543-13.4277C106.665-21.2646 112.964-31.0059 112.964-35.2783C112.964-43.0664 92.3584-68.6035 60.4004-68.6035ZM73.5352-35.5225C73.584-42.2852 67.749-48.5107 60.6445-48.4131ZM60.4004-22.0459C60.9619-22.0459 61.499-22.0947 62.085-22.1924L47.3389-36.9385C47.2412-36.377 47.1924-35.8154 47.1924-35.2539C47.1924-27.9541 53.1006-22.0459 60.4004-22.0459ZM60.376-1.92871C67.2119-1.92871 73.5352-3.125 79.2725-5.05371L67.8467-16.4551C65.5518-15.4785 63.0127-14.9902 60.4004-14.9902C49.1943-14.9902 40.1123-24.0479 40.1123-35.2539C40.1123-37.8906 40.625-40.3809 41.5771-42.7002L26.3672-57.8613C14.6729-49.9023 7.8125-39.6973 7.8125-35.2783C7.8125-27.4902 28.9062-1.92871 60.376-1.92871ZM91.0889-0.170898C92.4316 1.17188 94.5801 1.2207 95.9229-0.170898C97.29-1.58691 97.2656-3.66211 95.9229-5.00488L29.6875-71.1914C28.3447-72.5342 26.1475-72.5342 24.8047-71.1914C23.5107-69.8975 23.5107-67.6514 24.8047-66.3574Z"/>
  </g>
  <g id="Semibold-S" transform="matrix(1 0 0 1 1982.97 696)">
   <path d="M60.3115-68.3547C54.0771-68.3547 48.2643-67.3271 42.9397-65.6824L53.7502-54.8231C55.8322-55.5646 58.0142-55.9441 60.3115-55.9441C71.7575-55.9441 81.0018-46.6999 81.0018-35.2539C81.0018-32.9565 80.6222-30.7746 79.8808-28.7414L95.21-13.4277C106.336-21.2202 112.777-30.9703 112.777-35.2694C112.777-43.0842 91.9407-68.3547 60.3115-68.3547ZM73.5529-35.0692C73.8684-42.1252 67.6335-48.8929 60.1113-48.5108ZM60.3115-21.9481C60.9886-21.9481 61.6501-22.0147 62.3249-22.1302L47.1878-37.2673C47.0724-36.608 47.0058-35.931 47.0058-35.2539C47.0058-27.8919 52.9495-21.9481 60.3115-21.9481ZM60.296-2.16865C67.1142-2.16865 73.4463-3.37383 79.1925-5.31143L68.2821-16.2063C65.845-15.1053 63.1104-14.5637 60.3115-14.5637C48.8655-14.5637 39.588-23.8079 39.588-35.2539C39.588-38.0861 40.1629-40.7541 41.2306-43.2245L26.5982-57.808C14.8062-49.9023 7.8125-39.715 7.8125-35.2694C7.8125-27.4725 29.1373-2.16865 60.296-2.16865ZM90.5112-0.872949C91.8451 0.460938 93.958 0.527539 95.3097-0.872949C96.6946-2.30674 96.6436-4.3375 95.3097-5.67139L30.0785-70.8537C28.7446-72.1876 26.5651-72.1876 25.2312-70.8537C23.9462-69.5687 23.9462-67.3403 25.2312-66.0553Z"/>
  </g>
  <g id="Medium-S" transform="matrix(1 0 0 1 1686.33 696)">
   <path d="M60.2441-68.166C54.0029-68.166 48.1699-67.1182 42.8252-65.4668L53.2246-55.0186C55.4414-55.8408 57.7783-56.2676 60.2441-56.2676C71.8721-56.2676 81.2578-46.8818 81.2578-35.2539C81.2578-32.7881 80.8311-30.4512 80.0088-28.2832L94.873-13.4277C106.087-21.1865 112.636-30.9434 112.636-35.2627C112.636-43.0977 91.624-68.166 60.2441-68.166ZM73.5664-34.7256C74.084-42.0039 67.5459-49.1826 59.707-48.585ZM60.2441-21.874C61.0088-21.874 61.7646-21.9541 62.5068-22.083L47.0732-37.5166C46.9443-36.7832 46.8643-36.0186 46.8643-35.2539C46.8643-27.8447 52.835-21.874 60.2441-21.874ZM60.2354-2.35059C67.04-2.35059 73.3789-3.5625 79.1318-5.50684L68.6123-16.0176C66.0674-14.8223 63.1846-14.2402 60.2441-14.2402C48.6162-14.2402 39.1904-23.626 39.1904-35.2539C39.1904-38.2344 39.8125-41.0371 40.9678-43.6221L26.7734-57.7676C14.9072-49.9023 7.8125-39.7285 7.8125-35.2627C7.8125-27.459 29.3125-2.35059 60.2354-2.35059ZM90.0732-1.40527C91.4004-0.078125 93.4863 0.00195312 94.8447-1.40527C96.2432-2.85254 96.1719-4.84961 94.8447-6.17676L30.375-70.5977C29.0479-71.9248 26.8818-71.9248 25.5547-70.5977C24.2764-69.3193 24.2764-67.1045 25.5547-65.8262Z"/>
  </g>
  <g id="Regular-S" transform="matrix(1 0 0 1 1389.71 696)">
   <path d="M60.1562-67.9199C53.9062-67.9199 48.0469-66.8457 42.6758-65.1855L52.5391-55.2734C54.9316-56.2012 57.4707-56.6895 60.1562-56.6895C72.0215-56.6895 81.5918-47.1191 81.5918-35.2539C81.5918-32.5684 81.1035-30.0293 80.1758-27.6855L94.4336-13.4277C105.762-21.1426 112.451-30.9082 112.451-35.2539C112.451-43.1152 91.2109-67.9199 60.1562-67.9199ZM73.584-34.2773C74.3652-41.8457 67.4316-49.5605 59.1797-48.6816ZM60.1562-21.7773C61.0352-21.7773 61.9141-21.875 62.7441-22.0215L46.9238-37.8418C46.7773-37.0117 46.6797-36.1328 46.6797-35.2539C46.6797-27.7832 52.6855-21.7773 60.1562-21.7773ZM60.1562-2.58789C66.9434-2.58789 73.291-3.80859 79.0527-5.76172L69.043-15.7715C66.3574-14.4531 63.2812-13.8184 60.1562-13.8184C48.291-13.8184 38.6719-23.3887 38.6719-35.2539C38.6719-38.4277 39.3555-41.4062 40.625-44.1406L27.002-57.7148C15.0391-49.9023 7.8125-39.7461 7.8125-35.2539C7.8125-27.4414 29.541-2.58789 60.1562-2.58789ZM89.502-2.09961C90.8203-0.78125 92.8711-0.683594 94.2383-2.09961C95.6543-3.56445 95.5566-5.51758 94.2383-6.83594L30.7617-70.2637C29.4434-71.582 27.2949-71.582 25.9766-70.2637C24.707-68.9941 24.707-66.7969 25.9766-65.5273Z"/>
  </g>
  <g id="Light-S" transform="matrix(1 0 0 1 1093.86 696)">
   <path d="M59.2935-67.6475C52.5742-67.6475 46.291-66.3311 40.6172-64.3379L50.4351-54.4863C53.1152-55.8076 56.1084-56.5532 59.2935-56.5532C71.0679-56.5532 80.5928-47.0283 80.5928-35.2539C80.5928-32.0689 79.8472-29.0908 78.5259-26.4292L91.9512-13.0039C103.688-20.7339 110.741-30.8477 110.741-35.2539C110.741-42.979 89.5156-67.6475 59.2935-67.6475ZM71.0108-33.9443C72.0342-40.7559 65.7666-48.0772 57.9688-46.9863ZM59.2935-23.4121C60.2026-23.4121 61.1118-23.5249 61.9419-23.7319L47.7715-37.9023C47.5796-37.0571 47.4517-36.1631 47.4517-35.2539C47.4517-28.6914 52.731-23.4121 59.2935-23.4121ZM59.2935-2.86035C66.459-2.86035 73.1548-4.3081 79.1587-6.54882L69.1943-16.5132C66.2817-14.8467 62.8574-13.9546 59.2935-13.9546C47.519-13.9546 37.9605-23.4795 37.9605-35.2539C37.9605-38.8516 38.8862-42.2085 40.519-45.1548L27.6074-58.0327C15.3115-50.2353 7.8125-39.7764 7.8125-35.2539C7.8125-27.5625 29.2988-2.86035 59.2935-2.86035ZM89.5928-2.0542C90.6235-1.02344 92.2202-0.956053 93.2847-2.0542C94.3828-3.18604 94.3003-4.71534 93.2847-5.73097L28.9151-70.0669C27.9146-71.0674 26.2354-71.0977 25.2046-70.0669C24.2075-69.0698 24.2075-67.3721 25.2046-66.375Z"/>
  </g>
  <g id="Thin-S" transform="matrix(1 0 0 1 798.277 696)">
   <path d="M58.1524-67.2871C50.8125-67.2871 43.9688-65.6504 37.8946-63.2168L47.6524-53.4453C50.7129-55.2871 54.3067-56.373 58.1524-56.373C69.8067-56.373 79.2715-46.9082 79.2715-35.2539C79.2715-31.4082 78.1856-27.8496 76.3438-24.7676L88.668-12.4434C100.945-20.1934 108.479-30.7676 108.479-35.2539C108.479-42.7988 87.2735-67.2871 58.1524-67.2871ZM67.6075-33.5039C68.9512-39.3145 63.5645-46.1153 56.3672-44.7442ZM58.1524-25.5742C59.1016-25.5742 60.0508-25.707 60.8809-25.9941L48.8926-37.9824C48.6406-37.1172 48.4726-36.2031 48.4726-35.2539C48.4726-29.8926 52.791-25.5742 58.1524-25.5742ZM58.1524-3.2207C65.8184-3.2207 72.9746-4.96874 79.2988-7.58983L69.3945-17.4941C66.1816-15.3672 62.2969-14.1348 58.1524-14.1348C46.4981-14.1348 37.0195-23.5996 37.0195-35.2539C37.0195-39.4121 38.2656-43.2695 40.3789-46.4961L28.4082-58.4531C15.6719-50.6758 7.8125-39.8164 7.8125-35.2539C7.8125-27.7227 28.9785-3.2207 58.1524-3.2207ZM89.7129-1.99414C90.3633-1.34375 91.3594-1.3164 92.0235-1.99414C92.7012-2.68555 92.6387-3.65431 92.0235-4.26955L26.4727-69.8066C25.8926-70.3867 24.834-70.457 24.1836-69.8066C23.5469-69.1699 23.5469-68.1328 24.1836-67.4961Z"/>
  </g>
  <g id="Ultralight-S" transform="matrix(1 0 0 1 502.145 696)">
   <path d="M57.5679-67.1025C49.9102-67.1025 42.7793-65.3018 36.5-62.6426L46.2271-52.9121C49.4825-55.0205 53.3838-56.2808 57.5679-56.2808C69.1607-56.2808 78.5948-46.8467 78.5948-35.2539C78.5948-31.0698 77.3345-27.2139 75.2261-23.9165L86.9864-12.1563C99.5406-19.9165 107.32-30.7266 107.32-35.2539C107.32-42.7065 86.125-67.1025 57.5679-67.1025ZM65.8643-33.2783C67.3721-38.5762 62.4366-45.1104 55.5469-43.5957ZM57.5679-26.6816C58.5376-26.6816 59.5073-26.8247 60.3374-27.1528L49.4668-38.0234C49.1841-37.1479 48.9956-36.2236 48.9956-35.2539C48.9956-30.5078 52.8218-26.6816 57.5679-26.6816ZM57.5679-3.40527C65.4902-3.40527 72.8823-5.30712 79.3706-8.12303L69.4971-17.9966C66.1304-15.6338 62.0098-14.227 57.5679-14.227C45.9751-14.227 36.5376-23.6611 36.5376-35.2539C36.5376-39.6992 37.9478-43.813 40.3071-47.1831L28.8183-58.6684C15.8564-50.9014 7.8125-39.8369 7.8125-35.2539C7.8125-27.8047 28.8145-3.40527 57.5679-3.40527ZM89.7744-1.96338C90.23-1.50781 90.9185-1.50097 91.3775-1.96338C91.8399-2.42921 91.7876-3.11086 91.3775-3.52102L25.2217-69.6733C24.857-70.0381 24.1162-70.1289 23.6607-69.6733C23.2085-69.2212 23.2085-68.5224 23.6607-68.0703Z"/>
  </g>
 </g>
</svg>
