<?xml version="1.0" encoding="UTF-8"?>
<!--Generator: Apple Native CoreSVG 341-->
<!DOCTYPE svg
PUBLIC "-//W3C//DTD SVG 1.1//EN"
       "http://www.w3.org/Graphics/SVG/1.1/DTD/svg11.dtd">
<svg version="1.1" xmlns="http://www.w3.org/2000/svg" xmlns:xlink="http://www.w3.org/1999/xlink" viewBox="0 0 3300 2200">
 <g id="Notes">
  <rect height="2200" id="artboard" style="fill:white;opacity:1" width="3300" x="0" y="0"/>
  <line style="fill:none;stroke:black;opacity:1;stroke-width:0.5;" x1="263" x2="3036" y1="292" y2="292"/>
  <text style="stroke:none;fill:black;font-family:sans-serif;font-size:13;font-weight:bold;" transform="matrix(1 0 0 1 263 322)">Weight/Scale Variations</text>
  <text style="stroke:none;fill:black;font-family:sans-serif;font-size:13;text-anchor:middle;" transform="matrix(1 0 0 1 559.711 322)">Ultralight</text>
  <text style="stroke:none;fill:black;font-family:sans-serif;font-size:13;text-anchor:middle;" transform="matrix(1 0 0 1 856.422 322)">Thin</text>
  <text style="stroke:none;fill:black;font-family:sans-serif;font-size:13;text-anchor:middle;" transform="matrix(1 0 0 1 1153.13 322)">Light</text>
  <text style="stroke:none;fill:black;font-family:sans-serif;font-size:13;text-anchor:middle;" transform="matrix(1 0 0 1 1449.84 322)">Regular</text>
  <text style="stroke:none;fill:black;font-family:sans-serif;font-size:13;text-anchor:middle;" transform="matrix(1 0 0 1 1746.56 322)">Medium</text>
  <text style="stroke:none;fill:black;font-family:sans-serif;font-size:13;text-anchor:middle;" transform="matrix(1 0 0 1 2043.27 322)">Semibold</text>
  <text style="stroke:none;fill:black;font-family:sans-serif;font-size:13;text-anchor:middle;" transform="matrix(1 0 0 1 2339.98 322)">Bold</text>
  <text style="stroke:none;fill:black;font-family:sans-serif;font-size:13;text-anchor:middle;" transform="matrix(1 0 0 1 2636.69 322)">Heavy</text>
  <text style="stroke:none;fill:black;font-family:sans-serif;font-size:13;text-anchor:middle;" transform="matrix(1 0 0 1 2933.4 322)">Black</text>
  <line style="fill:none;stroke:black;opacity:1;stroke-width:0.5;" x1="263" x2="3036" y1="1903" y2="1903"/>
  <g transform="matrix(0.2 0 0 0.2 263 1933)">
   <path d="m46.2402 4.15039c21.7773 0 39.4531-17.627 39.4531-39.4043s-17.6758-39.4043-39.4531-39.4043c-21.7285 0-39.4043 17.627-39.4043 39.4043s17.6758 39.4043 39.4043 39.4043Zm0-7.42188c-17.6758 0-31.9336-14.3066-31.9336-31.9824s14.2578-31.9824 31.9336-31.9824 31.9824 14.3066 31.9824 31.9824-14.3066 31.9824-31.9824 31.9824Zm-17.9688-31.9824c0 2.14844 1.51367 3.61328 3.75977 3.61328h10.498v10.5957c0 2.19727 1.46484 3.71094 3.61328 3.71094 2.24609 0 3.71094-1.51367 3.71094-3.71094v-10.5957h10.5957c2.19727 0 3.71094-1.46484 3.71094-3.61328 0-2.19727-1.51367-3.71094-3.71094-3.71094h-10.5957v-10.5469c0-2.24609-1.46484-3.75977-3.71094-3.75977-2.14844 0-3.61328 1.51367-3.61328 3.75977v10.5469h-10.498c-2.24609 0-3.75977 1.51367-3.75977 3.71094Z"/>
  </g>
  <g transform="matrix(0.2 0 0 0.2 281.506 1933)">
   <path d="m58.5449 14.5508c27.4902 0 49.8047-22.3145 49.8047-49.8047s-22.3145-49.8047-49.8047-49.8047-49.8047 22.3145-49.8047 49.8047 22.3145 49.8047 49.8047 49.8047Zm0-8.30078c-22.9492 0-41.5039-18.5547-41.5039-41.5039s18.5547-41.5039 41.5039-41.5039 41.5039 18.5547 41.5039 41.5039-18.5547 41.5039-41.5039 41.5039Zm-22.6562-41.5039c0 2.39258 1.66016 4.00391 4.15039 4.00391h14.3555v14.4043c0 2.44141 1.66016 4.15039 4.05273 4.15039 2.44141 0 4.15039-1.66016 4.15039-4.15039v-14.4043h14.4043c2.44141 0 4.15039-1.61133 4.15039-4.00391 0-2.44141-1.70898-4.15039-4.15039-4.15039h-14.4043v-14.3555c0-2.49023-1.70898-4.19922-4.15039-4.19922-2.39258 0-4.05273 1.70898-4.05273 4.19922v14.3555h-14.3555c-2.49023 0-4.15039 1.70898-4.15039 4.15039Z"/>
  </g>
  <g transform="matrix(0.2 0 0 0.2 304.924 1933)">
   <path d="m74.8535 28.3203c35.1074 0 63.623-28.4668 63.623-63.5742s-28.5156-63.623-63.623-63.623-63.5742 28.5156-63.5742 63.623 28.4668 63.5742 63.5742 63.5742Zm0-9.08203c-30.127 0-54.4922-24.3652-54.4922-54.4922s24.3652-54.4922 54.4922-54.4922 54.4922 24.3652 54.4922 54.4922-24.3652 54.4922-54.4922 54.4922Zm-28.8574-54.4922c0 2.58789 1.85547 4.39453 4.58984 4.39453h19.7266v19.7754c0 2.68555 1.85547 4.58984 4.44336 4.58984 2.68555 0 4.54102-1.85547 4.54102-4.58984v-19.7754h19.7754c2.68555 0 4.58984-1.80664 4.58984-4.39453 0-2.73438-1.85547-4.58984-4.58984-4.58984h-19.7754v-19.7266c0-2.73438-1.85547-4.63867-4.54102-4.63867-2.58789 0-4.44336 1.9043-4.44336 4.63867v19.7266h-19.7266c-2.73438 0-4.58984 1.85547-4.58984 4.58984Z"/>
  </g>
  <text style="stroke:none;fill:black;font-family:sans-serif;font-size:13;font-weight:bold;" transform="matrix(1 0 0 1 263 1953)">Design Variations</text>
  <text style="stroke:none;fill:black;font-family:sans-serif;font-size:13;" transform="matrix(1 0 0 1 263 1971)">Symbols are supported in up to nine weights and three scales.</text>
  <text style="stroke:none;fill:black;font-family:sans-serif;font-size:13;" transform="matrix(1 0 0 1 263 1989)">For optimal layout with text and other symbols, vertically align</text>
  <text style="stroke:none;fill:black;font-family:sans-serif;font-size:13;" transform="matrix(1 0 0 1 263 2007)">symbols with the adjacent text.</text>
  <line style="fill:none;stroke:#00AEEF;stroke-width:0.5;opacity:1.0;" x1="776" x2="776" y1="1919" y2="1933"/>
  <g transform="matrix(0.2 0 0 0.2 776 1933)">
   <path d="m16.5527 0.78125c2.58789 0 3.85742-0.976562 4.78516-3.71094l6.29883-17.2363h28.8086l6.29883 17.2363c0.927734 2.73438 2.19727 3.71094 4.73633 3.71094 2.58789 0 4.24805-1.5625 4.24805-4.00391 0-0.830078-0.146484-1.61133-0.537109-2.63672l-22.9004-60.9863c-1.12305-2.97852-3.125-4.49219-6.25-4.49219-3.02734 0-5.07812 1.46484-6.15234 4.44336l-22.9004 61.084c-0.390625 1.02539-0.537109 1.80664-0.537109 2.63672 0 2.44141 1.5625 3.95508 4.10156 3.95508Zm13.4766-28.3691 11.8652-32.8613h0.244141l11.8652 32.8613Z"/>
  </g>
  <line style="fill:none;stroke:#00AEEF;stroke-width:0.5;opacity:1.0;" x1="792.836" x2="792.836" y1="1919" y2="1933"/>
  <text style="stroke:none;fill:black;font-family:sans-serif;font-size:13;font-weight:bold;" transform="matrix(1 0 0 1 776 1953)">Margins</text>
  <text style="stroke:none;fill:black;font-family:sans-serif;font-size:13;" transform="matrix(1 0 0 1 776 1971)">Leading and trailing margins on the left and right side of each symbol</text>
  <text style="stroke:none;fill:black;font-family:sans-serif;font-size:13;" transform="matrix(1 0 0 1 776 1989)">can be adjusted by modifying the x-location of the margin guidelines.</text>
  <text style="stroke:none;fill:black;font-family:sans-serif;font-size:13;" transform="matrix(1 0 0 1 776 2007)">Modifications are automatically applied proportionally to all</text>
  <text style="stroke:none;fill:black;font-family:sans-serif;font-size:13;" transform="matrix(1 0 0 1 776 2025)">scales and weights.</text>
  <g transform="matrix(0.2 0 0 0.2 1289 1933)">
   <path d="m14.209 9.32617 8.49609 8.54492c4.29688 4.3457 9.22852 4.05273 13.8672-1.07422l53.4668-58.9355-4.83398-4.88281-53.0762 58.3984c-1.75781 2.00195-3.41797 2.49023-5.76172 0.146484l-5.85938-5.81055c-2.34375-2.29492-1.80664-4.00391 0.195312-5.81055l57.373-54.0039-4.88281-4.83398-57.959 54.4434c-4.93164 4.58984-5.32227 9.47266-1.02539 13.8184Zm32.0801-90.9668c-2.09961 2.05078-2.24609 4.93164-1.07422 6.88477 1.17188 1.80664 3.4668 2.97852 6.68945 2.14844 7.32422-1.70898 14.9414-2.00195 22.0703 2.68555l-2.92969 7.27539c-1.70898 4.15039-0.830078 7.08008 1.85547 9.81445l11.4746 11.5723c2.44141 2.44141 4.49219 2.53906 7.32422 2.05078l5.32227-0.976562 3.32031 3.36914-0.195312 2.7832c-0.195312 2.49023 0.439453 4.39453 2.88086 6.78711l3.80859 3.71094c2.39258 2.39258 5.46875 2.53906 7.8125 0.195312l14.5508-14.5996c2.34375-2.34375 2.24609-5.32227-0.146484-7.71484l-3.85742-3.80859c-2.39258-2.39258-4.24805-3.17383-6.64062-2.97852l-2.88086 0.244141-3.22266-3.17383 1.2207-5.61523c0.634766-2.83203-0.146484-5.0293-3.07617-7.95898l-10.9863-10.9375c-16.6992-16.6016-38.8672-16.2109-53.3203-1.75781Zm7.4707 1.85547c12.1582-8.88672 28.6133-7.37305 39.7461 3.75977l12.1582 12.0605c1.17188 1.17188 1.36719 2.09961 1.02539 3.80859l-1.61133 7.42188 7.51953 7.42188 4.93164-0.292969c1.26953-0.0488281 1.66016 0.0488281 2.63672 1.02539l2.88086 2.88086-12.207 12.207-2.88086-2.88086c-0.976562-0.976562-1.12305-1.36719-1.07422-2.68555l0.341797-4.88281-7.4707-7.42188-7.61719 1.26953c-1.61133 0.341797-2.34375 0.195312-3.56445-0.976562l-10.0098-10.0098c-1.26953-1.17188-1.41602-2.00195-0.634766-3.85742l4.39453-10.4492c-7.8125-7.27539-17.9688-10.4004-28.125-7.42188-0.78125 0.195312-1.07422-0.439453-0.439453-0.976562Z"/>
  </g>
  <text style="stroke:none;fill:black;font-family:sans-serif;font-size:13;font-weight:bold;" transform="matrix(1 0 0 1 1289 1953)">Exporting</text>
  <text style="stroke:none;fill:black;font-family:sans-serif;font-size:13;" transform="matrix(1 0 0 1 1289 1971)">Symbols should be outlined when exporting to ensure the</text>
  <text style="stroke:none;fill:black;font-family:sans-serif;font-size:13;" transform="matrix(1 0 0 1 1289 1989)">design is preserved when submitting to Xcode.</text>
  <text id="template-version" style="stroke:none;fill:black;font-family:sans-serif;font-size:13;text-anchor:end;" transform="matrix(1 0 0 1 3036 1933)">Template v.2.0</text>
  <text style="stroke:none;fill:black;font-family:sans-serif;font-size:13;text-anchor:end;" transform="matrix(1 0 0 1 3036 1951)">Requires Xcode 12 or greater</text>
  <text id="descriptive-name" style="stroke:none;fill:black;font-family:sans-serif;font-size:13;text-anchor:end;" transform="matrix(1 0 0 1 3036 1969)">Generated from rectangle.portrait.and.arrow.right</text>
  <text style="stroke:none;fill:black;font-family:sans-serif;font-size:13;text-anchor:end;" transform="matrix(1 0 0 1 3036 1987)">Typeset at 100.0 points</text>
  <text style="stroke:none;fill:black;font-family:sans-serif;font-size:13;" transform="matrix(1 0 0 1 263 726)">Small</text>
  <text style="stroke:none;fill:black;font-family:sans-serif;font-size:13;" transform="matrix(1 0 0 1 263 1156)">Medium</text>
  <text style="stroke:none;fill:black;font-family:sans-serif;font-size:13;" transform="matrix(1 0 0 1 263 1586)">Large</text>
 </g>
 <g id="Guides">
  <g id="H-reference" style="fill:#27AAE1;stroke:none;" transform="matrix(1 0 0 1 339 696)">
   <path d="M0.993654 0L3.63775 0L29.3281-67.1323L30.0303-67.1323L30.0303-70.459L28.1226-70.459ZM11.6885-24.4799L46.9815-24.4799L46.2315-26.7285L12.4385-26.7285ZM55.1196 0L57.7637 0L30.6382-70.459L29.4326-70.459L29.4326-67.1323Z"/>
  </g>
  <line id="Baseline-S" style="fill:none;stroke:#27AAE1;opacity:1;stroke-width:0.5;" x1="263" x2="3036" y1="696" y2="696"/>
  <line id="Capline-S" style="fill:none;stroke:#27AAE1;opacity:1;stroke-width:0.5;" x1="263" x2="3036" y1="625.541" y2="625.541"/>
  <g id="H-reference" style="fill:#27AAE1;stroke:none;" transform="matrix(1 0 0 1 339 1126)">
   <path d="M0.993654 0L3.63775 0L29.3281-67.1323L30.0303-67.1323L30.0303-70.459L28.1226-70.459ZM11.6885-24.4799L46.9815-24.4799L46.2315-26.7285L12.4385-26.7285ZM55.1196 0L57.7637 0L30.6382-70.459L29.4326-70.459L29.4326-67.1323Z"/>
  </g>
  <line id="Baseline-M" style="fill:none;stroke:#27AAE1;opacity:1;stroke-width:0.5;" x1="263" x2="3036" y1="1126" y2="1126"/>
  <line id="Capline-M" style="fill:none;stroke:#27AAE1;opacity:1;stroke-width:0.5;" x1="263" x2="3036" y1="1055.54" y2="1055.54"/>
  <g id="H-reference" style="fill:#27AAE1;stroke:none;" transform="matrix(1 0 0 1 339 1556)">
   <path d="M0.993654 0L3.63775 0L29.3281-67.1323L30.0303-67.1323L30.0303-70.459L28.1226-70.459ZM11.6885-24.4799L46.9815-24.4799L46.2315-26.7285L12.4385-26.7285ZM55.1196 0L57.7637 0L30.6382-70.459L29.4326-70.459L29.4326-67.1323Z"/>
  </g>
  <line id="Baseline-L" style="fill:none;stroke:#27AAE1;opacity:1;stroke-width:0.5;" x1="263" x2="3036" y1="1556" y2="1556"/>
  <line id="Capline-L" style="fill:none;stroke:#27AAE1;opacity:1;stroke-width:0.5;" x1="263" x2="3036" y1="1485.54" y2="1485.54"/>
  <line id="right-margin" style="fill:none;stroke:#00AEEF;stroke-width:0.5;opacity:1.0;" x1="1518.99" x2="1518.99" y1="1030.79" y2="1150.12"/>
  <line id="left-margin" style="fill:none;stroke:#00AEEF;stroke-width:0.5;opacity:1.0;" x1="1380.7" x2="1380.7" y1="1030.79" y2="1150.12"/>
 </g>
 <g id="Symbols">
  <g id="Black-L" transform="matrix(1 0 0 1 2837.41 1556)">
   <path d="M39.7724 35.1919L107.573 35.1919C122.676 35.1919 131.282 26.5843 131.282 11.4202L131.282-14.4373L111.282-14.4373L111.282 8.68947C111.282 13.0054 109.35 15.2108 104.738 15.2108L42.628 15.2108C37.9952 15.2108 36.065 13.0054 36.065 8.68947L36.065-79.1073C36.065-83.4232 37.9952-85.6286 42.628-85.6286L104.738-85.6286C109.35-85.6286 111.282-83.4232 111.282-79.1073L111.282-56.1021L131.282-56.1021L131.282-81.838C131.282-96.9813 122.676-105.61 107.573-105.61L39.7724-105.61C24.6707-105.61 16.084-96.9813 16.084-81.838L16.084 11.4202C16.084 26.5843 24.6707 35.1919 39.7724 35.1919ZM77.098-35.2697C77.098-30.3782 81.1029-26.585 85.7036-26.585L145.962-26.585L155.109-27.3535L150.167-24.7905L143.314-18.3792C141.791-16.9357 140.883-14.978 140.883-12.8075C140.883-9.02817 143.771-5.39738 147.999-5.39738C150.152-5.39738 151.674-6.20878 153.139-7.67314L172.809-28.2142C175.058-30.5211 175.886-32.9032 175.886-35.2697C175.886-37.6362 175.058-40.0183 172.809-42.3252L153.139-62.8675C151.674-64.3318 150.152-65.1432 147.999-65.1432C143.771-65.1432 140.883-61.5344 140.883-57.7539C140.883-55.5834 141.791-53.6049 143.314-52.1614L150.167-45.7501L155.11-43.1859L145.962-43.9544L85.7036-43.9544C81.1029-43.9544 77.098-40.1612 77.098-35.2697Z"/>
  </g>
  <g id="Heavy-L" transform="matrix(1 0 0 1 2542.4 1556)">
   <path d="M38.7107 34.4871L106.333 34.4871C120.891 34.4871 128.99 26.3825 128.99 11.7397L128.99-15.5434L111.465-15.5434L111.465 9.61542C111.465 14.4531 109.165 16.9867 104.058 16.9867L41.0161 16.9867C35.8791 16.9867 33.5844 14.4531 33.5844 9.61542L33.5844-80.0431C33.5844-84.8809 35.8791-87.4144 41.0161-87.4144L104.058-87.4144C109.165-87.4144 111.465-84.8809 111.465-80.0431L111.465-54.996L128.99-54.996L128.99-82.1674C128.99-96.78 120.891-104.915 106.333-104.915L38.7107-104.915C24.1584-104.915 16.084-96.78 16.084-82.1674L16.084 11.7397C16.084 26.3825 24.1584 34.4871 38.7107 34.4871ZM75.3885-35.2697C75.3885-30.943 78.9428-27.5314 83.0521-27.5314L144.359-27.5314L153.549-28.209L148.863-25.374L141.096-18.0873C139.714-16.78 138.906-15.0038 138.906-13.0793C138.906-9.61165 141.526-6.3956 145.332-6.3956C147.266-6.3956 148.648-7.13915 149.986-8.47663L169.767-29.0756C171.761-31.114 172.489-33.1811 172.489-35.2697C172.489-37.3583 171.761-39.4254 169.767-41.4638L149.986-62.0684C148.648-63.4059 147.266-64.1494 145.332-64.1494C141.526-64.1494 138.906-60.9692 138.906-57.4959C138.906-55.5714 139.714-53.765 141.096-52.4577L148.863-45.1711L153.554-42.3305L144.359-43.008L83.0521-43.008C78.9428-43.008 75.3885-39.5964 75.3885-35.2697Z"/>
  </g>
  <g id="Bold-L" transform="matrix(1 0 0 1 2247.79 1556)">
   <path d="M37.3893 33.656L104.864 33.656C118.716 33.656 126.207 26.1514 126.207 12.1987L126.207-17.0751L111.74-17.0751L111.74 10.7529C111.74 16.2734 108.979 19.2142 103.228 19.2142L39.063 19.2142C33.2738 19.2142 30.5257 16.2734 30.5257 10.7529L30.5257-81.181C30.5257-86.7015 33.2738-89.6423 39.063-89.6423L103.228-89.6423C108.979-89.6423 111.74-86.7015 111.74-81.181L111.74-53.4643L126.207-53.4643L126.207-82.6268C126.207-96.5415 118.716-104.084 104.864-104.084L37.3893-104.084C23.5506-104.084 16.084-96.5415 16.084-82.6268L16.084 12.1987C16.084 26.1514 23.5506 33.656 37.3893 33.656ZM73.3424-35.2697C73.3424-31.6497 76.3284-28.7293 79.8156-28.7293L142.57-28.7293L151.776-29.2917L147.324-26.0963L138.39-17.6591C137.192-16.5283 136.507-14.9899 136.507-13.3727C136.507-10.334 138.782-7.63269 142.042-7.63269C143.693-7.63269 144.891-8.28428 146.06-9.45308L166.025-30.1437C167.696-31.8441 168.301-33.5269 168.301-35.2697C168.301-37.0125 167.696-38.6953 166.025-40.3957L146.06-61.0996C144.891-62.2684 143.693-62.9199 142.042-62.9199C138.782-62.9199 136.507-60.2699 136.507-57.218C136.507-55.6007 137.192-54.0244 138.39-52.8936L147.324-44.4564L151.79-41.2477L142.57-41.8101L79.8156-41.8101C76.3284-41.8101 73.3424-38.8897 73.3424-35.2697Z"/>
  </g>
  <g id="Semibold-L" transform="matrix(1 0 0 1 1952.52 1556)">
   <path d="M36.4783 33.083L103.85 33.083C117.216 33.083 124.288 25.9921 124.288 12.5152L124.288-18.1311L111.93-18.1311L111.93 11.5371C111.93 17.5283 108.851 20.7498 102.656 20.7498L37.7165 20.7498C31.4776 20.7498 28.4171 17.5283 28.4171 11.5371L28.4171-81.9655C28.4171-87.9566 31.4776-91.1782 37.7165-91.1782L102.656-91.1782C108.851-91.1782 111.93-87.9566 111.93-81.9655L111.93-52.4083L124.288-52.4083L124.288-82.9435C124.288-96.377 117.216-103.511 103.85-103.511L36.4783-103.511C23.1315-103.511 16.084-96.377 16.084-82.9435L16.084 12.5152C16.084 25.9921 23.1315 33.083 36.4783 33.083ZM71.9318-35.2697C71.9318-32.1369 74.526-29.5551 77.5845-29.5551L141.337-29.5551L150.555-30.0381L146.263-26.5942L136.524-17.3639C135.453-16.3547 134.853-14.9803 134.853-13.5749C134.853-10.8319 136.89-8.48554 139.775-8.48554C141.23-8.48554 142.301-9.07373 143.353-10.1262L163.444-30.88C164.893-32.3474 165.413-33.7652 165.413-35.2697C165.413-36.7742 164.893-38.192 163.444-39.6594L143.353-60.4317C142.301-61.4842 141.23-62.0723 139.775-62.0723C136.89-62.0723 134.853-59.7878 134.853-57.0264C134.853-55.621 135.453-54.2032 136.524-53.194L146.263-43.9637L150.573-40.5013L141.337-40.9843L77.5845-40.9843C74.526-40.9843 71.9318-38.4025 71.9318-35.2697Z"/>
  </g>
  <g id="Medium-L" transform="matrix(1 0 0 1 1656.9 1556)">
   <path d="M35.7875 32.6485L103.082 32.6485C116.078 32.6485 122.833 25.8713 122.833 12.7552L122.833-18.9318L112.074-18.9318L112.074 12.1317C112.074 18.4798 108.754 21.9142 102.222 21.9142L36.6956 21.9142C30.1158 21.9142 26.8183 18.4798 26.8183 12.1317L26.8183-82.5603C26.8183-88.9083 30.1158-92.3427 36.6956-92.3427L102.222-92.3427C108.754-92.3427 112.074-88.9083 112.074-82.5603L112.074-51.6076L122.833-51.6076L122.833-83.1837C122.833-96.2524 116.078-103.077 103.082-103.077L35.7875-103.077C22.8138-103.077 16.084-96.2524 16.084-83.1837L16.084 12.7552C16.084 25.8713 22.8138 32.6485 35.7875 32.6485ZM70.8622-35.2697C70.8622-32.5063 73.1594-30.1813 75.8927-30.1813L140.401-30.1813L149.628-30.6041L145.458-26.9718L135.11-17.14C134.135-16.2231 133.599-14.973 133.599-13.7282C133.599-11.2095 135.455-9.1322 138.055-9.1322C139.362-9.1322 140.337-9.67232 141.301-10.6367L161.488-31.4383C162.768-32.729 163.224-33.946 163.224-35.2697C163.224-36.5935 162.768-37.8104 161.488-39.1011L141.301-59.9252C140.337-60.8895 139.362-61.4297 138.055-61.4297C135.455-61.4297 133.599-59.4223 133.599-56.8811C133.599-55.6363 134.135-54.3387 135.11-53.4218L145.458-43.5901L149.651-39.9353L140.401-40.3581L75.8927-40.3581C73.1594-40.3581 70.8622-38.0331 70.8622-35.2697Z"/>
  </g>
  <g id="Regular-L" transform="matrix(1 0 0 1 1361.62 1556)">
   <path d="M34.8866 32.0818L102.08 32.0818C114.595 32.0818 120.935 25.7137 120.935 13.0682L120.935-19.9762L112.262-19.9762L112.262 12.9073C112.262 19.7209 108.627 23.4329 101.655 23.4329L35.364 23.4329C28.3394 23.4329 24.7328 19.7209 24.7328 12.9073L24.7328-83.3361C24.7328-90.1496 28.3394-93.8617 35.364-93.8617L101.655-93.8617C108.627-93.8617 112.262-90.1496 112.262-83.3361L112.262-50.5632L120.935-50.5632L120.935-83.4969C120.935-96.0897 114.595-102.511 102.08-102.511L34.8866-102.511C22.3993-102.511 16.084-96.0897 16.084-83.4969L16.084 13.0682C16.084 25.7137 22.3993 32.0818 34.8866 32.0818ZM69.4671-35.2697C69.4671-32.9881 71.3768-30.998 73.686-30.998L139.182-30.998L148.42-31.3423L144.409-27.4643L133.265-16.848C132.416-16.0515 131.963-14.9635 131.963-13.9282C131.963-11.702 133.584-9.97568 135.813-9.97568C136.926-9.97568 137.775-10.4531 138.625-11.3024L158.936-32.1665C159.996-33.2268 160.368-34.1817 160.368-35.2697C160.368-36.3577 159.996-37.3126 158.936-38.3729L138.625-59.2647C137.775-60.114 136.926-60.5914 135.813-60.5914C133.584-60.5914 131.963-58.9455 131.963-56.6916C131.963-55.6563 132.416-54.5156 133.265-53.719L144.409-43.1028L148.448-39.1971L139.182-39.5414L73.686-39.5414C71.3768-39.5414 69.4671-37.5513 69.4671-35.2697Z"/>
  </g>
  <g id="Light-L" transform="matrix(1 0 0 1 1066.29 1556)">
   <path d="M33.9323 31.7764L101.488 31.7764C113.316 31.7764 119.37 25.6755 119.37 13.7934L119.37-22.0756L112.758-22.0756L112.758 13.6326C112.758 21.1523 108.78 25.1506 101.159 25.1506L34.2952 25.1506C26.6408 25.1506 22.7098 21.1523 22.7098 13.6326L22.7098-83.985C22.7098-91.5047 26.6408-95.503 34.2952-95.503L101.159-95.503C108.78-95.503 112.758-91.5047 112.758-83.985L112.758-48.4638L119.37-48.4638L119.37-84.1458C119.37-95.9943 113.316-102.129 101.488-102.129L33.9323-102.129C22.1512-102.129 16.084-95.9943 16.084-84.1458L16.084 13.7934C16.084 25.6755 22.1512 31.7764 33.9323 31.7764ZM68.5129-35.2697C68.5129-33.5225 69.9645-31.9905 71.7584-31.9905L139.22-31.9905L148.229-32.2393L143.836-27.9605L131.662-16.1228C131.003-15.498 130.627-14.6581 130.627-13.8519C130.627-12.1982 131.924-10.8345 133.637-10.8345C134.464-10.8345 135.122-11.1974 135.781-11.8559L156.512-32.9108C157.305-33.704 157.601-34.4298 157.601-35.2697C157.601-36.1096 157.305-36.8354 156.512-37.6286L135.781-58.7303C135.122-59.3887 134.464-59.7516 133.637-59.7516C131.924-59.7516 130.627-58.4684 130.627-56.7679C130.627-55.9617 131.003-55.0881 131.662-54.4633L143.836-42.6257L148.276-38.3001L139.22-38.5489L71.7584-38.5489C69.9645-38.5489 68.5129-37.0169 68.5129-35.2697Z"/>
  </g>
  <g id="Thin-L" transform="matrix(1 0 0 1 771.41 1556)">
   <path d="M32.6702 31.3726L100.706 31.3726C111.625 31.3726 117.301 25.6251 117.301 14.7526L117.301-24.8522L113.414-24.8522L113.414 14.5918C113.414 23.0454 108.982 27.4224 100.503 27.4224L32.8817 27.4224C24.3943 27.4224 20.0342 23.0454 20.0342 14.5918L20.0342-84.8432C20.0342-93.2969 24.3943-97.6738 32.8817-97.6738L100.503-97.6738C108.982-97.6738 113.414-93.2969 113.414-84.8432L113.414-45.6872L117.301-45.6872L117.301-85.0041C117.301-95.8681 111.625-101.624 100.706-101.624L32.6702-101.624C21.823-101.624 16.084-95.8681 16.084-85.0041L16.084 14.7526C16.084 25.6251 21.823 31.3726 32.6702 31.3726ZM67.2508-35.2697C67.2508-34.2293 68.0966-33.303 69.209-33.303L139.27-33.303L147.977-33.4256L143.079-28.6168L129.541-15.1636C129.135-14.766 128.86-14.2542 128.86-13.7509C128.86-12.8545 129.728-11.9704 130.759-11.9704C131.208-11.9704 131.614-12.1819 132.02-12.5879L153.306-33.8952C153.746-34.335 153.941-34.7579 153.941-35.2697C153.941-35.7815 153.746-36.2044 153.306-36.6442L132.02-58.0235C131.614-58.4295 131.208-58.641 130.759-58.641C129.728-58.641 128.86-57.8373 128.86-56.8689C128.86-56.3656 129.135-55.8454 129.541-55.4478L143.079-41.9946L148.049-37.1138L139.27-37.2364L69.209-37.2364C68.0966-37.2364 67.2508-36.3101 67.2508-35.2697Z"/>
  </g>
  <g id="Ultralight-L" transform="matrix(1 0 0 1 475.636 1556)">
   <path d="M32.0238 31.1657L100.305 31.1657C110.759 31.1657 116.24 25.5992 116.24 15.2439L116.24-26.2743L113.75-26.2743L113.75 15.083C113.75 24.015 109.085 28.5859 100.167 28.5859L32.1576 28.5859C23.2436 28.5859 18.6637 24.015 18.6637 15.083L18.6637-85.2828C18.6637-94.2148 23.2436-98.7857 32.1576-98.7857L100.167-98.7857C109.085-98.7857 113.75-94.2148 113.75-85.2828L113.75-44.2651L116.24-44.2651L116.24-85.4436C116.24-95.8034 110.759-101.365 100.305-101.365L32.0238-101.365C21.655-101.365 16.084-95.8034 16.084-85.4436L16.084 15.2439C16.084 25.5992 21.655 31.1657 32.0238 31.1657ZM66.6043-35.2697C66.6043-34.5913 67.1399-33.9753 67.9032-33.9753L139.296-33.9753L147.847-34.0333L142.691-28.9529L128.455-14.6723C128.179-14.3911 127.955-14.0474 127.955-13.6992C127.955-13.1906 128.603-12.5522 129.286-12.5522C129.54-12.5522 129.817-12.6861 130.093-12.9628L151.664-34.3995C151.923-34.6582 152.066-34.926 152.066-35.2697C152.066-35.6134 151.923-35.8812 151.664-36.14L130.093-57.6615C129.817-57.9382 129.54-58.0721 129.286-58.0721C128.603-58.0721 127.955-57.5141 127.955-56.9206C127.955-56.5724 128.179-56.2332 128.455-55.952L142.691-41.6714L147.932-36.5061L139.296-36.5641L67.9032-36.5641C67.1399-36.5641 66.6043-35.9481 66.6043-35.2697Z"/>
  </g>
  <g id="Black-M" transform="matrix(1 0 0 1 2857.76 1126)">
   <path d="M31.5964 19.8932L84.3265 19.8932C96.4026 19.8932 103.467 12.8285 103.467 0.735696L103.467-18.4547L86.1238-18.4547L86.1238-1.90115C86.1238 1.08981 84.898 2.55522 81.6622 2.55522L34.2662 2.55522C31.0249 2.55522 29.7989 1.08981 29.7989-1.90115L29.7989-68.5071C29.7989-71.498 31.0249-72.9634 34.2662-72.9634L81.6622-72.9634C84.898-72.9634 86.1238-71.498 86.1238-68.5071L86.1238-52.0666L103.467-52.0666L103.467-71.1439C103.467-83.2313 96.4026-90.3014 84.3265-90.3014L31.5964-90.3014C19.5201-90.3014 12.4609-83.2313 12.4609-71.1439L12.4609 0.735696C12.4609 12.8285 19.5201 19.8932 31.5964 19.8932ZM61.071-35.2606C61.071-31.0581 64.4989-27.8533 68.4158-27.8533L114.467-27.8533L121.485-28.514L117.384-26.7077L112.72-22.3275C111.446-21.1153 110.666-19.4762 110.666-17.6143C110.666-14.496 113.09-11.3758 116.659-11.3758C118.475-11.3758 119.75-12.0472 120.967-13.2649L136.169-29.1549C138.094-31.1368 138.811-33.2219 138.811-35.2606C138.811-37.2994 138.094-39.3845 136.169-41.3663L120.967-57.2561C119.75-58.4738 118.475-59.1452 116.659-59.1452C113.09-59.1452 110.666-56.0302 110.666-52.9122C110.666-51.0503 111.446-49.4057 112.72-48.1936L117.384-43.8133L121.485-42.0073L114.467-42.668L68.4158-42.668C64.4989-42.668 61.071-39.4632 61.071-35.2606Z"/>
  </g>
  <g id="Heavy-M" transform="matrix(1 0 0 1 2562.59 1126)">
   <path d="M30.6466 19.2324L83.1692 19.2324C94.776 19.2324 101.371 12.6348 101.371 0.981078L101.371-19.3423L86.2576-19.3423L86.2576-1.06288C86.2576 2.37302 84.7029 4.13281 81.0432 4.13281L32.7891 4.13281C29.113 4.13281 27.5605 2.37302 27.5605-1.06288L27.5605-69.3621C27.5605-72.798 29.113-74.5578 32.7891-74.5578L81.0432-74.5578C84.7029-74.5578 86.2576-72.798 86.2576-69.3621L86.2576-51.179L101.371-51.179L101.371-71.406C101.371-83.0433 94.776-89.6574 83.1692-89.6574L30.6466-89.6574C19.0422-89.6574 12.4609-83.0433 12.4609-71.406L12.4609 0.981078C12.4609 12.6348 19.0422 19.2324 30.6466 19.2324ZM59.4879-35.2606C59.4879-31.5608 62.5176-28.6869 66.0016-28.6869L112.895-28.6869L119.977-29.2675L116.162-27.2323L110.7-22.109C109.545-21.0142 108.856-19.5297 108.856-17.8871C108.856-15.0206 111.048-12.2724 114.252-12.2724C115.881-12.2724 117.036-12.888 118.148-13.9993L133.419-29.9284C135.119-31.6724 135.745-33.4708 135.745-35.2606C135.745-37.0505 135.119-38.8489 133.419-40.5929L118.148-56.5243C117.036-57.6355 115.881-58.2512 114.252-58.2512C111.048-58.2512 108.856-55.5216 108.856-52.6529C108.856-51.0103 109.545-49.5094 110.7-48.4145L116.162-43.2912L119.979-41.2538L112.895-41.8344L66.0016-41.8344C62.5176-41.8344 59.4879-38.9604 59.4879-35.2606Z"/>
  </g>
  <g id="Bold-M" transform="matrix(1 0 0 1 2267.59 1126)">
   <path d="M29.5842 18.4933L81.8747 18.4933C92.9564 18.4933 99.0265 12.418 99.0265 1.25557L99.0265-20.3352L86.4073-20.3352L86.4073-0.125156C86.4073 3.80849 84.4846 5.89757 80.3509 5.89757L31.1366 5.89757C26.9743 5.89757 25.0566 3.80849 25.0566-0.125156L25.0566-70.3185C25.0566-74.2521 26.9743-76.3412 31.1366-76.3412L80.3509-76.3412C84.4846-76.3412 86.4073-74.2521 86.4073-70.3185L86.4073-50.186L99.0265-50.186L99.0265-71.6992C99.0265-82.8331 92.9564-88.9369 81.8747-88.9369L29.5842-88.9369C18.5076-88.9369 12.4609-82.8331 12.4609-71.6992L12.4609 1.25557C12.4609 12.418 18.5076 18.4933 29.5842 18.4933ZM57.7169-35.2606C57.7169-32.1233 60.3012-29.6195 63.3009-29.6195L111.138-29.6195L118.29-30.1104L114.795-27.8192L108.44-21.8647C107.419-20.9011 106.832-19.5894 106.832-18.1922C106.832-15.6075 108.765-13.2753 111.559-13.2753C112.98-13.2753 114.001-13.8286 114.993-14.8208L130.342-30.7936C131.791-32.2714 132.316-33.7491 132.316-35.2606C132.316-36.7722 131.791-38.2498 130.342-39.7277L114.993-55.7056C114.001-56.6978 112.98-57.2511 111.559-57.2511C108.765-57.2511 106.832-54.9527 106.832-52.3629C106.832-50.9656 107.419-49.6253 108.44-48.6617L114.795-42.7072L118.295-40.4109L111.138-40.9018L63.3009-40.9018C60.3012-40.9018 57.7169-38.398 57.7169-35.2606Z"/>
  </g>
  <g id="Semibold-M" transform="matrix(1 0 0 1 1972.06 1126)">
   <path d="M28.8517 17.9837L80.9823 17.9837C91.702 17.9837 97.41 12.2686 97.41 1.44481L97.41-21.0198L86.5106-21.0198L86.5106 0.521307C86.5106 4.79809 84.3341 7.11419 79.8735 7.11419L29.9974 7.11419C25.4999 7.11419 23.3305 4.79809 23.3305 0.521307L23.3305-70.9779C23.3305-75.2546 25.4999-77.5707 29.9974-77.5707L79.8735-77.5707C84.3341-77.5707 86.5106-75.2546 86.5106-70.9779L86.5106-49.5015L97.41-49.5015L97.41-71.9014C97.41-82.6881 91.702-88.4403 80.9823-88.4403L28.8517-88.4403C18.139-88.4403 12.4609-82.6881 12.4609-71.9014L12.4609 1.44481C12.4609 12.2686 18.139 17.9837 28.8517 17.9837ZM56.4961-35.2606C56.4961-32.511 58.7732-30.2624 61.4391-30.2624L109.926-30.2624L117.128-30.6915L113.852-28.2238L106.882-21.6962C105.954-20.8231 105.437-19.6306 105.437-18.4025C105.437-16.0121 107.19-13.9668 109.703-13.9668C110.98-13.9668 111.908-14.477 112.818-15.3872L128.221-31.3901C129.497-32.6844 129.952-33.941 129.952-35.2606C129.952-36.5803 129.497-37.8368 128.221-39.1312L112.818-55.1412C111.908-56.0513 110.98-56.5616 109.703-56.5616C107.19-56.5616 105.437-54.5605 105.437-52.1629C105.437-50.9348 105.954-49.7053 106.882-48.8322L113.852-42.3046L117.135-39.8298L109.926-40.2589L61.4391-40.2589C58.7732-40.2589 56.4961-38.0103 56.4961-35.2606Z"/>
  </g>
  <g id="Medium-M" transform="matrix(1 0 0 1 1676.25 1126)">
   <path d="M28.2963 17.5974L80.3056 17.5974C90.7509 17.5974 96.1843 12.1553 96.1843 1.5883L96.1843-21.5388L86.5888-21.5388L86.5888 1.01148C86.5888 5.54844 84.22 8.03668 79.5116 8.03668L29.1337 8.03668C24.3819 8.03668 22.0216 5.54844 22.0216 1.01148L22.0216-71.4778C22.0216-76.0148 24.3819-78.503 29.1337-78.503L79.5116-78.503C84.22-78.503 86.5888-76.0148 86.5888-71.4778L86.5888-48.9825L96.1843-48.9825L96.1843-72.0546C96.1843-82.5782 90.7509-88.0637 80.3056-88.0637L28.2963-88.0637C17.8596-88.0637 12.4609-82.5782 12.4609-72.0546L12.4609 1.5883C12.4609 12.1553 17.8596 17.5974 28.2963 17.5974ZM55.5703-35.2606C55.5703-32.805 57.6146-30.7498 60.0274-30.7498L109.007-30.7498L116.246-31.132L113.138-28.5305L105.7-21.5685C104.842-20.764 104.379-19.6618 104.379-18.562C104.379-16.3188 105.996-14.4911 108.296-14.4911C109.463-14.4911 110.322-14.9687 111.169-15.8166L126.613-31.8424C127.758-32.9976 128.159-34.0865 128.159-35.2606C128.159-36.4348 127.758-37.5237 126.613-38.6789L111.169-54.7133C110.322-55.5612 109.463-56.0388 108.296-56.0388C105.996-56.0388 104.379-54.2631 104.379-52.0113C104.379-50.9115 104.842-49.7659 105.7-48.9614L113.138-41.9993L116.254-39.3892L109.007-39.7715L60.0274-39.7715C57.6146-39.7715 55.5703-37.7163 55.5703-35.2606Z"/>
  </g>
  <g id="Regular-M" transform="matrix(1 0 0 1 1380.7 1126)">
   <path d="M27.5719 17.0934L79.4229 17.0934C89.5103 17.0934 94.5856 12.0075 94.5856 1.77545L94.5856-22.2158L86.6909-22.2158L86.6909 1.65084C86.6909 6.52717 84.0711 9.23993 79.0395 9.23993L28.007 9.23993C22.9237 9.23993 20.3144 6.52717 20.3144 1.65084L20.3144-72.1299C20.3144-77.0063 22.9237-79.719 28.007-79.719L79.0395-79.719C84.0711-79.719 86.6909-77.0063 86.6909-72.1299L86.6909-48.3055L94.5856-48.3055L94.5856-72.2545C94.5856-82.4348 89.5103-87.5725 79.4229-87.5725L27.5719-87.5725C17.4951-87.5725 12.4609-82.4348 12.4609-72.2545L12.4609 1.77545C12.4609 12.0075 17.4951 17.0934 27.5719 17.0934ZM54.3629-35.2606C54.3629-33.1885 56.1034-31.3857 58.1861-31.3857L107.808-31.3857L115.096-31.7067L112.206-28.9307L104.159-21.4019C103.393-20.6869 102.999-19.7026 102.999-18.77C102.999-16.719 104.439-15.1749 106.46-15.1749C107.485-15.1749 108.252-15.61 109.019-16.3768L124.515-32.4323C125.489-33.4061 125.821-34.2763 125.821-35.2606C125.821-36.245 125.489-37.1152 124.515-38.089L109.019-54.1551C108.252-54.9218 107.485-55.3569 106.46-55.3569C104.439-55.3569 102.999-53.8752 102.999-51.8136C102.999-50.881 103.393-49.8449 104.159-49.1299L112.206-41.6012L115.106-38.8146L107.808-39.1356L58.1861-39.1356C56.1034-39.1356 54.3629-37.3328 54.3629-35.2606Z"/>
  </g>
  <g id="Light-M" transform="matrix(1 0 0 1 1085.23 1126)">
   <path d="M26.7163 16.8196L78.8925 16.8196C88.3638 16.8196 93.1825 11.9733 93.1825 2.42567L93.1825-24.098L87.1358-24.098L87.1358 2.30106C87.1358 7.81049 84.208 10.7799 78.5947 10.7799L27.0488 10.7799C21.4008 10.7799 18.5006 7.81049 18.5006 2.30106L18.5006-72.7117C18.5006-78.2211 21.4008-81.1906 27.0488-81.1906L78.5947-81.1906C84.208-81.1906 87.1358-78.2211 87.1358-72.7117L87.1358-46.4233L93.1825-46.4233L93.1825-72.8363C93.1825-82.3493 88.3638-87.2303 78.8925-87.2303L26.7163-87.2303C17.2726-87.2303 12.4609-82.3493 12.4609-72.8363L12.4609 2.42567C12.4609 11.9733 17.2726 16.8196 26.7163 16.8196ZM53.5073-35.2606C53.5073-33.6676 54.8372-32.2754 56.4579-32.2754L107.842-32.2754L114.925-32.511L111.692-29.3756L102.722-20.7517C102.126-20.1907 101.801-19.4288 101.801-18.7016C101.801-17.1638 102.951-15.9449 104.509-15.9449C105.278-15.9449 105.874-16.2774 106.469-16.873L122.342-33.0996C123.077-33.8338 123.34-34.4988 123.34-35.2606C123.34-36.0225 123.077-36.6875 122.342-37.4217L106.469-53.676C105.874-54.2716 105.278-54.6041 104.509-54.6041C102.951-54.6041 101.801-53.4474 101.801-51.882C101.801-51.1548 102.126-50.3583 102.722-49.7973L111.692-41.1734L114.952-38.0103L107.842-38.2459L56.4579-38.2459C54.8372-38.2459 53.5073-36.8537 53.5073-35.2606Z"/>
  </g>
  <g id="Thin-M" transform="matrix(1 0 0 1 790.163 1126)">
   <path d="M25.5848 16.4575L78.1909 16.4575C86.8476 16.4575 91.3268 11.928 91.3268 3.28563L91.3268-26.5874L87.7242-26.5874L87.7242 3.16102C87.7242 9.50778 84.3891 12.8167 78.0063 12.8167L25.7815 12.8167C19.3867 12.8167 16.1018 9.50778 16.1018 3.16102L16.1018-73.4811C16.1018-79.8279 19.3867-83.1368 25.7815-83.1368L78.0063-83.1368C84.3891-83.1368 87.7242-79.8279 87.7242-73.4811L87.7242-43.9339L91.3268-43.9339L91.3268-73.6057C91.3268-82.2361 86.8476-86.7776 78.1909-86.7776L25.5848-86.7776C16.9784-86.7776 12.4609-82.2361 12.4609-73.6057L12.4609 3.28563C12.4609 11.928 16.9784 16.4575 25.5848 16.4575ZM52.3758-35.2606C52.3758-34.3013 53.1625-33.4522 54.1722-33.4522L107.888-33.4522L114.698-33.5746L111.013-29.964L100.821-19.8917C100.452-19.5344 100.217-19.0667 100.217-18.611C100.217-17.7522 100.982-16.9633 101.929-16.9633C102.359-16.9633 102.728-17.1599 103.097-17.5293L119.468-33.9822C119.886-34.3996 120.058-34.793 120.058-35.2606C120.058-35.7283 119.886-36.1217 119.468-36.5391L103.097-53.0423C102.728-53.4116 102.359-53.6083 101.929-53.6083C100.982-53.6083 100.217-52.8817 100.217-51.9726C100.217-51.5169 100.452-51.0372 100.821-50.6799L111.013-40.6076L114.749-36.9467L107.888-37.0691L54.1722-37.0691C53.1625-37.0691 52.3758-36.22 52.3758-35.2606Z"/>
  </g>
  <g id="Ultralight-M" transform="matrix(1 0 0 1 494.292 1126)">
   <path d="M25.0052 16.2721L77.8316 16.2721C86.071 16.2721 90.3763 11.9048 90.3763 3.7261L90.3763-27.8624L88.0256-27.8624L88.0256 3.60149C88.0256 10.3771 84.4818 13.8599 77.7049 13.8599L25.1324 13.8599C18.355 13.8599 14.8731 10.3771 14.8731 3.60149L14.8731-73.8752C14.8731-80.6509 18.355-84.1336 25.1324-84.1336L77.7049-84.1336C84.4818-84.1336 88.0256-80.6509 88.0256-73.8752L88.0256-42.6589L90.3763-42.6589L90.3763-73.9999C90.3763-82.1782 86.071-86.5458 77.8316-86.5458L25.0052-86.5458C16.8277-86.5458 12.4609-82.1782 12.4609-73.9999L12.4609 3.7261C12.4609 11.9048 16.8277 16.2721 25.0052 16.2721ZM51.7962-35.2606C51.7962-34.6258 52.3048-34.055 53.0015-34.055L107.911-34.055L114.583-34.1194L110.666-30.2653L99.8475-19.4512C99.594-19.1982 99.4054-18.8812 99.4054-18.5647C99.4054-18.0536 99.9733-17.4849 100.608-17.4849C100.863-17.4849 101.117-17.612 101.37-17.8654L117.996-34.4343C118.251-34.6894 118.378-34.9437 118.378-35.2606C118.378-35.5776 118.251-35.8319 117.996-36.087L101.37-52.7177C101.117-52.9712 100.863-53.0983 100.608-53.0983C99.9733-53.0983 99.4054-52.5919 99.4054-52.0189C99.4054-51.7023 99.594-51.3849 99.8475-51.1319L110.666-40.3178L114.644-36.4019L107.911-36.4663L53.0015-36.4663C52.3048-36.4663 51.7962-35.8955 51.7962-35.2606Z"/>
  </g>
  <g id="Black-S" transform="matrix(1 0 0 1 2873.73 696)">
   <path d="M25 8.1543L66.4062 8.1543C75.9766 8.1543 81.6406 2.49023 81.6406-7.08008L81.6406-21.9238L67.4805-21.9238L67.4805-9.32617C67.4805-7.08008 66.6016-6.00586 64.1602-6.00586L27.2461-6.00586C24.8047-6.00586 23.9258-7.08008 23.9258-9.32617L23.9258-61.084C23.9258-63.3301 24.8047-64.4043 27.2461-64.4043L64.1602-64.4043C66.6016-64.4043 67.4805-63.3301 67.4805-61.084L67.4805-48.584L81.6406-48.584L81.6406-63.3301C81.6406-72.9004 75.9766-78.5645 66.4062-78.5645L25-78.5645C15.4297-78.5645 9.76562-72.9004 9.76562-63.3301L9.76562-7.08008C9.76562 2.49023 15.4297 8.1543 25 8.1543ZM48.291-35.2539C48.291-31.8359 51.0742-29.248 54.248-29.248L90.1855-29.248L95.6543-29.7852L92.334-28.418L88.8672-25.1465C87.8418-24.1699 87.207-22.8516 87.207-21.3379C87.207-18.8477 89.1602-16.3086 92.041-16.3086C93.5059-16.3086 94.5312-16.8457 95.5078-17.8223L107.422-30.2734C108.984-31.8848 109.57-33.5938 109.57-35.2539C109.57-36.9141 108.984-38.623 107.422-40.2344L95.5078-52.6855C94.5312-53.6621 93.5059-54.1992 92.041-54.1992C89.1602-54.1992 87.207-51.6602 87.207-49.1699C87.207-47.6562 87.8418-46.3379 88.8672-45.3613L92.334-42.0898L95.6543-40.7227L90.1855-41.2598L54.248-41.2598C51.0742-41.2598 48.291-38.6719 48.291-35.2539Z"/>
  </g>
  <g id="Heavy-S" transform="matrix(1 0 0 1 2578.17 696)">
   <path d="M24.297 7.62417L65.4843 7.62417C74.7319 7.62417 80.0272 2.32889 80.0272-6.95331L80.0272-22.4424L67.5381-22.4424L67.5381-8.69233C67.5381-6.1466 66.4172-4.85341 63.6877-4.85341L26.1052-4.85341C23.3641-4.85341 22.2432-6.1466 22.2432-8.69233L22.2432-61.7409C22.2432-64.2866 23.3641-65.5798 26.1052-65.5798L63.6877-65.5798C66.4172-65.5798 67.5381-64.2866 67.5381-61.7409L67.5381-48.0654L80.0272-48.0654L80.0272-63.4799C80.0272-72.7506 74.7319-78.0574 65.4843-78.0574L24.297-78.0574C15.0494-78.0574 9.76562-72.7506 9.76562-63.4799L9.76562-6.95331C9.76562 2.32889 15.0494 7.62417 24.297 7.62417ZM47.0464-35.2539C47.0464-32.2047 49.5415-29.8473 52.4041-29.8473L88.8372-29.8473L94.3866-30.3268L91.3544-28.8098L87.3229-25.0428C86.3782-24.1469 85.8126-22.9322 85.8126-21.5799C85.8126-19.2395 87.6044-16.977 90.2317-16.977C91.5697-16.977 92.5145-17.4795 93.4219-18.387L105.347-30.8497C106.749-32.2881 107.265-33.7781 107.265-35.2539C107.265-36.7297 106.749-38.2197 105.347-39.6582L93.4219-52.1208C92.5145-53.0283 91.5697-53.5308 90.2317-53.5308C87.6044-53.5308 85.8126-51.2798 85.8126-48.9394C85.8126-47.5871 86.3782-46.3609 87.3229-45.465L91.3544-41.698L94.3866-40.181L88.8372-40.6605L52.4041-40.6605C49.5415-40.6605 47.0464-38.3031 47.0464-35.2539Z"/>
  </g>
  <g id="Bold-S" transform="matrix(1 0 0 1 2282.75 696)">
   <path d="M23.5107 7.03125L64.4531 7.03125C73.3398 7.03125 78.2227 2.14844 78.2227-6.81152L78.2227-23.0225L67.6025-23.0225L67.6025-7.9834C67.6025-5.10254 66.2109-3.56445 63.1592-3.56445L24.8291-3.56445C21.7529-3.56445 20.3613-5.10254 20.3613-7.9834L20.3613-62.4756C20.3613-65.3564 21.7529-66.8945 24.8291-66.8945L63.1592-66.8945C66.2109-66.8945 67.6025-65.3564 67.6025-62.4756L67.6025-47.4854L78.2227-47.4854L78.2227-63.6475C78.2227-72.583 73.3398-77.4902 64.4531-77.4902L23.5107-77.4902C14.624-77.4902 9.76562-72.583 9.76562-63.6475L9.76562-6.81152C9.76562 2.14844 14.624 7.03125 23.5107 7.03125ZM45.6543-35.2539C45.6543-32.6172 47.8271-30.5176 50.3418-30.5176L87.3291-30.5176L92.9688-30.9326L90.2588-29.248L85.5957-24.9268C84.7412-24.1211 84.2529-23.0225 84.2529-21.8506C84.2529-19.6777 85.8643-17.7246 88.208-17.7246C89.4043-17.7246 90.2588-18.1885 91.0889-19.0186L103.027-31.4941C104.248-32.7393 104.688-33.9844 104.688-35.2539C104.688-36.5234 104.248-37.7686 103.027-39.0137L91.0889-51.4893C90.2588-52.3193 89.4043-52.7832 88.208-52.7832C85.8643-52.7832 84.2529-50.8545 84.2529-48.6816C84.2529-47.5098 84.7412-46.3867 85.5957-45.5811L90.2588-41.2598L92.9688-39.5752L87.3291-39.9902L50.3418-39.9902C47.8271-39.9902 45.6543-37.8906 45.6543-35.2539Z"/>
  </g>
  <g id="Semibold-S" transform="matrix(1 0 0 1 1986.93 696)">
   <path d="M22.9687 6.62246L63.7422 6.62246C72.3801 6.62246 76.9785 2.02402 76.9785-6.71377L76.9785-23.4224L67.647-23.4224L67.647-7.49463C67.647-4.38271 66.0687-2.67578 62.7948-2.67578L23.9493-2.67578C20.6421-2.67578 19.0639-4.38271 19.0639-7.49463L19.0639-62.9821C19.0639-66.094 20.6421-67.801 23.9493-67.801L62.7948-67.801C66.0687-67.801 67.647-66.094 67.647-62.9821L67.647-47.0854L76.9785-47.0854L76.9785-63.763C76.9785-72.4675 72.3801-77.0992 63.7422-77.0992L22.9687-77.0992C14.3308-77.0992 9.76562-72.4675 9.76562-63.763L9.76562-6.71377C9.76562 2.02402 14.3308 6.62246 22.9687 6.62246ZM44.6945-35.2539C44.6945-32.9016 46.6452-30.9797 48.9199-30.9797L86.2894-30.9797L91.9912-31.3503L89.5034-29.5502L84.4049-24.8468C83.6126-24.1033 83.1776-23.0847 83.1776-22.0372C83.1776-19.9799 84.6646-18.24 86.8128-18.24C87.9113-18.24 88.7036-18.6772 89.4804-19.454L101.428-31.9385C102.524-33.0503 102.91-34.1266 102.91-35.2539C102.91-36.3813 102.524-37.4575 101.428-38.5693L89.4804-51.0538C88.7036-51.8306 87.9113-52.2678 86.8128-52.2678C84.6646-52.2678 83.1776-50.5612 83.1776-48.5039C83.1776-47.4564 83.6126-46.4045 84.4049-45.661L89.5034-40.9576L91.9912-39.1575L86.2894-39.5281L48.9199-39.5281C46.6452-39.5281 44.6945-37.6063 44.6945-35.2539Z"/>
  </g>
  <g id="Medium-S" transform="matrix(1 0 0 1 1690.89 696)">
   <path d="M22.5576 6.3125L63.2031 6.3125C71.6523 6.3125 76.0352 1.92969 76.0352-6.63965L76.0352-23.7256L67.6807-23.7256L67.6807-7.12402C67.6807-3.83691 65.9609-2.00195 62.5186-2.00195L23.2822-2.00195C19.7998-2.00195 18.0801-3.83691 18.0801-7.12402L18.0801-63.3662C18.0801-66.6533 19.7998-68.4883 23.2822-68.4883L62.5186-68.4883C65.9609-68.4883 67.6807-66.6533 67.6807-63.3662L67.6807-46.7822L76.0352-46.7822L76.0352-63.8506C76.0352-72.3799 71.6523-76.8027 63.2031-76.8027L22.5576-76.8027C14.1084-76.8027 9.76562-72.3799 9.76562-63.8506L9.76562-6.63965C9.76562 1.92969 14.1084 6.3125 22.5576 6.3125ZM43.9668-35.2539C43.9668-33.1172 45.749-31.3301 47.8418-31.3301L85.501-31.3301L91.25-31.667L88.9307-29.7793L83.502-24.7861C82.7568-24.0898 82.3623-23.1318 82.3623-22.1787C82.3623-20.209 83.7549-18.6309 85.7549-18.6309C86.7793-18.6309 87.5244-19.0479 88.2607-19.7842L100.215-32.2754C101.217-33.2861 101.562-34.2344 101.562-35.2539C101.562-36.2734 101.217-37.2217 100.215-38.2324L88.2607-50.7236C87.5244-51.46 86.7793-51.877 85.7549-51.877C83.7549-51.877 82.3623-50.3389 82.3623-48.3691C82.3623-47.416 82.7568-46.418 83.502-45.7217L88.9307-40.7285L91.25-38.8408L85.501-39.1777L47.8418-39.1777C45.749-39.1777 43.9668-37.3906 43.9668-35.2539Z"/>
  </g>
  <g id="Regular-S" transform="matrix(1 0 0 1 1395.06 696)">
   <path d="M22.0215 5.9082L62.5 5.9082C70.7031 5.9082 74.8047 1.80664 74.8047-6.54297L74.8047-24.1211L67.7246-24.1211L67.7246-6.64062C67.7246-3.125 65.8203-1.12305 62.1582-1.12305L22.4121-1.12305C18.7012-1.12305 16.7969-3.125 16.7969-6.64062L16.7969-63.8672C16.7969-67.3828 18.7012-69.3848 22.4121-69.3848L62.1582-69.3848C65.8203-69.3848 67.7246-67.3828 67.7246-63.8672L67.7246-46.3867L74.8047-46.3867L74.8047-63.9648C74.8047-72.2656 70.7031-76.416 62.5-76.416L22.0215-76.416C13.8184-76.416 9.76562-72.2656 9.76562-63.9648L9.76562-6.54297C9.76562 1.80664 13.8184 5.9082 22.0215 5.9082ZM43.0176-35.2539C43.0176-33.3984 44.5801-31.7871 46.4355-31.7871L84.4727-31.7871L90.2832-32.0801L88.1836-30.0781L82.3242-24.707C81.6406-24.0723 81.2988-23.1934 81.2988-22.3633C81.2988-20.5078 82.5684-19.1406 84.375-19.1406C85.3027-19.1406 85.9863-19.5312 86.6699-20.2148L98.6328-32.7148C99.5117-33.5938 99.8047-34.375 99.8047-35.2539C99.8047-36.1328 99.5117-36.9141 98.6328-37.793L86.6699-50.293C85.9863-50.9766 85.3027-51.3672 84.375-51.3672C82.5684-51.3672 81.2988-50.0488 81.2988-48.1934C81.2988-47.3633 81.6406-46.4355 82.3242-45.8008L88.1836-40.4297L90.2832-38.4277L84.4727-38.7207L46.4355-38.7207C44.5801-38.7207 43.0176-37.1094 43.0176-35.2539Z"/>
  </g>
  <g id="Light-S" transform="matrix(1 0 0 1 1099.45 696)">
   <path d="M21.2647 5.66602L62.0308 5.66602C69.689 5.66602 73.5635 1.77637 73.5635-5.96778L73.5635-25.7861L68.1182-25.7861L68.1182-6.06543C68.1182-1.98976 65.9414 0.239247 61.7647 0.239247L21.5645 0.239247C17.354 0.239247 15.1924-1.98976 15.1924-6.06543L15.1924-64.3818C15.1924-68.4575 17.354-70.6865 21.5645-70.6865L61.7647-70.6865C65.9414-70.6865 68.1182-68.4575 68.1182-64.3818L68.1182-44.7217L73.5635-44.7217L73.5635-64.4795C73.5635-72.1899 69.689-76.1133 62.0308-76.1133L21.2647-76.1133C13.6216-76.1133 9.76562-72.1899 9.76562-64.4795L9.76562-5.96778C9.76562 1.77637 13.6216 5.66602 21.2647 5.66602ZM42.2607-35.2539C42.2607-33.8223 43.46-32.5742 44.9068-32.5742L84.5029-32.5742L90.1318-32.7915L87.7295-30.4717L81.0527-24.1318C80.5205-23.6333 80.2393-22.9512 80.2393-22.3027C80.2393-20.9014 81.2515-19.8218 82.6494-19.8218C83.3501-19.8218 83.8823-20.1216 84.4146-20.6538L96.7105-33.3052C97.3775-33.9722 97.6099-34.5718 97.6099-35.2539C97.6099-35.936 97.3775-36.5356 96.7105-37.2026L84.4146-49.8691C83.8823-50.4014 83.3501-50.7012 82.6494-50.7012C81.2515-50.7012 80.2393-49.6704 80.2393-48.2539C80.2393-47.6055 80.5205-46.8896 81.0527-46.3911L87.7295-40.0513L90.147-37.7163L84.5029-37.9336L44.9068-37.9336C43.46-37.9336 42.2607-36.6856 42.2607-35.2539Z"/>
  </g>
  <g id="Thin-S" transform="matrix(1 0 0 1 804.186 696)">
   <path d="M20.2637 5.34571L61.4102 5.34571C68.3477 5.34571 71.9219 1.73633 71.9219-5.20704L71.9219-27.9883L68.6387-27.9883L68.6387-5.3047C68.6387-0.488302 66.1016 2.04099 61.2441 2.04099L20.4434 2.04099C15.5723 2.04099 13.0703-0.488302 13.0703-5.3047L13.0703-65.0625C13.0703-69.8789 15.5723-72.4082 20.4434-72.4082L61.2441-72.4082C66.1016-72.4082 68.6387-69.8789 68.6387-65.0625L68.6387-42.5196L71.9219-42.5196L71.9219-65.1601C71.9219-72.0898 68.3477-75.7129 61.4102-75.7129L20.2637-75.7129C13.3613-75.7129 9.76562-72.0898 9.76562-65.1601L9.76562-5.20704C9.76562 1.73633 13.3613 5.34571 20.2637 5.34571ZM41.2598-35.2539C41.2598-34.3828 41.9785-33.6152 42.8848-33.6152L84.543-33.6152L89.9316-33.7324L87.1289-30.9922L79.3711-23.3711C79.0391-23.0527 78.8379-22.6309 78.8379-22.2227C78.8379-21.4219 79.5098-20.7226 80.3672-20.7226C80.7676-20.7226 81.0996-20.9023 81.4317-21.2344L94.168-34.0859C94.5547-34.4726 94.7071-34.832 94.7071-35.2539C94.7071-35.6758 94.5547-36.0352 94.168-36.4219L81.4317-49.3086C81.0996-49.6406 80.7676-49.8203 80.3672-49.8203C79.5098-49.8203 78.8379-49.1699 78.8379-48.334C78.8379-47.9258 79.0391-47.4902 79.3711-47.1719L87.1289-39.5508L89.9668-36.7754L84.543-36.8926L42.8848-36.8926C41.9785-36.8926 41.2598-36.125 41.2598-35.2539Z"/>
  </g>
  <g id="Ultralight-S" transform="matrix(1 0 0 1 508.218 696)">
   <path d="M19.751 5.18165L61.0923 5.18165C67.6607 5.18165 71.0811 1.71582 71.0811-4.8174L71.0811-29.1162L68.9053-29.1162L68.9053-4.91505C68.9053 0.280735 66.1836 2.96384 60.9775 2.96384L19.8692 2.96384C14.6597 2.96384 11.9834 0.280735 11.9834-4.91505L11.9834-65.4111C11.9834-70.6069 14.6597-73.29 19.8692-73.29L60.9775-73.29C66.1836-73.29 68.9053-70.6069 68.9053-65.4111L68.9053-41.3916L71.0811-41.3916L71.0811-65.5088C71.0811-72.0386 67.6607-75.5078 61.0923-75.5078L19.751-75.5078C13.228-75.5078 9.76562-72.0386 9.76562-65.5088L9.76562-4.8174C9.76562 1.71582 13.228 5.18165 19.751 5.18165ZM40.7471-35.2539C40.7471-34.6699 41.2198-34.1484 41.8492-34.1484L84.5635-34.1484L89.8291-34.2143L86.8213-31.2588L78.5098-22.9815C78.2803-22.7554 78.1201-22.4668 78.1201-22.1816C78.1201-21.6885 78.6177-21.1841 79.1983-21.1841C79.4449-21.1841 79.6744-21.3022 79.9039-21.5317L92.8658-34.4858C93.1089-34.729 93.2203-34.9653 93.2203-35.2539C93.2203-35.5425 93.1089-35.7788 92.8658-36.022L79.9039-49.0215C79.6744-49.251 79.4449-49.3692 79.1983-49.3692C78.6177-49.3692 78.1201-48.9136 78.1201-48.375C78.1201-48.0898 78.2803-47.7978 78.5098-47.5718L86.8213-39.2944L89.8745-36.2935L84.5635-36.3594L41.8492-36.3594C41.2198-36.3594 40.7471-35.8379 40.7471-35.2539Z"/>
  </g>
 </g>
</svg>
