<?xml version="1.0" encoding="UTF-8"?>
<!--Generator: Apple Native CoreSVG 341-->
<!DOCTYPE svg
PUBLIC "-//W3C//DTD SVG 1.1//EN"
       "http://www.w3.org/Graphics/SVG/1.1/DTD/svg11.dtd">
<svg version="1.1" xmlns="http://www.w3.org/2000/svg" xmlns:xlink="http://www.w3.org/1999/xlink" viewBox="0 0 3300 2200">
 <g id="Notes">
  <rect height="2200" id="artboard" style="fill:white;opacity:1" width="3300" x="0" y="0"/>
  <line style="fill:none;stroke:black;opacity:1;stroke-width:0.5;" x1="263" x2="3036" y1="292" y2="292"/>
  <text style="stroke:none;fill:black;font-family:sans-serif;font-size:13;font-weight:bold;" transform="matrix(1 0 0 1 263 322)">Weight/Scale Variations</text>
  <text style="stroke:none;fill:black;font-family:sans-serif;font-size:13;text-anchor:middle;" transform="matrix(1 0 0 1 559.711 322)">Ultralight</text>
  <text style="stroke:none;fill:black;font-family:sans-serif;font-size:13;text-anchor:middle;" transform="matrix(1 0 0 1 856.422 322)">Thin</text>
  <text style="stroke:none;fill:black;font-family:sans-serif;font-size:13;text-anchor:middle;" transform="matrix(1 0 0 1 1153.13 322)">Light</text>
  <text style="stroke:none;fill:black;font-family:sans-serif;font-size:13;text-anchor:middle;" transform="matrix(1 0 0 1 1449.84 322)">Regular</text>
  <text style="stroke:none;fill:black;font-family:sans-serif;font-size:13;text-anchor:middle;" transform="matrix(1 0 0 1 1746.56 322)">Medium</text>
  <text style="stroke:none;fill:black;font-family:sans-serif;font-size:13;text-anchor:middle;" transform="matrix(1 0 0 1 2043.27 322)">Semibold</text>
  <text style="stroke:none;fill:black;font-family:sans-serif;font-size:13;text-anchor:middle;" transform="matrix(1 0 0 1 2339.98 322)">Bold</text>
  <text style="stroke:none;fill:black;font-family:sans-serif;font-size:13;text-anchor:middle;" transform="matrix(1 0 0 1 2636.69 322)">Heavy</text>
  <text style="stroke:none;fill:black;font-family:sans-serif;font-size:13;text-anchor:middle;" transform="matrix(1 0 0 1 2933.4 322)">Black</text>
  <line style="fill:none;stroke:black;opacity:1;stroke-width:0.5;" x1="263" x2="3036" y1="1903" y2="1903"/>
  <g transform="matrix(0.2 0 0 0.2 263 1933)">
   <path d="m46.2402 4.15039c21.7773 0 39.4531-17.627 39.4531-39.4043s-17.6758-39.4043-39.4531-39.4043c-21.7285 0-39.4043 17.627-39.4043 39.4043s17.6758 39.4043 39.4043 39.4043Zm0-7.42188c-17.6758 0-31.9336-14.3066-31.9336-31.9824s14.2578-31.9824 31.9336-31.9824 31.9824 14.3066 31.9824 31.9824-14.3066 31.9824-31.9824 31.9824Zm-17.9688-31.9824c0 2.14844 1.51367 3.61328 3.75977 3.61328h10.498v10.5957c0 2.19727 1.46484 3.71094 3.61328 3.71094 2.24609 0 3.71094-1.51367 3.71094-3.71094v-10.5957h10.5957c2.19727 0 3.71094-1.46484 3.71094-3.61328 0-2.19727-1.51367-3.71094-3.71094-3.71094h-10.5957v-10.5469c0-2.24609-1.46484-3.75977-3.71094-3.75977-2.14844 0-3.61328 1.51367-3.61328 3.75977v10.5469h-10.498c-2.24609 0-3.75977 1.51367-3.75977 3.71094Z"/>
  </g>
  <g transform="matrix(0.2 0 0 0.2 281.506 1933)">
   <path d="m58.5449 14.5508c27.4902 0 49.8047-22.3145 49.8047-49.8047s-22.3145-49.8047-49.8047-49.8047-49.8047 22.3145-49.8047 49.8047 22.3145 49.8047 49.8047 49.8047Zm0-8.30078c-22.9492 0-41.5039-18.5547-41.5039-41.5039s18.5547-41.5039 41.5039-41.5039 41.5039 18.5547 41.5039 41.5039-18.5547 41.5039-41.5039 41.5039Zm-22.6562-41.5039c0 2.39258 1.66016 4.00391 4.15039 4.00391h14.3555v14.4043c0 2.44141 1.66016 4.15039 4.05273 4.15039 2.44141 0 4.15039-1.66016 4.15039-4.15039v-14.4043h14.4043c2.44141 0 4.15039-1.61133 4.15039-4.00391 0-2.44141-1.70898-4.15039-4.15039-4.15039h-14.4043v-14.3555c0-2.49023-1.70898-4.19922-4.15039-4.19922-2.39258 0-4.05273 1.70898-4.05273 4.19922v14.3555h-14.3555c-2.49023 0-4.15039 1.70898-4.15039 4.15039Z"/>
  </g>
  <g transform="matrix(0.2 0 0 0.2 304.924 1933)">
   <path d="m74.8535 28.3203c35.1074 0 63.623-28.4668 63.623-63.5742s-28.5156-63.623-63.623-63.623-63.5742 28.5156-63.5742 63.623 28.4668 63.5742 63.5742 63.5742Zm0-9.08203c-30.127 0-54.4922-24.3652-54.4922-54.4922s24.3652-54.4922 54.4922-54.4922 54.4922 24.3652 54.4922 54.4922-24.3652 54.4922-54.4922 54.4922Zm-28.8574-54.4922c0 2.58789 1.85547 4.39453 4.58984 4.39453h19.7266v19.7754c0 2.68555 1.85547 4.58984 4.44336 4.58984 2.68555 0 4.54102-1.85547 4.54102-4.58984v-19.7754h19.7754c2.68555 0 4.58984-1.80664 4.58984-4.39453 0-2.73438-1.85547-4.58984-4.58984-4.58984h-19.7754v-19.7266c0-2.73438-1.85547-4.63867-4.54102-4.63867-2.58789 0-4.44336 1.9043-4.44336 4.63867v19.7266h-19.7266c-2.73438 0-4.58984 1.85547-4.58984 4.58984Z"/>
  </g>
  <text style="stroke:none;fill:black;font-family:sans-serif;font-size:13;font-weight:bold;" transform="matrix(1 0 0 1 263 1953)">Design Variations</text>
  <text style="stroke:none;fill:black;font-family:sans-serif;font-size:13;" transform="matrix(1 0 0 1 263 1971)">Symbols are supported in up to nine weights and three scales.</text>
  <text style="stroke:none;fill:black;font-family:sans-serif;font-size:13;" transform="matrix(1 0 0 1 263 1989)">For optimal layout with text and other symbols, vertically align</text>
  <text style="stroke:none;fill:black;font-family:sans-serif;font-size:13;" transform="matrix(1 0 0 1 263 2007)">symbols with the adjacent text.</text>
  <line style="fill:none;stroke:#00AEEF;stroke-width:0.5;opacity:1.0;" x1="776" x2="776" y1="1919" y2="1933"/>
  <g transform="matrix(0.2 0 0 0.2 776 1933)">
   <path d="m16.5527 0.78125c2.58789 0 3.85742-0.976562 4.78516-3.71094l6.29883-17.2363h28.8086l6.29883 17.2363c0.927734 2.73438 2.19727 3.71094 4.73633 3.71094 2.58789 0 4.24805-1.5625 4.24805-4.00391 0-0.830078-0.146484-1.61133-0.537109-2.63672l-22.9004-60.9863c-1.12305-2.97852-3.125-4.49219-6.25-4.49219-3.02734 0-5.07812 1.46484-6.15234 4.44336l-22.9004 61.084c-0.390625 1.02539-0.537109 1.80664-0.537109 2.63672 0 2.44141 1.5625 3.95508 4.10156 3.95508Zm13.4766-28.3691 11.8652-32.8613h0.244141l11.8652 32.8613Z"/>
  </g>
  <line style="fill:none;stroke:#00AEEF;stroke-width:0.5;opacity:1.0;" x1="792.836" x2="792.836" y1="1919" y2="1933"/>
  <text style="stroke:none;fill:black;font-family:sans-serif;font-size:13;font-weight:bold;" transform="matrix(1 0 0 1 776 1953)">Margins</text>
  <text style="stroke:none;fill:black;font-family:sans-serif;font-size:13;" transform="matrix(1 0 0 1 776 1971)">Leading and trailing margins on the left and right side of each symbol</text>
  <text style="stroke:none;fill:black;font-family:sans-serif;font-size:13;" transform="matrix(1 0 0 1 776 1989)">can be adjusted by modifying the x-location of the margin guidelines.</text>
  <text style="stroke:none;fill:black;font-family:sans-serif;font-size:13;" transform="matrix(1 0 0 1 776 2007)">Modifications are automatically applied proportionally to all</text>
  <text style="stroke:none;fill:black;font-family:sans-serif;font-size:13;" transform="matrix(1 0 0 1 776 2025)">scales and weights.</text>
  <g transform="matrix(0.2 0 0 0.2 1289 1933)">
   <path d="m14.209 9.32617 8.49609 8.54492c4.29688 4.3457 9.22852 4.05273 13.8672-1.07422l53.4668-58.9355-4.83398-4.88281-53.0762 58.3984c-1.75781 2.00195-3.41797 2.49023-5.76172 0.146484l-5.85938-5.81055c-2.34375-2.29492-1.80664-4.00391 0.195312-5.81055l57.373-54.0039-4.88281-4.83398-57.959 54.4434c-4.93164 4.58984-5.32227 9.47266-1.02539 13.8184Zm32.0801-90.9668c-2.09961 2.05078-2.24609 4.93164-1.07422 6.88477 1.17188 1.80664 3.4668 2.97852 6.68945 2.14844 7.32422-1.70898 14.9414-2.00195 22.0703 2.68555l-2.92969 7.27539c-1.70898 4.15039-0.830078 7.08008 1.85547 9.81445l11.4746 11.5723c2.44141 2.44141 4.49219 2.53906 7.32422 2.05078l5.32227-0.976562 3.32031 3.36914-0.195312 2.7832c-0.195312 2.49023 0.439453 4.39453 2.88086 6.78711l3.80859 3.71094c2.39258 2.39258 5.46875 2.53906 7.8125 0.195312l14.5508-14.5996c2.34375-2.34375 2.24609-5.32227-0.146484-7.71484l-3.85742-3.80859c-2.39258-2.39258-4.24805-3.17383-6.64062-2.97852l-2.88086 0.244141-3.22266-3.17383 1.2207-5.61523c0.634766-2.83203-0.146484-5.0293-3.07617-7.95898l-10.9863-10.9375c-16.6992-16.6016-38.8672-16.2109-53.3203-1.75781Zm7.4707 1.85547c12.1582-8.88672 28.6133-7.37305 39.7461 3.75977l12.1582 12.0605c1.17188 1.17188 1.36719 2.09961 1.02539 3.80859l-1.61133 7.42188 7.51953 7.42188 4.93164-0.292969c1.26953-0.0488281 1.66016 0.0488281 2.63672 1.02539l2.88086 2.88086-12.207 12.207-2.88086-2.88086c-0.976562-0.976562-1.12305-1.36719-1.07422-2.68555l0.341797-4.88281-7.4707-7.42188-7.61719 1.26953c-1.61133 0.341797-2.34375 0.195312-3.56445-0.976562l-10.0098-10.0098c-1.26953-1.17188-1.41602-2.00195-0.634766-3.85742l4.39453-10.4492c-7.8125-7.27539-17.9688-10.4004-28.125-7.42188-0.78125 0.195312-1.07422-0.439453-0.439453-0.976562Z"/>
  </g>
  <text style="stroke:none;fill:black;font-family:sans-serif;font-size:13;font-weight:bold;" transform="matrix(1 0 0 1 1289 1953)">Exporting</text>
  <text style="stroke:none;fill:black;font-family:sans-serif;font-size:13;" transform="matrix(1 0 0 1 1289 1971)">Symbols should be outlined when exporting to ensure the</text>
  <text style="stroke:none;fill:black;font-family:sans-serif;font-size:13;" transform="matrix(1 0 0 1 1289 1989)">design is preserved when submitting to Xcode.</text>
  <text id="template-version" style="stroke:none;fill:black;font-family:sans-serif;font-size:13;text-anchor:end;" transform="matrix(1 0 0 1 3036 1933)">Template v.2.0</text>
  <text style="stroke:none;fill:black;font-family:sans-serif;font-size:13;text-anchor:end;" transform="matrix(1 0 0 1 3036 1951)">Requires Xcode 12 or greater</text>
  <text id="descriptive-name" style="stroke:none;fill:black;font-family:sans-serif;font-size:13;text-anchor:end;" transform="matrix(1 0 0 1 3036 1969)">Generated from sailboat.fill</text>
  <text style="stroke:none;fill:black;font-family:sans-serif;font-size:13;text-anchor:end;" transform="matrix(1 0 0 1 3036 1987)">Typeset at 100.0 points</text>
  <text style="stroke:none;fill:black;font-family:sans-serif;font-size:13;" transform="matrix(1 0 0 1 263 726)">Small</text>
  <text style="stroke:none;fill:black;font-family:sans-serif;font-size:13;" transform="matrix(1 0 0 1 263 1156)">Medium</text>
  <text style="stroke:none;fill:black;font-family:sans-serif;font-size:13;" transform="matrix(1 0 0 1 263 1586)">Large</text>
 </g>
 <g id="Guides">
  <g id="H-reference" style="fill:#27AAE1;stroke:none;" transform="matrix(1 0 0 1 339 696)">
   <path d="M0.993654 0L3.63775 0L29.3281-67.1323L30.0303-67.1323L30.0303-70.459L28.1226-70.459ZM11.6885-24.4799L46.9815-24.4799L46.2315-26.7285L12.4385-26.7285ZM55.1196 0L57.7637 0L30.6382-70.459L29.4326-70.459L29.4326-67.1323Z"/>
  </g>
  <line id="Baseline-S" style="fill:none;stroke:#27AAE1;opacity:1;stroke-width:0.5;" x1="263" x2="3036" y1="696" y2="696"/>
  <line id="Capline-S" style="fill:none;stroke:#27AAE1;opacity:1;stroke-width:0.5;" x1="263" x2="3036" y1="625.541" y2="625.541"/>
  <g id="H-reference" style="fill:#27AAE1;stroke:none;" transform="matrix(1 0 0 1 339 1126)">
   <path d="M0.993654 0L3.63775 0L29.3281-67.1323L30.0303-67.1323L30.0303-70.459L28.1226-70.459ZM11.6885-24.4799L46.9815-24.4799L46.2315-26.7285L12.4385-26.7285ZM55.1196 0L57.7637 0L30.6382-70.459L29.4326-70.459L29.4326-67.1323Z"/>
  </g>
  <line id="Baseline-M" style="fill:none;stroke:#27AAE1;opacity:1;stroke-width:0.5;" x1="263" x2="3036" y1="1126" y2="1126"/>
  <line id="Capline-M" style="fill:none;stroke:#27AAE1;opacity:1;stroke-width:0.5;" x1="263" x2="3036" y1="1055.54" y2="1055.54"/>
  <g id="H-reference" style="fill:#27AAE1;stroke:none;" transform="matrix(1 0 0 1 339 1556)">
   <path d="M0.993654 0L3.63775 0L29.3281-67.1323L30.0303-67.1323L30.0303-70.459L28.1226-70.459ZM11.6885-24.4799L46.9815-24.4799L46.2315-26.7285L12.4385-26.7285ZM55.1196 0L57.7637 0L30.6382-70.459L29.4326-70.459L29.4326-67.1323Z"/>
  </g>
  <line id="Baseline-L" style="fill:none;stroke:#27AAE1;opacity:1;stroke-width:0.5;" x1="263" x2="3036" y1="1556" y2="1556"/>
  <line id="Capline-L" style="fill:none;stroke:#27AAE1;opacity:1;stroke-width:0.5;" x1="263" x2="3036" y1="1485.54" y2="1485.54"/>
  <line id="right-margin" style="fill:none;stroke:#00AEEF;stroke-width:0.5;opacity:1.0;" x1="1515.95" x2="1515.95" y1="1030.79" y2="1150.12"/>
  <line id="left-margin" style="fill:none;stroke:#00AEEF;stroke-width:0.5;opacity:1.0;" x1="1383.74" x2="1383.74" y1="1030.79" y2="1150.12"/>
 </g>
 <g id="Symbols">
  <g id="Black-L" transform="matrix(1 0 0 1 2842.92 1556)">
   <path d="M75.4741 17.5514L90.5964 17.5514L100.974-103.243C101.054-103.891 102.002-104.034 102.246-103.345C106.11-92.7639 108.398-80.1103 108.398-67.2892C108.398-47.2358 102.908-26.7267 89.1181-13.8055L87.1224 0.843675C106.283 2.86855 125.741 2.43607 138.211 0.45117C148.519-1.10602 153.748-5.47389 157.262-14.6794C160.547-23.3471 162.052-33.498 162.052-44.0634C162.052-71.703 146.941-105.168 111.712-123.534C107.84-125.58 103.891-126.631 100.57-126.631C93.518-126.631 88.3291-122.227 87.653-114.601ZM37.2425 1.09214C52.5255 2.75775 68.2383 2.70054 83.5212 0.922899L92.2926-99.4361L31.1158-14.0767C26.0658-7.02139 28.9409 0.200316 37.2425 1.09214ZM56.5069 19.7413C66.7342 19.7413 74.2771 24.7709 79.6946 28.7348C84.3293 32.2072 85.2895 32.9369 87.2992 32.9369C89.2881 32.9369 90.2483 32.2072 94.883 28.7348C100.301 24.7709 107.843 19.7413 118.092 19.7413C128.995 19.7413 136.028 24.8645 141.15 28.6259C142.485 29.5837 143.505 30.3623 144.386 30.9241C149.196 24.9507 152.936 18.1233 152.936 13.9195C152.936 9.57315 149.458 5.27295 142.392 6.24639C109.377 10.9095 71.7466 10.9095 37.0856 10.9095C29.5942 10.9095 25.4716 16.8826 27.935 23.6966L30.464 30.6893C31.3075 30.1287 32.2289 29.4461 33.4281 28.6259C38.8039 24.7477 46.2832 19.7413 56.5069 19.7413ZM87.2992 56.092C106.974 56.092 109.2 42.8964 118.092 42.8964C127.049 42.8964 128.484 56.092 150.317 56.092L157.261 56.092C161.485 56.092 164.882 52.6949 164.882 48.4499C164.882 44.2842 161.485 40.887 157.261 40.887L150.317 40.887C145.516 40.887 142.097 39.0777 136.476 35.0588C132.258 31.9664 126.869 27.6914 118.092 27.6914C109.813 27.6914 103.818 32.0313 99.6002 35.1456C95.0823 38.5013 92.0628 40.887 87.2992 40.887C82.5148 40.887 79.4952 38.5013 74.9773 35.1456C70.7591 32.0313 64.7649 27.6914 56.5069 27.6914C48.2929 27.6914 42.3207 31.9664 38.1025 35.0588C32.4816 39.0777 29.0612 40.887 24.2814 40.887L23.7261 40.887C19.4811 40.887 16.084 44.2842 16.084 48.4499C16.084 52.6949 19.4811 56.092 23.7261 56.092L24.2814 56.092C46.1139 56.092 47.5495 42.8964 56.5069 42.8964C65.3982 42.8964 67.6033 56.092 87.2992 56.092Z"/>
  </g>
  <g id="Heavy-L" transform="matrix(1 0 0 1 2547.5 1556)">
   <path d="M75.0423 17.2811L88.7069 17.2811L99.2448-105.147C99.3252-105.812 100.277-105.954 100.529-105.257C104.787-93.9283 107.342-80.4041 107.342-66.8088C107.342-46.5678 101.814-26.0786 87.9243-12.9715L86.1046 0.67264C105.034 2.65617 124.208 2.17898 136.478 0.221116C146.462-1.28201 151.482-5.45958 154.879-14.3589C158.186-23.0961 159.672-33.1246 159.672-43.6404C159.672-71.1344 145.304-103.91 109.682-122.521C106.019-124.469 102.323-125.448 99.1726-125.448C92.5491-125.448 87.6774-121.356 87.0421-114.119ZM36.1798 0.85325C51.2587 2.50066 67.0991 2.46165 82.178 0.747447L90.6598-97.1651L30.5247-13.2588C25.7781-6.64748 28.4309 0.0292805 36.1798 0.85325ZM55.4717 20.4837C65.0358 20.4837 72.1938 25.0133 78.0433 29.3055C82.6091 32.7366 83.7403 33.5828 86.0573 33.5828C88.3441 33.5828 89.4753 32.7366 94.0411 29.3055C99.8906 25.0133 107.049 20.4837 116.643 20.4837C126.695 20.4837 133.43 25.0611 139.011 29.1321C140.297 30.0635 141.29 30.8151 142.158 31.3724C147.075 25.3438 151.005 18.1827 151.005 13.9651C151.005 9.79423 147.764 5.85309 141.196 6.76309C108.158 11.4218 70.4555 11.4218 35.7946 11.4218C28.7836 11.4218 24.9875 16.9497 27.2877 23.3197L30.1251 31.1883C30.9784 30.6366 31.9009 29.9441 33.0736 29.1321C38.8627 24.9719 45.9245 20.4837 55.4717 20.4837ZM86.0573 54.9089C105.09 54.9089 107.436 41.8097 116.643 41.8097C125.957 41.8097 127.442 54.9089 148.703 54.9089L155.494 54.9089C159.254 54.9089 162.292 51.8713 162.292 48.0814C162.292 44.3662 159.254 41.3287 155.494 41.3287L148.703 41.3287C143.413 41.3287 139.881 39.2634 134.467 35.4006C130.276 32.3358 124.977 28.2295 116.643 28.2295C108.623 28.2295 102.847 32.4376 98.6568 35.5381C94.1802 38.88 91.0388 41.3287 86.0573 41.3287C81.0456 41.3287 77.9042 38.88 73.4276 35.5381C69.237 32.4376 63.4611 28.2295 55.4717 28.2295C47.5539 28.2295 41.8139 32.3358 37.6232 35.4006C32.2091 39.2634 28.6712 41.3287 23.4117 41.3287L22.9115 41.3287C19.1215 41.3287 16.084 44.3662 16.084 48.0814C16.084 51.8713 19.1215 54.9089 22.9115 54.9089L23.4117 54.9089C44.6722 54.9089 46.158 41.8097 55.4717 41.8097C64.6781 41.8097 66.994 54.9089 86.0573 54.9089Z"/>
  </g>
  <g id="Bold-L" transform="matrix(1 0 0 1 2252.38 1556)">
   <path d="M74.5567 16.8984L86.3336 16.8984L97.0563-107.26C97.1367-107.956 98.1035-108.105 98.3712-107.378C103.024-95.2014 105.872-80.6684 105.872-66.1723C105.872-45.7082 100.32-25.2197 86.2999-11.8672L84.7252 0.42778C103.362 2.36505 122.198 1.81912 134.207-0.10047C143.732-1.52705 148.476-5.45159 151.705-13.9147C155.057-22.7887 156.521-32.6561 156.521-43.1029C156.521-70.4126 143.007-102.35 106.99-121.216C103.649-123.004 100.312-123.884 97.4139-123.884C91.3876-123.884 86.9376-120.213 86.356-113.505ZM34.8732 0.516429C49.6836 2.1408 65.8195 2.12483 80.63 0.49497L88.7208-94.3676L29.8394-12.2072C25.499-6.18638 27.8604-0.21558 34.8732 0.516429ZM54.196 21.4131C63.0422 21.4131 69.7536 25.4397 75.9472 29.9975C80.4359 33.3824 81.812 34.4043 84.5503 34.4043C87.2506 34.4043 88.6267 33.3824 93.1154 29.9975C99.3089 25.4397 106.02 21.4131 114.905 21.4131C124.024 21.4131 130.412 25.4337 136.375 29.7547C137.585 30.6403 138.539 31.3536 139.384 31.9033C144.47 25.746 148.586 18.1849 148.586 13.9519C148.586 10.0335 145.644 6.55291 139.736 7.37857C106.675 12.0297 68.8722 12.0297 34.2112 12.0297C27.8367 12.0297 24.4702 16.9821 26.5555 22.7617L29.7994 31.7733C30.6531 31.2368 31.5608 30.544 32.6877 29.7547C38.8053 25.3752 45.3895 21.4131 54.196 21.4131ZM84.5503 53.3444C102.777 53.3444 105.247 40.3532 114.905 40.3532C124.716 40.3532 126.263 53.3444 146.78 53.3444L153.349 53.3444C156.525 53.3444 159.11 50.76 159.11 47.5459C159.11 44.3991 156.525 41.8146 153.349 41.8146L146.78 41.8146C140.905 41.8146 137.22 39.4418 132.037 35.7561C127.877 32.7222 122.708 28.8235 114.905 28.8235C107.215 28.8235 101.716 32.8626 97.5559 35.9478C93.1256 39.2742 89.8156 41.8146 84.5503 41.8146C79.2469 41.8146 75.937 39.2742 71.5067 35.9478C67.3469 32.8626 61.8475 28.8235 54.196 28.8235C46.647 28.8235 41.1988 32.7222 37.039 35.7561C31.8562 39.4418 28.1573 41.8146 22.321 41.8146L21.8825 41.8146C18.6684 41.8146 16.084 44.3991 16.084 47.5459C16.084 50.76 18.6684 53.3444 21.8825 53.3444L22.321 53.3444C42.8373 53.3444 44.3845 40.3532 54.196 40.3532C63.8538 40.3532 66.2856 53.3444 84.5503 53.3444Z"/>
  </g>
  <g id="Semibold-L" transform="matrix(1 0 0 1 1956.77 1556)">
   <path d="M74.2219 16.6345L84.6974 16.6345L95.5476-108.716C95.628-109.434 96.6051-109.588 96.8834-108.84C101.808-96.0791 104.858-80.8507 104.858-65.7335C104.858-45.1156 99.29-24.6277 85.18-11.1059L83.7742 0.258975C102.21 2.16435 120.813 1.57104 132.642-0.32217C141.85-1.69599 146.404-5.44608 149.517-13.6085C152.9-22.5767 154.348-32.3331 154.348-42.7324C154.348-69.9151 141.423-101.275 105.135-120.316C102.014-121.994 98.9251-122.805 96.2014-122.805C90.5869-122.805 86.4277-119.425 85.883-113.082ZM33.9725 0.284226C48.5978 1.89272 64.9374 1.89262 79.5627 0.320913L87.3841-92.4391L29.3669-11.4823C25.3067-5.8685 27.467-0.384385 33.9725 0.284226ZM53.3165 22.0539C61.6679 22.0539 68.0714 25.7336 74.5021 30.4746C78.9376 33.8276 80.4825 34.9706 83.5113 34.9706C86.4967 34.9706 88.0417 33.8276 92.4772 30.4746C98.9079 25.7336 105.311 22.0539 113.706 22.0539C122.182 22.0539 128.331 25.6905 134.558 30.1839C135.715 31.038 136.643 31.7249 137.472 32.2694C142.674 26.0232 146.918 18.1865 146.918 13.9428C146.918 10.1985 144.182 7.03536 138.729 7.80288C105.652 12.4488 67.7806 12.4488 33.1196 12.4488C27.1839 12.4488 24.1135 17.0043 26.0508 22.3769L29.5749 32.1766C30.4289 31.6506 31.3263 30.9575 32.4217 30.1839C38.7657 25.6533 45.0206 22.0539 53.3165 22.0539ZM83.5113 52.2659C101.182 52.2659 103.737 39.3491 113.706 39.3491C123.861 39.3491 125.45 52.2659 145.454 52.2659L151.87 52.2659C154.644 52.2659 156.916 49.9938 156.916 47.1768C156.916 44.4218 154.644 42.1497 151.87 42.1497L145.454 42.1497C139.176 42.1497 135.385 39.5647 130.362 36.0013C126.223 32.9886 121.143 29.2329 113.706 29.2329C106.244 29.2329 100.935 33.1556 96.7969 36.2302C92.3985 39.546 88.9724 42.1497 83.5113 42.1497C78.0069 42.1497 74.5808 39.546 70.1824 36.2302C66.0438 33.1556 60.735 29.2329 53.3165 29.2329C46.0217 29.2329 40.7747 32.9886 36.6362 36.0013C31.6128 39.5647 27.8031 42.1497 21.569 42.1497L21.1731 42.1497C18.3561 42.1497 16.084 44.4218 16.084 47.1768C16.084 49.9938 18.3561 52.2659 21.1731 52.2659L21.569 52.2659C41.5723 52.2659 43.1619 39.3491 53.3165 39.3491C63.2856 39.3491 65.7972 52.2659 83.5113 52.2659Z"/>
  </g>
  <g id="Medium-L" transform="matrix(1 0 0 1 1660.89 1556)">
   <path d="M73.9681 16.4345L83.4568 16.4345L94.4036-109.821C94.484-110.554 95.469-110.712 95.7552-109.949C100.887-96.7446 104.089-80.9888 104.089-65.4008C104.089-44.6663 98.509-24.1787 84.3308-10.5287L83.0532 0.13098C101.336 2.01218 119.762 1.38293 131.455-0.490273C140.423-1.82408 144.833-5.44191 147.858-13.3763C151.265-22.416 152.7-32.0881 152.7-42.4514C152.7-69.5378 140.223-100.46 103.728-119.634C100.775-121.229 97.8739-121.988 95.282-121.988C89.9798-121.988 86.041-118.828 85.5244-112.761ZM33.2895 0.10816C47.7745 1.70461 64.2685 1.71656 78.7535 0.188937L86.3706-90.9768L29.0087-10.9327C25.1608-5.62747 27.1688-0.51238 33.2895 0.10816ZM52.6497 22.5397C60.6258 22.5397 66.7958 25.9565 73.4064 30.8364C77.8016 34.1651 79.4745 35.4001 82.7236 35.4001C85.9252 35.4001 87.5981 34.1651 91.9933 30.8364C98.6038 25.9565 104.774 22.5397 112.797 22.5397C120.785 22.5397 126.754 25.8852 133.18 30.5093C134.297 31.3395 135.205 32.0064 136.023 32.5469C141.312 26.2335 145.653 18.1876 145.653 13.9359C145.653 10.3235 143.074 7.40118 137.965 8.1246C104.876 12.7665 66.9529 12.7665 32.2919 12.7665C26.6889 12.7665 23.843 17.0212 25.6681 22.0852L29.4047 32.4824C30.2588 31.9644 31.1485 31.2711 32.22 30.5093C38.7356 25.8641 44.7409 22.5397 52.6497 22.5397ZM82.7236 51.4481C99.9727 51.4481 102.592 38.5877 112.797 38.5877C123.212 38.5877 124.834 51.4481 144.448 51.4481L150.749 51.4481C153.217 51.4481 155.253 49.4129 155.253 46.8969C155.253 44.4389 153.217 42.4037 150.749 42.4037L144.448 42.4037C137.865 42.4037 133.994 39.6579 129.091 36.1871C124.969 33.1906 119.957 29.5434 112.797 29.5434C105.508 29.5434 100.344 33.3778 96.2214 36.4443C91.8472 39.752 88.333 42.4037 82.7236 42.4037C77.0667 42.4037 73.5525 39.752 69.1783 36.4443C65.0558 33.3778 59.8915 29.5434 52.6497 29.5434C45.5476 29.5434 40.4532 33.1906 36.3308 36.1871C31.4283 39.6579 27.5345 42.4037 20.9989 42.4037L20.6352 42.4037C18.1192 42.4037 16.084 44.4389 16.084 46.8969C16.084 49.4129 18.1192 51.4481 20.6352 51.4481L20.9989 51.4481C40.6131 51.4481 42.2349 38.5877 52.6497 38.5877C62.8547 38.5877 65.427 51.4481 82.7236 51.4481Z"/>
  </g>
  <g id="Regular-L" transform="matrix(1 0 0 1 1365.26 1556)">
   <path d="M73.637 16.1735L81.8386 16.1735L92.9115-111.261C92.9919-112.015 93.9871-112.179 94.2837-111.395C99.6842-97.6126 103.087-81.1691 103.087-64.9668C103.087-44.0802 97.4903-23.5931 83.2232-9.7758L82.1127-0.0359703C100.197 1.81369 118.392 1.13757 129.907-0.709536C138.562-1.99116 142.783-5.43646 145.693-13.0734C149.131-22.2064 150.551-31.7687 150.551-42.085C150.551-69.0457 138.657-99.3963 101.893-118.745C99.1587-120.23 96.5027-120.921 94.0829-120.921C89.1878-120.921 85.5366-118.049 85.0566-112.342ZM32.3986-0.12149C46.7006 1.45925 63.396 1.48691 77.698 0.016793L85.0486-89.0694L28.5414-10.2158C24.9706-5.31308 26.7798-0.67933 32.3986-0.12149ZM51.7798 23.1734C59.2665 23.1734 65.1321 26.2472 71.9772 31.3082C76.3199 34.6054 78.1597 35.9602 81.696 35.9602C85.1796 35.9602 87.0195 34.6054 91.3621 31.3082C98.2072 26.2472 104.073 23.1734 111.612 23.1734C118.963 23.1734 124.696 26.1391 131.382 30.9337C132.448 31.7328 133.33 32.3737 134.132 32.9089C139.535 26.5077 144.003 18.1891 144.003 13.9269C144.003 10.4867 141.628 7.87833 136.97 8.54425C103.864 13.1809 65.8733 13.1809 31.2123 13.1809C26.0433 13.1809 23.4903 17.0433 25.1689 21.7047L29.1826 32.8813C30.037 32.3737 30.9166 31.6801 31.9569 30.9337C38.6965 26.1391 44.3761 23.1734 51.7798 23.1734ZM81.696 50.3814C98.3953 50.3814 101.099 37.5947 111.612 37.5947C122.366 37.5947 124.03 50.3814 143.137 50.3814L149.286 50.3814C151.357 50.3814 153.083 48.6552 153.083 46.5319C153.083 44.4614 151.357 42.7351 149.286 42.7351L143.137 42.7351C136.155 42.7351 132.179 39.7795 127.435 36.4296C123.333 33.454 118.41 29.9483 111.612 29.9483C104.548 29.9483 99.5722 33.6676 95.4708 36.7236C91.1281 40.0208 87.499 42.7351 81.696 42.7351C75.8403 42.7351 72.2112 40.0208 67.8685 36.7236C63.7671 33.6676 58.7913 29.9483 51.7798 29.9483C44.9292 29.9483 40.0338 33.454 35.9324 36.4296C31.1876 39.7795 27.1841 42.7351 20.2552 42.7351L19.9335 42.7351C17.8103 42.7351 16.084 44.4614 16.084 46.5319C16.084 48.6552 17.8103 50.3814 19.9335 50.3814L20.2552 50.3814C39.362 50.3814 41.0257 37.5947 51.7798 37.5947C62.2927 37.5947 64.944 50.3814 81.696 50.3814Z"/>
  </g>
  <g id="Light-L" transform="matrix(1 0 0 1 1069.56 1556)">
   <path d="M73.6179 15.601L79.9874 15.601L91.0984-111.147C91.1788-111.977 92.2504-112.198 92.5851-111.261C97.6612-97.4027 101.026-80.711 101.026-64.2607C101.026-43.2786 95.5627-22.6389 81.162-8.55434L80.395-0.417676C98.2502 1.43198 116.292 0.622269 127.54-1.16758C135.508-2.33469 139.424-5.49372 142.067-12.4627C145.658-22.0155 147.059-31.4061 147.059-41.6269C147.059-68.4349 135.336-98.3085 98.8962-117.523C96.7731-118.646 94.6705-119.203 92.6896-119.203C88.6344-119.203 85.4602-116.846 85.0375-111.807ZM31.5589-0.617708C45.5746 0.943949 63.3578 0.990691 77.3736-0.383998L84.247-87.2373L28.3697-9.24241C25.2759-5.00772 26.7798-1.06104 31.5589-0.617708ZM50.9401 23.8796C58.5986 23.8796 64.3496 27.3542 70.2023 31.6899C74.5449 34.9871 76.7665 36.6663 80.8563 36.6663C84.9124 36.6663 87.134 34.9871 91.4766 31.6899C97.3293 27.3542 103.08 23.8796 110.773 23.8796C118.257 23.8796 123.894 27.227 129.646 31.3345C130.558 32.0191 131.383 32.6027 132.128 33.1189C137.875 26.2405 142.152 17.7311 142.152 13.4688C142.152 10.4294 140.025 8.24095 136.092 8.81144C103.005 13.4291 64.8809 13.4291 30.2199 13.4291C25.757 13.4291 23.662 16.7379 25.1116 20.7313L29.5643 33.0721C30.3424 32.6027 31.1074 31.9854 32.0333 31.3345C37.8186 27.227 43.4218 23.8796 50.9401 23.8796ZM80.8563 48.6638C96.9258 48.6638 99.5535 35.877 110.773 35.877C122.233 35.877 123.935 48.6638 142.297 48.6638L148.084 48.6638C149.696 48.6638 151.06 47.3001 151.06 45.6539C151.06 44.0415 149.696 42.6778 148.084 42.6778L142.297 42.6778C135.048 42.6778 130.882 39.5696 126.137 36.2387C122.035 33.2632 117.322 29.891 110.773 29.891C103.995 29.891 99.2478 33.4577 95.1464 36.5136C90.8037 39.8109 86.9456 42.6778 80.8563 42.6778C74.7334 42.6778 70.8752 39.8109 66.5326 36.5136C62.4311 33.4577 57.6843 29.891 50.9401 29.891C44.3567 29.891 39.6903 33.2632 35.5889 36.2387C30.8441 39.5696 26.6306 42.6778 19.4155 42.6778L19.0938 42.6778C17.4476 42.6778 16.084 44.0415 16.084 45.6539C16.084 47.3001 17.4476 48.6638 19.0938 48.6638L19.4155 48.6638C37.7779 48.6638 39.4798 35.877 50.9401 35.877C62.1591 35.877 64.7531 48.6638 80.8563 48.6638Z"/>
  </g>
  <g id="Thin-L" transform="matrix(1 0 0 1 774.188 1556)">
   <path d="M73.5927 14.8437L77.5389 14.8437L88.7004-110.995C88.7808-111.927 89.9534-112.223 90.3386-111.084C94.9855-97.125 98.2996-80.1052 98.2996-63.3267C98.2996-42.2185 93.0133-21.3768 78.4359-6.93886L78.1232-0.922512C95.6756 0.927146 113.516-0.0592599 124.41-1.77339C131.469-2.78904 134.982-5.56944 137.271-11.6549C141.064-21.7631 142.44-30.9265 142.44-41.0211C142.44-67.6272 130.944-96.8697 94.9333-115.908C93.6178-116.551 92.2473-116.931 90.847-116.931C87.9024-116.931 85.3593-115.256 85.0123-111.101ZM30.4482-1.27399C44.0853 0.26242 63.3074 0.334404 76.9444-0.914076L83.1868-84.814L28.1425-7.95507C25.6798-4.60385 26.7798-1.56587 30.4482-1.27399ZM49.8294 24.8135C57.7151 24.8135 63.3147 28.8182 67.8548 32.1947C72.1975 35.4919 74.9238 37.6003 79.7457 37.6003C84.559 37.6003 87.2854 35.4919 91.6281 32.1947C96.1682 28.8182 101.768 24.8135 109.662 24.8135C117.323 24.8135 122.834 28.6658 127.349 31.8646C128.059 32.3977 128.809 32.9056 129.477 33.3965C135.679 25.8871 139.704 17.1253 139.704 12.863C139.704 10.3537 137.905 8.72055 134.931 9.16483C101.87 13.7572 63.5683 13.7572 28.9073 13.7572C25.3784 13.7572 23.8892 16.334 25.0359 19.444L30.0692 33.3245C30.7463 32.9056 31.3598 32.3893 32.1342 31.8646C36.6574 28.6658 42.1597 24.8135 49.8294 24.8135ZM79.7457 46.392C94.9822 46.392 97.5089 33.6052 109.662 33.6052C122.056 33.6052 123.808 46.392 141.186 46.392L146.494 46.392C147.5 46.392 148.384 45.5079 148.384 44.4928C148.384 43.4862 147.5 42.6021 146.494 42.6021L141.186 42.6021C133.584 42.6021 129.165 39.2919 124.42 35.9863C120.319 33.0108 115.883 29.8153 109.662 29.8153C103.263 29.8153 98.8187 33.18 94.7172 36.236C90.3746 39.5332 86.2135 42.6021 79.7457 42.6021C73.2693 42.6021 69.1083 39.5332 64.7656 36.236C60.6642 33.18 56.2203 29.8153 49.8294 29.8153C43.5994 29.8153 39.2359 33.0108 35.1345 35.9863C30.3897 39.2919 25.8986 42.6021 18.3048 42.6021L17.9832 42.6021C16.9681 42.6021 16.084 43.4862 16.084 44.4928C16.084 45.5079 16.9681 46.392 17.9832 46.392L18.3048 46.392C35.6829 46.392 37.4352 33.6052 49.8294 33.6052C61.9824 33.6052 64.5007 46.392 79.7457 46.392Z"/>
  </g>
  <g id="Ultralight-L" transform="matrix(1 0 0 1 478.162 1556)">
   <path d="M73.5797 14.4559L76.2848 14.4559L87.4722-110.918C87.5526-111.901 88.7769-112.236 89.188-110.994C93.6151-96.9828 96.9033-79.7949 96.9033-62.8483C96.9033-41.6754 91.7075-20.7303 77.0396-6.11143L76.9596-1.18109C94.3568 0.668571 112.094-0.408336 122.807-2.08368C129.401-3.02176 132.706-5.60823 134.815-11.2412C138.711-21.6338 140.074-30.6808 140.074-40.7109C140.074-67.2135 128.694-96.1328 92.9035-115.08C92.0018-115.478 91.0062-115.768 89.9032-115.768C87.5274-115.768 85.3076-114.442 84.9994-110.739ZM29.8794-1.61014C43.3225-0.0866561 63.2815-0.00174361 76.7247-1.18558L82.6438-83.5729L28.0261-7.29571C25.8867-4.39699 26.7798-1.82445 29.8794-1.61014ZM49.2606 25.2919C57.2626 25.2919 62.7846 29.5681 66.6524 32.4533C70.9951 35.7505 73.98 38.0787 79.1768 38.0787C84.378 38.0787 87.363 35.7505 91.7057 32.4533C95.5735 29.5681 101.095 25.2919 109.093 25.2919C116.845 25.2919 122.291 29.4027 126.172 32.1361C126.78 32.5917 127.49 33.0607 128.12 33.5387C134.554 25.7061 138.449 16.815 138.449 12.5527C138.449 10.3149 136.819 8.96619 134.336 9.34583C101.288 13.9253 62.896 13.9253 28.235 13.9253C25.1845 13.9253 24.0056 16.1272 24.9971 18.7846L30.3277 33.4538C30.9531 33.0607 31.4891 32.5962 32.1859 32.1361C36.0627 29.4027 41.5133 25.2919 49.2606 25.2919ZM79.1768 45.2284C93.9866 45.2284 96.4617 32.4416 109.093 32.4416C121.966 32.4416 123.744 45.2284 140.618 45.2284L145.679 45.2284C146.376 45.2284 147.014 44.59 147.014 43.8981C147.014 43.2017 146.376 42.5633 145.679 42.5633L140.618 42.5633C132.834 42.5633 128.286 39.1497 123.541 35.857C119.44 32.8815 115.147 29.7765 109.093 29.7765C102.888 29.7765 98.5989 33.0378 94.4975 36.0938C90.1548 39.391 85.8386 42.5633 79.1768 42.5633C72.5195 42.5633 68.2033 39.391 63.8606 36.0938C59.7592 33.0378 55.4704 29.7765 49.2606 29.7765C43.2116 29.7765 39.0032 32.8815 34.9018 35.857C30.157 39.1497 25.5237 42.5633 17.736 42.5633L17.4143 42.5633C16.7224 42.5633 16.084 43.2017 16.084 43.8981C16.084 44.59 16.7224 45.2284 17.4143 45.2284L17.736 45.2284C34.6098 45.2284 36.388 32.4416 49.2606 32.4416C61.8919 32.4416 64.3714 45.2284 79.1768 45.2284Z"/>
  </g>
  <g id="Black-M" transform="matrix(1 0 0 1 2862.32 1126)">
   <path d="M58.8414 5.81686L71.5619 5.81686L79.469-86.2714C79.5313-86.7687 80.2726-86.8872 80.459-86.3392C83.0708-78.7746 84.6085-69.6861 84.6085-60.3847C84.6085-44.9967 80.4061-29.0698 69.7902-19.1827L68.1393-7.18682C83.1528-5.58252 98.4505-5.89727 108.247-7.45053C116.418-8.68791 120.608-12.1966 123.394-19.5012C125.941-26.2135 127.12-34.1598 127.12-42.375C127.12-63.893 114.798-90.3477 87.8873-104.348C84.789-105.968 81.5879-106.827 78.9283-106.827C73.21-106.827 68.9821-103.216 68.4309-97.064ZM29.6529-6.95153C41.6299-5.64805 53.8409-5.70543 65.8178-7.12423L72.7976-86.6766L24.5915-19.4126C20.4829-13.6555 22.86-7.68526 29.6529-6.95153ZM44.5541 6.81638C53.0709 6.81638 59.23 11.197 62.9214 13.8875C66.5714 16.6133 67.22 17.1225 68.5879 17.1225C69.9503 17.1225 70.599 16.6133 74.2489 13.8875C77.9404 11.197 84.0994 6.81638 92.6217 6.81638C101.819 6.81638 107.511 11.3063 110.957 13.8611C112.013 14.6105 112.819 15.2292 113.505 15.6656C117.187 11.0207 119.895 5.99205 119.895 2.747C119.895-0.716761 117.03-4.30001 111.226-3.50426C85.6701 0.109699 56.5602 0.109699 29.7068 0.109699C23.5857 0.109699 20.1732 5.0448 22.191 10.6151L23.9448 15.4375C24.5794 15.0008 25.2769 14.4908 26.2131 13.8611C29.8936 11.1921 36.0365 6.81638 44.5541 6.81638ZM68.5879 36.3053C84.2974 36.3053 85.9083 25.9991 92.6217 25.9991C99.3507 25.9991 100.425 36.3053 117.73 36.3053L123.192 36.3053C126.802 36.3053 129.694 33.4134 129.694 29.7983C129.694 26.2457 126.802 23.3539 123.192 23.3539L117.73 23.3539C114.395 23.3539 111.818 22.1513 107.285 18.9062C103.993 16.4867 99.7692 13.0478 92.6217 13.0478C86.0238 13.0478 81.2231 16.5026 77.9314 18.9273C74.3956 21.5389 72.13 23.3539 68.5879 23.3539C65.0403 23.3539 62.7747 21.5389 59.239 18.9273C55.9472 16.5026 51.1466 13.0478 44.5541 13.0478C37.9721 13.0478 33.1766 16.4867 29.8849 18.9062C25.3525 22.1513 22.7751 23.3539 19.4455 23.3539L18.9679 23.3539C15.3528 23.3539 12.4609 26.2457 12.4609 29.7983C12.4609 33.4134 15.3528 36.3053 18.9679 36.3053L19.4455 36.3053C36.7508 36.3053 37.8251 25.9991 44.5541 25.9991C51.2675 25.9991 52.8729 36.3053 68.5879 36.3053Z"/>
  </g>
  <g id="Heavy-M" transform="matrix(1 0 0 1 2566.78 1126)">
   <path d="M58.4211 5.6054L69.8856 5.6054L77.946-88.1425C78.0083-88.65 78.7464-88.7628 78.9378-88.2212C81.9643-79.9323 83.7664-70.0155 83.7664-59.9802C83.7664-44.4177 79.5145-28.5242 68.8134-18.4801L67.3029-7.3188C82.1104-5.75493 97.1452-6.10106 106.771-7.63317C114.689-8.82825 118.702-12.1774 121.399-19.2442C123.953-25.9858 125.116-33.8282 125.116-42.0037C125.116-63.3935 113.504-89.2183 86.1788-103.47C83.2297-105.028 80.224-105.828 77.6906-105.828C72.3139-105.828 68.352-102.475 67.8354-96.6421ZM28.6915-7.13928C40.4953-5.85184 52.7308-5.89318 64.5347-7.25877L71.2754-84.6255L24.0295-18.7028C20.1735-13.3181 22.3615-7.81724 28.6915-7.13928ZM43.6197 7.47692C51.4722 7.47692 57.2656 11.3318 61.4709 14.4102C65.0535 17.0956 65.8341 17.6887 67.4513 17.6887C69.0521 17.6887 69.8328 17.0956 73.4153 14.4102C77.6206 11.3318 83.414 7.47692 91.283 7.47692C99.6358 7.47692 105.045 11.3981 109.027 14.3191C110.049 15.0531 110.833 15.6506 111.512 16.0845C115.266 11.4295 118.178 6.09238 118.178 2.83385C118.178-0.495361 115.522-3.76634 110.138-3.02379C84.5579 0.587605 55.3897 0.587605 28.5363 0.587605C22.8197 0.587605 19.6841 5.13863 21.5634 10.3364L23.5782 15.9077C24.2295 15.4762 24.9386 14.9494 25.8595 14.3191C30.032 11.3109 35.7739 7.47692 43.6197 7.47692ZM67.4513 35.3071C82.5914 35.3071 84.3268 25.0953 91.283 25.0953C98.2953 25.0953 99.4151 35.3071 116.23 35.3071L121.576 35.3071C124.774 35.3071 127.348 32.7333 127.348 29.519C127.348 26.3646 124.774 23.7909 121.576 23.7909L116.23 23.7909C112.441 23.7909 109.771 22.3523 105.44 19.2579C102.176 16.8654 98.02 13.5791 91.283 13.5791C84.9121 13.5791 80.3038 16.9192 77.039 19.3304C73.5437 21.9285 71.18 23.7909 67.4513 23.7909C63.7062 23.7909 61.3426 21.9285 57.8472 19.3304C54.5825 16.9192 49.9742 13.5791 43.6197 13.5791C37.3025 13.5791 32.7129 16.8654 29.4481 19.2579C25.1178 22.3523 22.4449 23.7909 18.6728 23.7909L18.2491 23.7909C15.0347 23.7909 12.4609 26.3646 12.4609 29.519C12.4609 32.7333 15.0347 35.3071 18.2491 35.3071L18.6728 35.3071C35.4876 35.3071 36.6074 25.0953 43.6197 25.0953C50.5759 25.0953 52.2948 35.3071 67.4513 35.3071Z"/>
  </g>
  <g id="Bold-M" transform="matrix(1 0 0 1 2271.39 1126)">
   <path d="M57.951 5.36886L68.0103 5.36886L76.2423-90.2356C76.3046-90.7546 77.0391-90.8609 77.2362-90.3266C80.7266-81.2273 82.8244-70.3839 82.8244-59.5277C82.8244-43.77 78.5172-27.9139 67.7207-17.6941L66.3671-7.46645C80.9444-5.9478 95.685-6.32901 105.12-7.83747C112.754-8.98525 116.571-12.1558 119.168-18.9567C121.73-25.7311 122.875-33.4573 122.875-41.5884C122.875-62.8347 112.057-87.955 84.2676-102.488C81.4855-103.977 78.6983-104.712 76.3061-104.712C71.3115-104.712 67.6472-101.647 67.1693-96.1701ZM27.616-7.3493C39.2262-6.0798 51.4891-6.10321 63.0993-7.40928L69.5726-82.3311L23.4008-17.9088C19.8273-12.9407 21.8037-7.96489 27.616-7.3493ZM42.5743 8.21584C49.6839 8.21584 55.0682 11.4827 59.8483 14.995C63.3555 17.6351 64.2838 18.3221 66.1799 18.3221C68.0474 18.3221 68.9757 17.6351 72.4829 14.995C77.263 11.4827 82.6473 8.21584 89.7855 8.21584C97.1936 8.21584 102.287 11.5009 106.867 14.8313C107.852 15.5482 108.612 16.1221 109.282 16.5531C113.118 11.8869 116.258 6.20462 116.258 2.93102C116.258-0.247694 113.835-3.16935 108.921-2.48633C83.3138 1.12221 54.0803 1.12221 27.2269 1.12221C21.9628 1.12221 19.1371 5.2436 20.8615 10.0248L23.1681 16.4338C23.8382 16.0079 24.5602 15.4625 25.464 14.8313C30.1869 11.4438 35.4801 8.21584 42.5743 8.21584ZM66.1799 34.1905C80.6829 34.1905 82.5576 24.0842 89.7855 24.0842C97.1146 24.0842 98.2853 34.1905 114.551 34.1905L119.768 34.1905C122.505 34.1905 124.723 31.9725 124.723 29.2065C124.723 26.4977 122.505 24.2797 119.768 24.2797L114.551 24.2797C110.256 24.2797 107.481 22.5771 103.377 19.6514C100.142 17.289 96.0632 14.1734 89.7855 14.1734C83.6685 14.1734 79.2754 17.3851 76.0407 19.7813C72.5907 22.3643 70.1173 24.2797 66.1799 24.2797C62.2139 24.2797 59.7405 22.3643 56.2904 19.7813C53.0558 17.3851 48.6627 14.1734 42.5743 14.1734C36.5535 14.1734 32.1941 17.289 28.9595 19.6514C24.8553 22.5771 22.0756 24.2797 17.8083 24.2797L17.4449 24.2797C14.6789 24.2797 12.4609 26.4977 12.4609 29.2065C12.4609 31.9725 14.6789 34.1905 17.4449 34.1905L17.8083 34.1905C34.0745 34.1905 35.2452 24.0842 42.5743 24.0842C49.8022 24.0842 51.6482 34.1905 66.1799 34.1905Z"/>
  </g>
  <g id="Semibold-M" transform="matrix(1 0 0 1 1975.58 1126)">
   <path d="M57.6268 5.20579L66.7176 5.20579L75.0678-91.6786C75.1301-92.2055 75.862-92.3073 76.0632-91.778C79.8733-82.12 82.175-70.638 82.175-59.2157C82.175-43.3235 77.8296-27.4932 66.9673-17.1523L65.7221-7.56823C80.1406-6.08076 94.6783-6.48617 103.982-7.97832C111.42-9.09348 115.102-12.1409 117.629-18.7586C120.197-25.5555 121.329-33.2017 121.329-41.302C121.329-62.4494 111.059-87.084 82.9501-101.811C80.283-103.252 77.6465-103.942 75.3516-103.942C70.6204-103.942 67.1613-101.076 66.7101-95.8447ZM26.8746-7.49409C38.3513-6.23695 50.633-6.248 62.1098-7.51304L68.3986-80.7494L22.9674-17.3614C19.5887-12.6806 21.4193-8.06667 26.8746-7.49409ZM41.8537 8.72524C48.4511 8.72524 53.5533 11.5866 58.7297 15.3981C62.1849 18.0071 63.215 18.7588 65.3034 18.7588C67.3547 18.7588 68.3848 18.0071 71.84 15.3981C77.0164 11.5866 82.1187 8.72524 88.7531 8.72524C95.51 8.72524 100.386 11.5717 105.378 15.1845C106.337 15.8895 107.081 16.4471 107.745 16.8761C111.637 12.2022 114.934 6.28199 114.934 2.998C114.934-0.0769529 112.672-2.75779 108.082-2.1158C82.4561 1.49076 53.1776 1.49076 26.3243 1.49076C21.3721 1.49076 18.76 5.31597 20.3776 9.80989L22.8854 16.7964C23.5684 16.3745 24.2994 15.8162 25.1913 15.1845C30.2936 11.5354 35.2776 8.72524 41.8537 8.72524ZM65.3034 33.4207C79.3673 33.4207 81.3379 23.3872 88.7531 23.3872C96.3007 23.3872 97.5065 33.4207 113.394 33.4207L118.521 33.4207C120.941 33.4207 122.914 31.448 122.914 28.9911C122.914 26.5894 120.941 24.6167 118.521 24.6167L113.394 24.6167C108.749 24.6167 105.902 22.732 101.954 19.9226C98.7403 17.581 94.7142 14.5832 88.7531 14.5832C82.8111 14.5832 78.5664 17.7064 75.3526 20.0921C71.9336 22.6647 69.3847 24.6167 65.3034 24.6167C61.1851 24.6167 58.6361 22.6647 55.2172 20.0921C52.0033 17.7064 47.7586 14.5832 41.8537 14.5832C36.0371 14.5832 31.8365 17.581 28.6227 19.9226C24.6743 22.732 21.8209 24.6167 17.2124 24.6167L16.8905 24.6167C14.4336 24.6167 12.4609 26.5894 12.4609 28.9911C12.4609 31.448 14.4336 33.4207 16.8905 33.4207L17.2124 33.4207C33.1003 33.4207 34.3061 23.3872 41.8537 23.3872C49.2688 23.3872 51.2025 33.4207 65.3034 33.4207Z"/>
  </g>
  <g id="Medium-M" transform="matrix(1 0 0 1 1679.55 1126)">
   <path d="M57.3811 5.08215L65.7373 5.08215L74.1772-92.7728C74.2395-93.3056 74.9696-93.404 75.1737-92.8785C79.2263-82.797 81.6826-70.8306 81.6826-58.9792C81.6826-42.9849 77.3083-27.1742 66.3961-16.7414L65.2329-7.64541C79.5311-6.18157 93.9151-6.60533 103.119-8.08512C110.409-9.17555 113.988-12.1297 116.463-18.6083C119.034-25.4224 120.157-33.0078 120.157-41.0849C120.157-62.1573 110.302-86.4236 81.9511-101.298C79.3712-102.702 76.849-103.358 74.6279-103.358C70.0964-103.358 66.7928-100.643 66.362-95.598ZM26.3124-7.60388C37.6879-6.35611 49.9839-6.35779 61.3595-7.59171L67.5085-79.55L22.6388-16.9463C19.4078-12.4833 21.1277-8.14385 26.3124-7.60388ZM41.3073 9.11149C47.5162 9.11149 52.4047 11.6655 57.8815 15.7038C61.2974 18.2891 62.4046 19.0899 64.6388 19.0899C66.8295 19.0899 67.9368 18.2891 71.3526 15.7038C76.8294 11.6655 81.7179 9.11149 87.9703 9.11149C94.2333 9.11149 98.9441 11.6254 104.25 15.4523C105.188 16.1483 105.92 16.6935 106.58 17.1211C110.514 12.4413 113.93 6.34066 113.93 3.04879C113.93 0.0525098 111.79-2.44573 107.446-1.83485C81.8057 1.77022 52.4931 1.77022 25.6398 1.77022C20.9242 1.77022 18.474 5.37084 20.0106 9.64696L22.6711 17.0714C23.3638 16.6524 24.1016 16.0843 24.9845 15.4523C30.3745 11.6048 35.1241 9.11149 41.3073 9.11149ZM64.6388 32.837C78.3697 32.837 80.4131 22.8586 87.9703 22.8586C95.6835 22.8586 96.916 32.837 112.517 32.837L117.576 32.837C119.755 32.837 121.542 31.0504 121.542 28.8278C121.542 26.6589 119.755 24.8723 117.576 24.8723L112.517 24.8723C107.606 24.8723 104.706 22.8495 100.875 20.1283C97.6774 17.8024 93.6913 14.8939 87.9703 14.8939C82.1611 14.8939 78.0288 17.9499 74.8307 20.3278C71.4355 22.8926 68.8291 24.8723 64.6388 24.8723C60.405 24.8723 57.7987 22.8926 54.4034 20.3278C51.2053 17.9499 47.073 14.8939 41.3073 14.8939C35.6455 14.8939 31.5653 17.8024 28.3673 20.1283C24.5371 22.8495 21.6279 24.8723 16.7605 24.8723L16.4702 24.8723C14.2476 24.8723 12.4609 26.6589 12.4609 28.8278C12.4609 31.0504 14.2476 32.837 16.4702 32.837L16.7605 32.837C32.3616 32.837 33.594 22.8586 41.3073 22.8586C48.8644 22.8586 50.8645 32.837 64.6388 32.837Z"/>
  </g>
  <g id="Regular-M" transform="matrix(1 0 0 1 1383.74 1126)">
   <path d="M57.0605 4.92087L64.4588 4.92087L73.0156-94.1999C73.0779-94.7405 73.8055-94.8345 74.0135-94.3139C78.3824-83.6799 81.0404-71.0818 81.0404-58.6706C81.0404-42.5433 76.6283-26.7581 65.6511-16.2055L64.5949-7.74608C78.7361-6.31307 92.9195-6.76076 101.993-8.22442C109.09-9.28259 112.534-12.115 114.941-18.4123C117.518-25.2487 118.629-32.7549 118.629-40.8018C118.629-61.7763 109.316-85.5622 80.648-100.628C78.1819-101.985 75.8088-102.597 73.6839-102.597C69.413-102.597 66.3123-100.078 65.9078-95.2762ZM25.5791-7.74708C36.8226-6.51154 49.1373-6.50099 60.3808-7.69433L66.3475-77.9856L22.2101-16.405C19.1717-12.226 20.7475-8.24452 25.5791-7.74708ZM40.5945 9.61529C46.2969 9.61529 50.9065 11.7683 56.7752 16.1025C60.1397 18.657 61.3475 19.5217 63.7719 19.5217C66.1445 19.5217 67.3524 18.657 70.7168 16.1025C76.5856 11.7683 81.1951 9.61529 86.9492 9.61529C92.5682 9.61529 97.0637 11.6955 102.777 15.8016C103.69 16.4859 104.406 17.015 105.059 17.4406C109.05 12.7532 112.62 6.41719 112.62 3.11504C112.62 0.221374 110.639-2.03869 106.616-1.4684C80.9574 2.13472 51.6004 2.13472 24.747 2.13472C20.34 2.13472 18.101 5.44241 19.532 9.43446L22.3915 17.43C23.0969 17.015 23.8436 16.4341 24.7149 15.8016C30.4801 11.6955 34.9238 9.61529 40.5945 9.61529ZM63.7719 32.0757C77.0684 32.0757 79.2069 22.1693 86.9492 22.1693C94.8785 22.1693 96.1457 32.0757 111.373 32.0757L116.343 32.0757C118.209 32.0757 119.753 30.5316 119.753 28.6147C119.753 26.7496 118.209 25.2056 116.343 25.2056L111.373 25.2056C106.116 25.2056 103.144 23.0028 99.4685 20.3965C96.2909 18.0913 92.3572 15.2991 86.9492 15.2991C81.3132 15.2991 77.3277 18.2676 74.1501 20.6352C70.7857 23.1897 68.1046 25.2056 63.7719 25.2056C59.3875 25.2056 56.7063 23.1897 53.3419 20.6352C50.1644 18.2676 46.1789 15.2991 40.5945 15.2991C35.1348 15.2991 31.2116 18.0913 28.0341 20.3965C24.3581 23.0028 21.3761 25.2056 16.1711 25.2056L15.9219 25.2056C14.005 25.2056 12.4609 26.7496 12.4609 28.6147C12.4609 30.5316 14.005 32.0757 15.9219 32.0757L16.1711 32.0757C31.3981 32.0757 32.6653 22.1693 40.5945 22.1693C48.3369 22.1693 50.4236 32.0757 63.7719 32.0757Z"/>
  </g>
  <g id="Light-M" transform="matrix(1 0 0 1 1087.93 1126)">
   <path d="M57.0434 4.40754L62.799 4.40754L71.3901-94.0972C71.4524-94.7063 72.2484-94.8516 72.4906-94.1942C76.5686-83.4917 79.1924-70.6712 79.1924-58.0375C79.1924-41.8246 74.9001-25.9025 63.8031-15.1104L63.055-8.0883C76.9908-6.65529 91.0373-7.22275 99.8711-8.63508C106.352-9.59059 109.523-12.1663 111.69-17.8647C114.404-25.0776 115.497-32.4298 115.497-40.3911C115.497-61.2288 106.338-84.5868 77.9616-99.5332C76.043-100.565 74.1661-101.057 72.4348-101.057C68.9167-101.057 66.2438-99.0002 65.8907-94.797ZM24.8262-8.19197C35.8131-6.97353 49.1031-6.94587 60.0899-8.05366L65.6288-76.343L22.0561-15.5323C19.4455-11.9522 20.7475-8.58674 24.8262-8.19197ZM39.8417 10.2484C45.698 10.2484 50.2049 12.7607 55.1839 16.4447C58.5483 18.9992 60.0984 20.1548 63.019 20.1548C65.9049 20.1548 67.455 18.9992 70.8195 16.4447C75.7984 12.7607 80.3053 10.2484 86.1963 10.2484C91.9351 10.2484 96.345 12.6708 101.22 16.1609C101.996 16.7426 102.66 17.2203 103.263 17.6288C107.561 12.5136 110.961 6.00652 110.961 2.70437C110.961 0.170041 109.202-1.71358 105.829-1.22885C80.1874 2.35716 50.7106 2.35716 23.8573 2.35716C20.0833 2.35716 18.255 5.16864 19.4807 8.5618L22.7337 17.6011C23.3707 17.2203 24.0147 16.7079 24.7833 16.1609C29.693 12.6708 34.0683 10.2484 39.8417 10.2484ZM63.019 30.5357C75.7509 30.5357 77.8209 20.6293 86.1963 20.6293C94.7587 20.6293 96.0601 30.5357 110.62 30.5357L115.265 30.5357C116.72 30.5357 117.939 29.3168 117.939 27.8276C117.939 26.3732 116.72 25.1542 115.265 25.1542L110.62 25.1542C105.124 25.1542 101.981 22.8146 98.3049 20.2254C95.1274 17.9202 91.3819 15.2478 86.1963 15.2478C80.8169 15.2478 77.0368 18.0794 73.8592 20.447C70.4948 23.0015 67.6083 25.1542 63.019 25.1542C58.395 25.1542 55.5086 23.0015 52.1441 20.447C48.9666 18.0794 45.1864 15.2478 39.8417 15.2478C34.6215 15.2478 30.9036 17.9202 27.7261 20.2254C24.0501 22.8146 20.8798 25.1542 15.4182 25.1542L15.169 25.1542C13.6799 25.1542 12.4609 26.3732 12.4609 27.8276C12.4609 29.3168 13.6799 30.5357 15.169 30.5357L15.4182 30.5357C29.9779 30.5357 31.2793 20.6293 39.8417 20.6293C48.2171 20.6293 50.2525 30.5357 63.019 30.5357Z"/>
  </g>
  <g id="Thin-M" transform="matrix(1 0 0 1 792.422 1126)">
   <path d="M57.0208 3.72863L60.6038 3.72863L69.2402-93.9614C69.3025-94.661 70.189-94.8742 70.4765-94.0357C74.1698-83.2428 76.7483-70.128 76.7483-57.2002C76.7483-40.8741 72.6144-24.771 61.359-13.662L61.0182-8.54091C74.6825-7.1079 88.5479-7.83378 97.0649-9.17821C102.731-9.99794 105.54-12.2342 107.39-17.1405C110.285-24.8513 111.356-31.9998 111.356-39.848C111.356-60.5046 102.401-83.2969 74.4086-98.0849C73.2142-98.6869 71.9936-99.0203 70.7827-99.0203C68.2605-99.0203 66.1533-97.5744 65.8681-94.1634ZM23.8305-8.78036C34.4779-7.58456 49.0578-7.53427 59.7052-8.5289L64.6783-74.1704L21.8524-14.3781C19.8076-11.5901 20.7475-9.03935 23.8305-8.78036ZM38.8459 11.0857C44.906 11.0857 49.2771 14.0733 53.0792 16.8974C56.4437 19.4518 58.4464 20.9922 62.0233 20.9922C65.5881 20.9922 67.5908 19.4518 70.9553 16.8974C74.7574 14.0733 79.1285 11.0857 85.2006 11.0857C91.0978 11.0857 95.3945 13.9607 99.1607 16.6361C99.7552 17.082 100.352 17.4919 100.886 17.8777C105.592 12.1968 108.765 5.46339 108.765 2.16124C108.765 0.10215 107.301-1.2836 104.788-0.912017C79.1691 2.65136 49.5338 2.65136 22.6805 2.65136C19.7439 2.65136 18.4587 4.80655 19.4128 7.40764L23.1863 17.8274C23.7328 17.4919 24.241 17.07 24.8738 16.6361C28.652 13.9607 32.9367 11.0857 38.8459 11.0857ZM62.0233 28.499C74.0083 28.499 75.9878 18.5925 85.2006 18.5925C94.6003 18.5925 95.947 28.499 109.624 28.499L113.84 28.499C114.751 28.499 115.54 27.71 115.54 26.7866C115.54 25.8753 114.751 25.0863 113.84 25.0863L109.624 25.0863C103.811 25.0863 100.442 22.5656 96.766 19.9991C93.5885 17.6939 90.0919 15.1799 85.2006 15.1799C80.1607 15.1799 76.6521 17.8305 73.4745 20.1981C70.1101 22.7525 66.9521 25.0863 62.0233 25.0863C57.0824 25.0863 53.9244 22.7525 50.56 20.1981C47.3824 17.8305 43.8739 15.1799 38.8459 15.1799C33.9426 15.1799 30.4963 17.6939 27.3188 19.9991C23.6428 22.5656 20.2235 25.0863 14.4225 25.0863L14.1733 25.0863C13.2499 25.0863 12.4609 25.8753 12.4609 26.7866C12.4609 27.71 13.2499 28.499 14.1733 28.499L14.4225 28.499C28.0995 28.499 29.4462 18.5925 38.8459 18.5925C48.0587 18.5925 50.0262 28.499 62.0233 28.499Z"/>
  </g>
  <g id="Ultralight-M" transform="matrix(1 0 0 1 496.325 1126)">
   <path d="M57.0092 3.38089L59.4795 3.38089L68.139-93.8919C68.2013-94.6379 69.1342-94.8858 69.4449-93.9546C72.9411-83.1153 75.4964-69.8498 75.4964-56.7713C75.4964-40.3873 71.4437-24.1915 60.1072-12.9202L59.975-8.77274C73.5002-7.33973 87.2729-8.14674 95.6276-9.4564C100.876-10.2066 103.5-12.269 105.188-16.7696C108.175-24.7354 109.235-31.7796 109.235-39.5698C109.235-60.1337 100.384-82.6362 72.5887-97.343C71.7653-97.7249 70.8808-97.977 69.9366-97.977C67.9243-97.977 66.107-96.8442 65.8565-93.8388ZM23.3205-9.08173C33.794-7.89752 49.0346-7.83564 59.5081-8.77231L64.1915-73.0577L21.7481-13.787C19.9931-11.4047 20.7475-9.27117 23.3205-9.08173ZM38.3359 11.5146C44.5003 11.5146 48.8018 14.7456 52.0012 17.1292C55.3657 19.6837 57.6003 21.4211 61.5132 21.4211C65.4258 21.4211 67.6604 19.6837 71.0248 17.1292C74.2242 14.7456 78.5258 11.5146 84.6906 11.5146C90.6689 11.5146 94.9077 14.6214 98.1059 16.8795C98.6077 17.2559 99.1697 17.631 99.6694 18.0052C104.584 12.0345 107.641 5.1852 107.641 1.88305C107.641 0.0673758 106.327-1.06337 104.255-0.749739C78.6475 2.80205 48.9311 2.80205 22.0777 2.80205C19.57 2.80205 18.563 4.62109 19.378 6.81648L23.4181 17.9434C23.9183 17.631 24.3569 17.2555 24.9202 16.8795C28.1188 14.6214 32.3572 11.5146 38.3359 11.5146ZM61.5132 27.4557C73.1158 27.4557 75.0489 17.5493 84.6906 17.5493C94.5192 17.5493 95.889 27.4557 109.114 27.4557L113.11 27.4557C113.743 27.4557 114.311 26.887 114.311 26.2534C114.311 25.6203 113.743 25.0516 113.11 25.0516L109.114 25.0516C103.139 25.0516 99.6538 22.4381 95.9778 19.8832C92.8003 17.5779 89.4312 15.1451 84.6906 15.1451C79.8245 15.1451 76.455 17.703 73.2775 20.0705C69.913 22.625 66.6159 25.0516 61.5132 25.0516C56.4102 25.0516 53.1131 22.625 49.7486 20.0705C46.5711 17.703 43.2016 15.1451 38.3359 15.1451C33.5949 15.1451 30.2877 17.5779 27.1101 19.8832C23.4341 22.4381 19.8874 25.0516 13.9125 25.0516L13.6632 25.0516C13.0297 25.0516 12.4609 25.6203 12.4609 26.2534C12.4609 26.887 13.0297 27.4557 13.6632 27.4557L13.9125 27.4557C27.1375 27.4557 28.5073 17.5493 38.3359 17.5493C47.9776 17.5493 49.9103 27.4557 61.5132 27.4557Z"/>
  </g>
  <g id="Black-S" transform="matrix(1 0 0 1 2877.39 696)">
   <path d="M46.2402-3.02734L56.4941-3.02734L62.6465-74.6582C62.6953-75.0488 63.2812-75.1465 63.4277-74.707C65.332-68.9941 66.4551-62.1094 66.4551-55.0293C66.4551-43.0176 63.1836-30.5176 54.8828-22.8027L53.5645-13.2324C65.3809-11.9629 77.4414-12.207 85.1562-13.4277C91.6016-14.4043 94.9219-17.1875 97.1191-22.9492C99.1211-28.2227 100.049-34.4727 100.049-40.918C100.049-57.8125 90.1855-78.7109 69.2383-89.5996C66.7969-90.8691 64.2578-91.5527 62.1582-91.5527C57.6172-91.5527 54.248-88.6719 53.8086-83.7891ZM23.4863-13.0371C32.9102-12.0117 42.5293-12.0605 51.9531-13.1836L57.4707-76.0742L19.4336-22.998C16.1621-18.4082 18.0664-13.623 23.4863-13.0371ZM35.1562-2.44141C42.041-2.44141 46.9727 1.17188 49.6582 3.125C52.5391 5.27344 53.0273 5.66406 54.0527 5.66406C55.0781 5.66406 55.5664 5.27344 58.4473 3.125C61.1328 1.17188 66.0645-2.44141 72.9492-2.44141C80.4199-2.44141 84.9609 1.26953 87.4512 3.125C88.2812 3.71094 88.916 4.19922 89.4531 4.54102C92.334 0.878906 94.3848-2.97852 94.3848-5.51758C94.3848-8.25195 92.0898-11.1328 87.4512-10.498C67.4316-7.66602 44.6289-7.66602 23.584-7.66602C18.7012-7.66602 15.9668-3.71094 17.5781 0.732422L18.8965 4.3457C19.3848 4.00391 19.9219 3.61328 20.6543 3.125C23.3398 1.17188 28.2715-2.44141 35.1562-2.44141ZM54.0527 21.0449C66.5039 21.0449 67.7246 12.9395 72.9492 12.9395C78.1738 12.9395 79.0039 21.0449 92.6758 21.0449L96.9727 21.0449C99.9023 21.0449 102.246 18.7012 102.246 15.7715C102.246 12.8906 99.9023 10.5469 96.9727 10.5469L92.6758 10.5469C90.1855 10.5469 88.1836 9.66797 84.5703 7.08008C81.9824 5.17578 78.6621 2.44141 72.9492 2.44141C67.7246 2.44141 63.916 5.17578 61.3281 7.08008C58.5449 9.13086 56.7871 10.5469 54.0527 10.5469C51.3184 10.5469 49.5605 9.13086 46.7773 7.08008C44.1895 5.17578 40.3809 2.44141 35.1562 2.44141C29.9316 2.44141 26.123 5.17578 23.5352 7.08008C19.9219 9.66797 17.9199 10.5469 15.4297 10.5469L15.0391 10.5469C12.1094 10.5469 9.76562 12.8906 9.76562 15.7715C9.76562 18.7012 12.1094 21.0449 15.0391 21.0449L15.4297 21.0449C29.1016 21.0449 29.9316 12.9395 35.1562 12.9395C40.3809 12.9395 41.6016 21.0449 54.0527 21.0449Z"/>
  </g>
  <g id="Heavy-S" transform="matrix(1 0 0 1 2581.57 696)">
   <path d="M45.883-3.14259L55.2725-3.14259L61.5517-76.2716C61.6005-76.6623 62.1749-76.7484 62.3214-76.332C64.6175-70.0083 65.9711-62.4436 65.9711-54.7642C65.9711-42.6142 62.6419-30.1603 54.2835-22.3418L53.0459-13.3016C64.7124-12.0666 76.5655-12.3223 84.1651-13.5315C90.4722-14.485 93.6772-17.1645 95.8284-22.7994C97.8188-28.0498 98.735-34.2306 98.735-40.6529C98.735-57.4552 89.4595-77.8697 68.1204-88.9888C65.7366-90.2468 63.3013-90.8958 61.2593-90.8958C56.9142-90.8958 53.7179-88.1763 53.3015-83.4894ZM22.7603-13.1408C32.0689-12.127 41.5843-12.1643 50.8929-13.2527L56.2606-74.5299L18.9726-22.5025C15.8625-18.1547 17.64-13.6922 22.7603-13.1408ZM34.4533-1.95738C40.7503-1.95738 45.3823 1.16035 48.621 3.52836C51.4442 5.64222 52.0017 6.06742 53.1769 6.06742C54.3406 6.06742 54.898 5.64222 57.7212 3.52836C60.9599 1.16035 65.592-1.95738 71.9005-1.95738C78.6336-1.95738 82.9442 1.22343 85.9991 3.47073C86.8176 4.05667 87.4409 4.53343 87.978 4.87523C90.8819 1.25921 93.1286-2.84022 93.1286-5.39081C93.1286-8.05604 90.9835-10.7179 86.6214-10.1177C66.5788-7.28571 43.7415-7.28571 22.6966-7.28571C18.0789-7.28571 15.5289-3.59569 17.048 0.605653L18.5392 4.72601C19.0506 4.38421 19.6107 3.97054 20.3431 3.47073C23.5588 1.14883 28.1562-1.95738 34.4533-1.95738ZM53.1769 20.388C65.2132 20.388 66.5491 12.3632 71.9005 12.3632C77.2864 12.3632 78.1511 20.388 91.4888 20.388L95.728 20.388C98.3581 20.388 100.471 18.2748 100.471 15.6332C100.471 13.0404 98.3581 10.9272 95.728 10.9272L91.4888 10.9272C88.6413 10.9272 86.5817 9.86388 83.1413 7.40276C80.5764 5.52152 77.2907 2.90238 71.9005 2.90238C66.8372 2.90238 63.1669 5.55609 60.6021 7.44886C57.8535 9.48812 56.038 10.9272 53.1769 10.9272C50.3042 10.9272 48.4888 9.48812 45.7401 7.44886C43.1753 5.55609 39.505 2.90238 34.4533 2.90238C29.4246 2.90238 25.7658 5.52152 23.2009 7.40276C19.7605 9.86388 17.701 10.9272 14.865 10.9272L14.5205 10.9272C11.8789 10.9272 9.76562 13.0404 9.76562 15.6332C9.76562 18.2748 11.8789 20.388 14.5205 20.388L14.865 20.388C28.2027 20.388 29.0673 12.3632 34.4533 12.3632C39.8046 12.3632 41.1291 20.388 53.1769 20.388Z"/>
  </g>
  <g id="Bold-S" transform="matrix(1 0 0 1 2285.85 696)">
   <path d="M45.4834-3.27148L53.9062-3.27148L60.3271-78.0762C60.376-78.4668 60.9375-78.54 61.084-78.1494C63.8184-71.1426 65.4297-62.8174 65.4297-54.4678C65.4297-42.1631 62.0361-29.7607 53.6133-21.8262L52.4658-13.3789C63.9648-12.1826 75.5859-12.4512 83.0566-13.6475C89.209-14.5752 92.2852-17.1387 94.3848-22.6318C96.3623-27.8564 97.2656-33.96 97.2656-40.3564C97.2656-57.0557 88.6475-76.9287 66.8701-88.3057C64.5508-89.5508 62.2314-90.1611 60.2539-90.1611C56.1279-90.1611 53.125-87.6221 52.7344-83.1543ZM21.9482-13.2568C31.1279-12.2559 40.5273-12.2803 49.707-13.3301L54.9072-72.8027L18.457-21.9482C15.5273-17.8711 17.1631-13.7695 21.9482-13.2568ZM33.667-1.41602C39.3066-1.41602 43.6035 1.14746 47.4609 3.97949C50.2197 6.05469 50.8545 6.51855 52.1973 6.51855C53.5156 6.51855 54.1504 6.05469 56.9092 3.97949C60.7666 1.14746 65.0635-1.41602 70.7275-1.41602C76.6357-1.41602 80.6885 1.17188 84.375 3.85742C85.1807 4.44336 85.791 4.90723 86.3281 5.24902C89.2578 1.68457 91.7236-2.68555 91.7236-5.24902C91.7236-7.83691 89.7461-10.2539 85.6934-9.69238C65.625-6.86035 42.749-6.86035 21.7041-6.86035C17.3828-6.86035 15.0391-3.4668 16.4551 0.463867L18.1396 5.15137C18.6768 4.80957 19.2627 4.37012 19.9951 3.85742C23.8037 1.12305 28.0273-1.41602 33.667-1.41602ZM52.1973 19.6533C63.7695 19.6533 65.2344 11.7188 70.7275 11.7188C76.2939 11.7188 77.1973 19.6533 90.1611 19.6533L94.3359 19.6533C96.6309 19.6533 98.4863 17.7979 98.4863 15.4785C98.4863 13.208 96.6309 11.3525 94.3359 11.3525L90.1611 11.3525C86.9141 11.3525 84.79 10.083 81.543 7.76367C79.0039 5.9082 75.7568 3.41797 70.7275 3.41797C65.8447 3.41797 62.3291 5.98145 59.79 7.86133C57.0801 9.8877 55.2002 11.3525 52.1973 11.3525C49.1699 11.3525 47.29 9.8877 44.5801 7.86133C42.041 5.98145 38.5254 3.41797 33.667 3.41797C28.8574 3.41797 25.3662 5.9082 22.8271 7.76367C19.5801 10.083 17.4561 11.3525 14.2334 11.3525L13.9404 11.3525C11.6211 11.3525 9.76562 13.208 9.76562 15.4785C9.76562 17.7979 11.6211 19.6533 13.9404 19.6533L14.2334 19.6533C27.1973 19.6533 28.1006 11.7188 33.667 11.7188C39.1602 11.7188 40.6006 19.6533 52.1973 19.6533Z"/>
  </g>
  <g id="Semibold-S" transform="matrix(1 0 0 1 1989.82 696)">
   <path d="M45.2079-3.36035L52.9643-3.36035L59.4829-79.3203C59.5317-79.7109 60.0844-79.7753 60.2309-79.4024C63.2674-71.9246 65.0564-63.0751 65.0564-54.2634C65.0564-41.8521 61.6185-29.4853 53.1512-21.4707L52.0659-13.4322C63.4494-12.2626 74.9105-12.54 82.2924-13.7274C88.3381-14.6374 91.3254-17.1209 93.3895-22.5163C95.3581-27.7231 96.2525-33.7733 96.2525-40.1521C96.2525-56.7802 88.0876-76.28 66.0081-87.8347C63.7332-89.0709 61.4938-89.6546 59.5607-89.6546C55.5858-89.6546 52.7162-87.2399 52.3434-82.9232ZM21.3884-13.3368C30.4792-12.3447 39.7986-12.3603 48.8895-13.3834L53.9741-71.6119L18.1016-21.5661C15.2963-17.6756 16.8343-13.8229 21.3884-13.3368ZM33.1249-1.04277C38.3113-1.04277 42.3771 1.13857 46.6611 4.29053C49.3755 6.33906 50.0636 6.82959 51.5219 6.82959C52.9469 6.82959 53.635 6.33906 56.3493 4.29053C60.6333 1.13857 64.6991-1.04277 69.9188-1.04277C75.2583-1.04277 79.1333 1.13633 83.2553 4.12402C84.0521 4.70996 84.6535 5.16494 85.1906 5.50674C88.1381 1.97783 90.755-2.57891 90.755-5.15127C90.755-7.68584 88.893-9.93398 85.0535-9.39912C64.9674-6.56709 42.0647-6.56709 21.0198-6.56709C16.9029-6.56709 14.7014-3.37793 16.0463 0.366113L17.8642 5.44463C18.419 5.10283 19.0228 4.64561 19.7552 4.12402C23.9726 1.10527 27.9385-1.04277 33.1249-1.04277ZM51.5219 19.1468C62.7742 19.1468 64.3279 11.2744 69.9188 11.2744C75.6097 11.2744 76.5396 19.1468 89.2458 19.1468L93.3762 19.1468C95.44 19.1468 97.1178 17.469 97.1178 15.3719C97.1178 13.3235 95.44 11.6458 93.3762 11.6458L89.2458 11.6458C85.7232 11.6458 83.5548 10.2341 80.441 8.0125C77.9197 6.1748 74.6993 3.77344 69.9188 3.77344C65.1604 3.77344 61.7515 6.27471 59.2302 8.1457C56.5469 10.1632 54.6226 11.6458 51.5219 11.6458C48.3879 11.6458 46.4636 10.1632 43.7803 8.1457C41.259 6.27471 37.85 3.77344 33.1249 3.77344C28.4664 3.77344 25.0907 6.1748 22.5694 8.0125C19.4557 10.2341 17.2872 11.6458 13.7979 11.6458L13.5405 11.6458C11.4434 11.6458 9.76562 13.3235 9.76562 15.3719C9.76562 17.469 11.4434 19.1468 13.5405 19.1468L13.7979 19.1468C26.5041 19.1468 27.4341 11.2744 33.1249 11.2744C38.7158 11.2744 40.2362 19.1468 51.5219 19.1468Z"/>
  </g>
  <g id="Medium-S" transform="matrix(1 0 0 1 1693.63 696)">
   <path d="M44.999-3.42773L52.25-3.42773L58.8428-80.2637C58.8916-80.6543 59.4375-80.7119 59.584-80.3525C62.8496-72.5176 64.7734-63.2705 64.7734-54.1084C64.7734-41.6162 61.3018-29.2764 52.8008-21.2012L51.7627-13.4727C63.0586-12.3232 74.3984-12.6074 81.7129-13.7881C87.6777-14.6846 90.5977-17.1074 92.6348-22.4287C94.5967-27.6221 95.4844-33.6318 95.4844-39.9971C95.4844-56.5713 87.6631-75.7881 65.3545-87.4775C63.1133-88.707 60.9346-89.2705 59.0352-89.2705C55.1748-89.2705 52.4062-86.9502 52.0469-82.748ZM20.9639-13.3975C29.9873-12.4121 39.2461-12.4209 48.2695-13.4238L53.2666-70.709L17.832-21.2764C15.1211-17.5273 16.585-13.8633 20.9639-13.3975ZM32.7139-0.759766C37.5566-0.759766 41.4473 1.13184 46.0547 4.52637C48.7354 6.55469 49.4639 7.06543 51.0098 7.06543C52.5156 7.06543 53.2441 6.55469 55.9248 4.52637C60.5322 1.13184 64.4229-0.759766 69.3057-0.759766C74.2139-0.759766 77.9541 1.10938 82.4062 4.32617C83.1963 4.91211 83.791 5.36035 84.3281 5.70215C87.2891 2.2002 90.0205-2.49805 90.0205-5.07715C90.0205-7.57129 88.2461-9.69141 84.5684-9.17676C64.4688-6.34473 41.5459-6.34473 20.501-6.34473C16.5391-6.34473 14.4453-3.31055 15.7363 0.291992L17.6553 5.66699C18.2236 5.3252 18.8408 4.85449 19.5732 4.32617C24.1006 1.0918 27.8711-0.759766 32.7139-0.759766ZM51.0098 18.7627C62.0195 18.7627 63.6406 10.9375 69.3057 10.9375C75.0908 10.9375 76.041 18.7627 88.5518 18.7627L92.6484 18.7627C94.5371 18.7627 96.0801 17.2197 96.0801 15.291C96.0801 13.4111 94.5371 11.8682 92.6484 11.8682L88.5518 11.8682C84.8203 11.8682 82.6182 10.3486 79.6055 8.20117C77.0977 6.37695 73.8975 4.04297 69.3057 4.04297C64.6416 4.04297 61.3135 6.49707 58.8057 8.36133C56.1426 10.3721 54.1846 11.8682 51.0098 11.8682C47.7949 11.8682 45.8369 10.3721 43.1738 8.36133C40.666 6.49707 37.3379 4.04297 32.7139 4.04297C28.1699 4.04297 24.8818 6.37695 22.374 8.20117C19.3613 10.3486 17.1592 11.8682 13.4678 11.8682L13.2373 11.8682C11.3086 11.8682 9.76562 13.4111 9.76562 15.291C9.76562 17.2197 11.3086 18.7627 13.2373 18.7627L13.4678 18.7627C25.9785 18.7627 26.9287 10.9375 32.7139 10.9375C38.3789 10.9375 39.96 18.7627 51.0098 18.7627Z"/>
  </g>
  <g id="Regular-S" transform="matrix(1 0 0 1 1397.6 696)">
   <path d="M44.7266-3.51562L51.3184-3.51562L58.0078-81.4941C58.0566-81.8848 58.5938-81.9336 58.7402-81.5918C62.3047-73.291 64.4043-63.5254 64.4043-53.9062C64.4043-41.3086 60.8887-29.0039 52.3438-20.8496L51.3672-13.5254C62.5488-12.4023 73.7305-12.6953 80.957-13.8672C86.8164-14.7461 89.6484-17.0898 91.6504-22.3145C93.6035-27.4902 94.4824-33.4473 94.4824-39.7949C94.4824-56.2988 87.1094-75.1465 64.502-87.0117C62.3047-88.2324 60.2051-88.7695 58.3496-88.7695C54.6387-88.7695 52.002-86.5723 51.6602-82.5195ZM20.4102-13.4766C29.3457-12.5 38.5254-12.5 47.4609-13.4766L52.3438-69.5312L17.4805-20.8984C14.8926-17.334 16.2598-13.916 20.4102-13.4766ZM32.1777-0.390625C36.5723-0.390625 40.2344 1.12305 45.2637 4.83398C47.9004 6.83594 48.6816 7.37305 50.3418 7.37305C51.9531 7.37305 52.7344 6.83594 55.3711 4.83398C60.4004 1.12305 64.0625-0.390625 68.5059-0.390625C72.8516-0.390625 76.416 1.07422 81.2988 4.58984C82.0801 5.17578 82.666 5.61523 83.2031 5.95703C86.1816 2.49023 89.0625-2.39258 89.0625-4.98047C89.0625-7.42188 87.4023-9.375 83.9355-8.88672C63.8184-6.05469 40.8691-6.05469 19.8242-6.05469C16.0645-6.05469 14.1113-3.22266 15.332 0.195312L17.3828 5.95703C17.9688 5.61523 18.6035 5.12695 19.3359 4.58984C24.2676 1.07422 27.7832-0.390625 32.1777-0.390625ZM50.3418 18.2617C61.0352 18.2617 62.7441 10.498 68.5059 10.498C74.4141 10.498 75.3906 18.2617 87.6465 18.2617L91.6992 18.2617C93.3594 18.2617 94.7266 16.8945 94.7266 15.1855C94.7266 13.5254 93.3594 12.1582 91.6992 12.1582L87.6465 12.1582C83.6426 12.1582 81.3965 10.498 78.5156 8.44727C76.0254 6.64062 72.8516 4.39453 68.5059 4.39453C63.9648 4.39453 60.7422 6.78711 58.252 8.64258C55.6152 10.6445 53.6133 12.1582 50.3418 12.1582C47.0215 12.1582 45.0195 10.6445 42.3828 8.64258C39.8926 6.78711 36.6699 4.39453 32.1777 4.39453C27.7832 4.39453 24.6094 6.64062 22.1191 8.44727C19.2383 10.498 16.9922 12.1582 13.0371 12.1582L12.8418 12.1582C11.1328 12.1582 9.76562 13.5254 9.76562 15.1855C9.76562 16.8945 11.1328 18.2617 12.8418 18.2617L13.0371 18.2617C25.293 18.2617 26.2695 10.498 32.1777 10.498C37.9395 10.498 39.5996 18.2617 50.3418 18.2617Z"/>
  </g>
  <g id="Light-S" transform="matrix(1 0 0 1 1101.69 696)">
   <path d="M44.7114-3.96972L49.8501-3.96972L56.5698-81.4033C56.6187-81.8545 57.2163-81.9487 57.3931-81.4858C60.7002-73.1245 62.7695-63.1621 62.7695-53.3462C62.7695-40.6729 59.3599-28.2471 50.709-19.8809L50.0049-13.8281C61.0049-12.7051 72.0654-13.104 79.0801-14.2305C84.3946-15.0186 86.9844-17.1353 88.7744-21.8301C90.8487-27.3389 91.7124-33.1597 91.7124-39.4316C91.7124-55.8145 84.4756-74.2837 62.1255-86.043C60.4126-86.9761 58.752-87.4072 57.2446-87.4072C54.1997-87.4072 51.9414-85.6187 51.645-82.0957ZM19.7441-13.8701C28.4526-12.9087 38.4951-12.8936 47.2036-13.7944L51.708-68.0781L17.3442-20.1265C15.1348-17.0918 16.2598-14.2187 19.7441-13.8701ZM31.5117 0.169429C36.0425 0.169429 39.6138 2.00097 43.856 5.13672C46.4927 7.13867 47.5767 7.9331 49.6758 7.9331C51.7412 7.9331 52.8252 7.13867 55.4619 5.13672C59.7041 2.00097 63.2754 0.169429 67.8398 0.169429C72.2915 0.169429 75.7803 1.937 79.9214 4.90771C80.5816 5.40283 81.1221 5.79687 81.6138 6.12353C84.8648 2.27832 87.5942-2.75586 87.5942-5.34375C87.5942-7.46728 86.1309-9.0874 83.2393-8.67481C63.1372-5.85791 40.082-5.85791 19.0371-5.85791C15.8374-5.85791 14.2476-3.46484 15.2866-0.576654L17.6855 6.1084C18.2109 5.79687 18.7549 5.36914 19.3965 4.90771C23.5713 1.937 27.0264 0.169429 31.5117 0.169429ZM49.6758 16.8994C59.8696 16.8994 61.5181 9.13575 67.8398 9.13575C74.3081 9.13575 75.3149 16.8994 86.9805 16.8994L90.7456 16.8994C92.0425 16.8994 93.1221 15.8198 93.1221 14.4893C93.1221 13.1924 92.0425 12.1128 90.7456 12.1128L86.9805 12.1128C82.7647 12.1128 80.3672 10.3315 77.4863 8.2959C74.9961 6.48926 71.9888 4.34912 67.8398 4.34912C63.5259 4.34912 60.4849 6.62061 57.9946 8.47608C55.3579 10.478 53.1743 12.1128 49.6758 12.1128C46.1436 12.1128 43.96 10.478 41.3233 8.47608C38.833 6.62061 35.792 4.34912 31.5117 4.34912C27.3291 4.34912 24.3369 6.48926 21.8467 8.2959C18.9658 10.3315 16.5532 12.1128 12.3711 12.1128L12.1758 12.1128C10.8452 12.1128 9.76562 13.1924 9.76562 14.4893C9.76562 15.8198 10.8452 16.8994 12.1758 16.8994L12.3711 16.8994C24.0366 16.8994 25.0435 9.13575 31.5117 9.13575C37.8335 9.13575 39.4482 16.8994 49.6758 16.8994Z"/>
  </g>
  <g id="Thin-S" transform="matrix(1 0 0 1 806.039 696)">
   <path d="M44.6914-4.5703L47.9082-4.5703L54.668-81.2832C54.7168-81.8145 55.3946-81.9687 55.6114-81.3457C58.5782-72.9043 60.6075-62.6816 60.6075-52.6055C60.6075-39.832 57.3379-27.2461 48.5469-18.5996L48.2031-14.2285C58.9629-13.1055 69.8633-13.6445 76.5977-14.7109C81.1915-15.3789 83.461-17.1953 84.9708-21.1895C87.2051-27.1387 88.0489-32.7793 88.0489-38.9512C88.0489-55.1738 80.9922-73.1426 58.9825-84.7617C57.9102-85.3145 56.8301-85.6055 55.7832-85.6055C53.6191-85.6055 51.8613-84.3574 51.625-81.5352ZM18.8633-14.3906C27.2715-13.4492 38.4551-13.4141 46.8633-14.2148L50.8672-66.1563L17.1641-19.1055C15.4551-16.7715 16.2598-14.6191 18.8633-14.3906ZM30.6309 0.910146C35.3418 0.910146 38.793 3.16209 41.9942 5.5371C44.6309 7.53906 46.1153 8.67382 48.7949 8.67382C51.4609 8.67382 52.9453 7.53906 55.582 5.5371C58.7832 3.16209 62.2344 0.910146 66.959 0.910146C71.5508 0.910146 74.9395 3.07811 78.0996 5.32812C78.5996 5.70312 79.0801 6.03711 79.5117 6.34375C83.1231 1.99805 85.6524-3.23632 85.6524-5.82421C85.6524-7.52734 84.4492-8.70704 82.3184-8.39454C62.2363-5.59766 39.041-5.59766 17.9961-5.59766C15.5371-5.59766 14.4277-3.78515 15.2266-1.59764L18.0859 6.30859C18.5312 6.03711 18.9551 5.68945 19.4766 5.32812C22.6504 3.07811 26.0254 0.910146 30.6309 0.910146ZM48.7949 15.0977C58.3281 15.0977 59.8965 7.33401 66.959 7.33401C74.168 7.33401 75.2148 15.0977 86.0996 15.0977L89.4844 15.0977C90.3008 15.0977 91 14.3985 91 13.5684C91 12.752 90.3008 12.0527 89.4844 12.0527L86.0996 12.0527C81.6035 12.0527 79.0059 10.1113 76.125 8.09571C73.6348 6.28907 70.8477 4.28906 66.959 4.28906C62.9453 4.28906 60.1445 6.40039 57.6543 8.25586C55.0176 10.2578 52.5938 12.0527 48.7949 12.0527C44.9824 12.0527 42.5586 10.2578 39.9219 8.25586C37.4317 6.40039 34.6309 4.28906 30.6309 4.28906C26.7285 4.28906 23.9766 6.28907 21.4863 8.09571C18.6055 10.1113 15.9727 12.0527 11.4902 12.0527L11.2949 12.0527C10.4648 12.0527 9.76562 12.752 9.76562 13.5684C9.76562 14.3985 10.4648 15.0977 11.2949 15.0977L11.4902 15.0977C22.375 15.0977 23.4219 7.33401 30.6309 7.33401C37.6934 7.33401 39.248 15.0977 48.7949 15.0977Z"/>
  </g>
  <g id="Ultralight-S" transform="matrix(1 0 0 1 509.872 696)">
   <path d="M44.6812-4.87792L46.9136-4.87792L53.6939-81.2217C53.7427-81.7939 54.4615-81.979 54.6988-81.2739C57.4912-72.7915 59.5-62.4356 59.5-52.2261C59.5-39.4014 56.3023-26.7334 47.4395-17.9434L47.2803-14.4336C57.917-13.3105 68.7354-13.9214 75.3262-14.957C79.5508-15.5635 81.6563-17.2261 83.0225-20.8613C85.3389-27.0361 86.1724-32.5845 86.1724-38.7051C86.1724-54.8457 79.2081-72.5581 57.3726-84.1055C56.6285-84.4634 55.8457-84.6826 55.0347-84.6826C53.3218-84.6826 51.8203-83.7114 51.6147-81.2481ZM18.4121-14.6572C26.6665-13.7261 38.4346-13.6807 46.689-14.4302L50.4365-65.1719L17.0718-18.5825C15.6191-16.6074 16.2598-14.8242 18.4121-14.6572ZM30.1797 1.28954C34.9829 1.28954 38.3726 3.75682 41.0406 5.74218C43.6773 7.74413 45.3667 9.05321 48.3438 9.05321C51.3174 9.05321 53.0068 7.74413 55.6436 5.74218C58.3115 3.75682 61.7012 1.28954 66.5078 1.28954C71.1714 1.28954 74.5088 3.66258 77.1665 5.54345C77.5845 5.85693 78.0342 6.16015 78.4351 6.45654C82.231 1.8545 84.6577-3.48241 84.6577-6.0703C84.6577-7.5581 83.5879-8.51221 81.8467-8.25098C61.7749-5.46436 38.5078-5.46436 17.4629-5.46436C15.3833-5.46436 14.52-3.94921 15.1958-2.12059L18.291 6.41113C18.6953 6.16015 19.0576 5.85351 19.5176 5.54345C22.1787 3.66258 25.5127 1.28954 30.1797 1.28954ZM48.3438 14.1748C57.5386 14.1748 59.0659 6.41116 66.5078 6.41116C74.0962 6.41116 75.1636 14.1748 85.6485 14.1748L88.8384 14.1748C89.4087 14.1748 89.9131 13.6704 89.9131 13.0967C89.9131 12.5264 89.4087 12.022 88.8384 12.022L85.6485 12.022C81.0088 12.022 78.3086 9.99854 75.4278 7.99317C72.9375 6.18653 70.2632 4.2583 66.5078 4.2583C62.648 4.2583 59.9702 6.2876 57.48 8.14307C54.8433 10.145 52.2964 12.022 48.3438 12.022C44.3877 12.022 41.8408 10.145 39.2041 8.14307C36.7139 6.2876 34.0362 4.2583 30.1797 4.2583C26.4209 4.2583 23.792 6.18653 21.3018 7.99317C18.4209 9.99854 15.6753 12.022 11.0391 12.022L10.8438 12.022C10.27 12.022 9.76562 12.5264 9.76562 13.0967C9.76562 13.6704 10.27 14.1748 10.8438 14.1748L11.0391 14.1748C21.524 14.1748 22.5913 6.41116 30.1797 6.41116C37.6216 6.41116 39.1455 14.1748 48.3438 14.1748Z"/>
  </g>
 </g>
</svg>
